<svg width="20" height="20" viewBox="0 0 20 20" fill="none" xmlns="http://www.w3.org/2000/svg">
<g clip-path="url(#clip0)">
<path d="M19.3745 9.37533H11.458C11.113 9.37533 10.833 9.09534 10.833 8.75035C10.833 8.40536 11.113 8.12537 11.458 8.12537H19.3745C19.7194 8.12537 19.9994 8.40536 19.9994 8.75035C19.9994 9.09534 19.7194 9.37533 19.3745 9.37533Z" fill="#262D33"/>
<path d="M16.2498 12.5002C16.0898 12.5002 15.9299 12.4393 15.8081 12.3169C15.564 12.0727 15.564 11.6769 15.8081 11.4327L18.4914 8.74956L15.8081 6.06624C15.564 5.82211 15.564 5.42631 15.8081 5.18218C16.0524 4.93789 16.4482 4.93789 16.6923 5.18218L19.8172 8.30707C20.0614 8.55121 20.0614 8.947 19.8172 9.19114L16.6923 12.316C16.5698 12.4393 16.4099 12.5002 16.2498 12.5002Z" fill="#262D33"/>
<path d="M6.66651 20C6.48814 20 6.31892 19.975 6.14986 19.9225L1.13491 18.2517C0.452562 18.0134 0 17.3775 0 16.6668V1.66728C0 0.748115 0.747505 0.000610352 1.66667 0.000610352C1.84488 0.000610352 2.0141 0.025634 2.18331 0.0781226L7.19811 1.74891C7.88061 1.98724 8.33302 2.62306 8.33302 3.33379V18.3333C8.33302 19.2525 7.58567 20 6.66651 20ZM1.66667 1.25057C1.43749 1.25057 1.24996 1.4381 1.24996 1.66728V16.6668C1.24996 16.8443 1.36913 17.0092 1.53911 17.0684L6.53056 18.7317C6.56641 18.7433 6.6131 18.75 6.66651 18.75C6.89569 18.75 7.08306 18.5625 7.08306 18.3333V3.33379C7.08306 3.15633 6.96389 2.99139 6.79392 2.93219L1.80246 1.26888C1.76661 1.25728 1.71992 1.25057 1.66667 1.25057Z" fill="#262D33"/>
<path d="M12.7082 6.66712C12.3632 6.66712 12.0832 6.38713 12.0832 6.04214V2.29226C12.0832 1.71809 11.6159 1.25057 11.0417 1.25057H1.66697C1.32198 1.25057 1.04199 0.970581 1.04199 0.625591C1.04199 0.2806 1.32198 0.000610352 1.66697 0.000610352H11.0417C12.3058 0.000610352 13.3332 1.02811 13.3332 2.29226V6.04214C13.3332 6.38713 13.0532 6.66712 12.7082 6.66712Z" fill="#262D33"/>
<path d="M11.0413 17.5001H7.70799C7.363 17.5001 7.08301 17.2201 7.08301 16.8751C7.08301 16.5301 7.363 16.2501 7.70799 16.2501H11.0413C11.6155 16.2501 12.0829 15.7826 12.0829 15.2084V11.4585C12.0829 11.1135 12.3628 10.8336 12.7078 10.8336C13.0528 10.8336 13.3328 11.1135 13.3328 11.4585V15.2084C13.3328 16.4726 12.3055 17.5001 11.0413 17.5001Z" fill="#262D33"/>
</g>
<defs>
<clipPath id="clip0">
<rect width="20" height="20" fill="white"/>
</clipPath>
</defs>
</svg>
