<svg width="111" height="111" viewBox="0 0 111 111" fill="none" xmlns="http://www.w3.org/2000/svg">
<path d="M55.5 111C86.1518 111 111 86.1518 111 55.5C111 24.8482 86.1518 0 55.5 0C24.8482 0 0 24.8482 0 55.5C0 86.1518 24.8482 111 55.5 111Z" fill="url(#paint0_linear)"/>
<path d="M71.7598 35.9883C71.7598 27.0226 64.4656 19.7285 55.5 19.7285C46.5344 19.7285 39.2402 27.0226 39.2402 35.9883C39.2402 44.9539 46.5344 52.248 55.5 52.248C64.4656 52.248 71.7598 44.9539 71.7598 35.9883ZM55.5 52.248C39.3619 52.248 26.2324 65.3775 26.2324 81.5156V84.5634C26.2324 85.4878 26.6257 86.3684 27.3142 86.9852C35.2356 94.0831 45.2455 97.9922 55.5 97.9922C65.7547 97.9922 75.7647 94.0831 83.6858 86.9852C84.3743 86.3684 84.7676 85.4876 84.7676 84.5634V81.5156C84.7676 65.3775 71.6381 52.248 55.5 52.248Z" fill="url(#paint1_linear)"/>
<defs>
<linearGradient id="paint0_linear" x1="55.5" y1="111" x2="55.5" y2="0" gradientUnits="userSpaceOnUse">
<stop stop-color="#6384EB"/>
<stop offset="1" stop-color="#CBF6FF"/>
</linearGradient>
<linearGradient id="paint1_linear" x1="55.5" y1="97.9922" x2="55.5" y2="19.7285" gradientUnits="userSpaceOnUse">
<stop stop-color="#ADDCFF"/>
<stop offset="0.5028" stop-color="#EAF6FF"/>
<stop offset="1" stop-color="#EAF6FF"/>
</linearGradient>
</defs>
</svg>
