<svg width="1054" height="928" viewBox="0 0 1054 928" fill="none" xmlns="http://www.w3.org/2000/svg">
<g clip-path="url(#clip0)">
<path fill-rule="evenodd" clip-rule="evenodd" d="M972.418 741.566C957.048 714.262 924.944 700.61 876.108 700.61C802.854 700.61 737.454 729.477 696.8 684.321C656.146 639.165 596.562 644.355 544.18 684.321C491.798 724.287 479.053 643.73 392.283 696.968C305.512 750.206 283.688 663.66 245.578 663.66C207.469 663.66 227.356 747.525 168.429 684.321C129.145 642.185 84.5671 661.267 34.6957 741.566H972.418Z" fill="#CBF6FF"/>
</g>
<g clip-path="url(#clip1)">
<path d="M1054 42.3927C1054.87 42.3927 1055.58 43.1009 1055.58 43.9745C1055.58 44.2204 1055.52 44.4531 1055.42 44.6607C1055.74 45.3244 1055.56 46.1288 1054.98 46.5872L1054.85 46.6757L986.996 90.48H1054C1054.87 90.48 1055.58 91.1882 1055.58 92.0618C1055.58 92.884 1054.95 93.5597 1054.15 93.6364L1054 93.6436H2.99999C2.12932 93.6436 1.42349 92.9354 1.42349 92.0618C1.42349 91.2396 2.04872 90.5639 2.84817 90.4872L2.99999 90.48H58.8754L9.10692 46.5329C8.81011 46.2708 8.63498 45.9216 8.5861 45.557L2.99999 45.5563C2.12932 45.5563 1.42349 44.8481 1.42349 43.9745C1.42349 43.1523 2.04872 42.4766 2.84817 42.3999L2.99999 42.3927H1054ZM108.211 47.5072L63.9811 90.48H155.945L108.211 47.5072ZM203.326 47.6116L160.967 90.48H244.278L203.326 47.6116ZM291.936 47.5642L249.104 90.48H336.006L291.936 47.5642ZM385.285 47.5094L340.972 90.48H432.716L385.285 47.5094ZM485.325 47.4661L437.885 90.48H533.871L485.325 47.4661ZM586.983 47.4788L539.087 90.48H633.687L586.983 47.4788ZM691.389 47.4366L638.993 90.48H738.311L691.389 47.4366ZM802.199 47.3512L743.82 90.48H854.154L802.199 47.3512ZM920.687 47.2879L859.905 90.48H980.758L920.687 47.2879ZM856.306 45.5563H804.983L856.306 88.16V45.5563ZM1050.76 45.5563H984.843V88.1083L1050.76 45.5563ZM982.741 45.5563H923.693L982.741 88.0123V45.5563ZM799.31 45.5563H741.957V87.928L799.31 45.5563ZM105.686 45.5563H62.2039V87.8046L105.686 45.5563ZM584.396 45.5563H537.433V87.7202L584.396 45.5563ZM688.702 45.5563H637.383V87.7139L688.702 45.5563ZM917.667 45.5563H858.408V87.6664L917.667 45.5563ZM635.281 45.5563H589.559L635.281 87.6527V45.5563ZM482.728 45.5563H436.326V87.6295L482.728 45.5563ZM157.497 45.5563H110.766L157.497 87.6264V45.5563ZM739.855 45.5563H694.014L739.855 87.6095V45.5563ZM434.224 45.5563H387.835L434.224 87.5831V45.5563ZM535.331 45.5563H487.934L535.331 87.5547V45.5563ZM245.829 45.5563H205.729L245.829 87.5325V45.5563ZM382.763 45.5563H339.529V87.4798L382.763 45.5563ZM337.427 45.5563H294.4L337.427 87.4534V45.5563ZM200.915 45.5563H159.599V87.3722L200.915 45.5563ZM60.1019 45.5563H12.7743L60.1019 87.3501V45.5563ZM289.478 45.5563H247.931V87.1856L289.478 45.5563Z" fill="#979797"/>
<path fill-rule="evenodd" clip-rule="evenodd" d="M9.80958 136.989L51.4662 169.644L88.1448 122.54L46.4882 89.884C39.6272 84.5055 29.7197 85.7261 24.3593 92.6103L7.0925 114.785C1.73208 121.67 2.94856 131.61 9.80958 136.989Z" fill="#2D2C2C"/>
<path fill-rule="evenodd" clip-rule="evenodd" d="M9.80958 136.989L51.4662 169.644L88.1448 122.54L46.4882 89.884C39.6272 84.5055 29.7197 85.7261 24.3593 92.6103L7.0925 114.785C1.73208 121.67 2.94856 131.61 9.80958 136.989Z" fill="black" fill-opacity="0.08"/>
<path fill-rule="evenodd" clip-rule="evenodd" d="M47.6761 91.8814L56.6087 88.8943L73.4068 103.136L72.9526 111.832L47.6761 91.8814Z" fill="#D8D8D8"/>
<path fill-rule="evenodd" clip-rule="evenodd" d="M58.3311 155.899L73.416 210.225L131.011 138.351L73.416 134.4L58.3311 155.899Z" fill="#2D2C2C"/>
<path fill-rule="evenodd" clip-rule="evenodd" d="M67.704 121.173L85.2573 132.828L136.465 134.4L94.098 98.0521L67.704 121.173Z" fill="#2D2C2C"/>
<path fill-rule="evenodd" clip-rule="evenodd" d="M49.8624 144.66L60.8584 162.668L60.6369 214.073L25.9122 170.32L49.8624 144.66Z" fill="#2D2C2C"/>
<path opacity="0.786" fill-rule="evenodd" clip-rule="evenodd" d="M73.416 134.4L131.011 138.351L73.416 210.225L60.8485 164.965L60.6369 214.073L25.9122 170.32L49.8624 144.66L59.6704 160.723L58.3311 155.899L73.416 134.4ZM94.098 98.0521L136.465 134.4L85.2573 132.828L67.704 121.173L94.098 98.0521Z" fill="black" fill-opacity="0.2"/>
<path fill-rule="evenodd" clip-rule="evenodd" d="M47.4016 151.61C46.8013 157.577 48.1537 161.979 51.4588 164.815C56.4165 169.069 69.3269 168.725 80.8958 151.61C92.4646 134.495 87.1741 126.399 85.3041 123.402C83.434 120.406 76.1731 119.851 71.9385 121.627C69.1155 122.811 60.9365 132.805 47.4016 151.61Z" fill="white"/>
<path fill-rule="evenodd" clip-rule="evenodd" d="M36.7851 174.722L90.9622 108.461L65.2604 113.334L36.7851 147.353V174.722Z" fill="#2D2C2C"/>
<path fill-rule="evenodd" clip-rule="evenodd" d="M839.785 136.989L798.128 169.644L761.45 122.54L803.106 89.884C809.967 84.5055 819.875 85.7261 825.235 92.6103L842.502 114.785C847.862 121.67 846.646 131.61 839.785 136.989Z" fill="#2D2C2C"/>
<path fill-rule="evenodd" clip-rule="evenodd" d="M839.785 136.989L798.128 169.644L761.45 122.54L803.106 89.884C809.967 84.5055 819.875 85.7261 825.235 92.6103L842.502 114.785C847.862 121.67 846.646 131.61 839.785 136.989Z" fill="black" fill-opacity="0.08"/>
<path fill-rule="evenodd" clip-rule="evenodd" d="M801.918 91.8814L792.986 88.8943L776.188 103.136L776.642 111.832L801.918 91.8814Z" fill="#D8D8D8"/>
<path fill-rule="evenodd" clip-rule="evenodd" d="M791.263 155.899L776.179 210.225L718.584 138.351L776.179 134.4L791.263 155.899Z" fill="#2D2C2C"/>
<path fill-rule="evenodd" clip-rule="evenodd" d="M781.891 121.173L764.337 132.828L713.129 134.4L755.497 98.0521L781.891 121.173Z" fill="#2D2C2C"/>
<path fill-rule="evenodd" clip-rule="evenodd" d="M799.732 144.66L788.736 162.668L788.958 214.073L823.682 170.32L799.732 144.66Z" fill="#2D2C2C"/>
<path opacity="0.786" fill-rule="evenodd" clip-rule="evenodd" d="M776.179 134.4L718.584 138.351L776.179 210.225L788.746 164.965L788.958 214.073L823.682 170.32L799.732 144.66L789.924 160.723L791.264 155.899L776.179 134.4ZM755.497 98.0521L713.129 134.4L764.337 132.828L781.891 121.173L755.497 98.0521Z" fill="black" fill-opacity="0.2"/>
<path fill-rule="evenodd" clip-rule="evenodd" d="M802.193 151.61C802.793 157.577 801.441 161.979 798.136 164.815C793.178 169.069 780.268 168.725 768.699 151.61C757.13 134.495 762.42 126.399 764.29 123.402C766.161 120.406 773.421 119.851 777.656 121.627C780.479 122.811 788.658 132.805 802.193 151.61Z" fill="white"/>
<path fill-rule="evenodd" clip-rule="evenodd" d="M812.809 174.722L758.632 108.461L784.334 113.334L812.809 147.353V174.722Z" fill="#2D2C2C"/>
<path fill-rule="evenodd" clip-rule="evenodd" d="M557.958 94.3302L557.053 147.361L497.484 146.297L498.389 93.2661C498.538 84.5316 505.716 77.577 514.422 77.7325L542.465 78.2334C551.171 78.3889 558.107 85.5957 557.958 94.3302Z" fill="#2D2C2C"/>
<path fill-rule="evenodd" clip-rule="evenodd" d="M557.958 94.3302L557.053 147.361L497.484 146.297L498.389 93.2661C498.538 84.5316 505.716 77.577 514.422 77.7325L542.465 78.2334C551.171 78.3889 558.107 85.5957 557.958 94.3302Z" fill="black" fill-opacity="0.08"/>
<path fill-rule="evenodd" clip-rule="evenodd" d="M499.192 95.4599L491.258 100.543L491.725 122.603L498.749 127.724L499.192 95.4599Z" fill="#D8D8D8"/>
<path fill-rule="evenodd" clip-rule="evenodd" d="M542.063 144.06L574.663 190.021L482.746 189.667L515.916 142.284L542.063 144.06Z" fill="#2D2C2C"/>
<path fill-rule="evenodd" clip-rule="evenodd" d="M509.276 129.517L507.263 150.54L476.264 191.451L474.755 135.536L509.276 129.517Z" fill="#2D2C2C"/>
<path fill-rule="evenodd" clip-rule="evenodd" d="M538.697 130.37L545.731 150.277L585.693 182.463L573.64 127.856L538.697 130.37Z" fill="#2D2C2C"/>
<path opacity="0.786" fill-rule="evenodd" clip-rule="evenodd" d="M515.924 142.284L482.753 189.668L574.67 190.021L547.511 151.731L585.691 182.482L573.637 127.869L538.69 130.384L544.965 148.142L542.07 144.061L515.924 142.284ZM474.752 135.523L476.261 191.432L507.257 150.525L509.269 129.505L474.752 135.523Z" fill="black" fill-opacity="0.2"/>
<path fill-rule="evenodd" clip-rule="evenodd" d="M545.629 132.841C550.629 136.129 553.189 139.955 553.307 144.316C553.484 150.859 545.096 160.706 524.558 158.949C504.021 157.193 501.076 147.972 499.931 144.628C498.786 141.283 502.924 135.274 506.964 133.091C509.656 131.636 522.545 131.552 545.629 132.841Z" fill="white"/>
<path fill-rule="evenodd" clip-rule="evenodd" d="M570.214 139.115L484.798 139.631L504.741 122.665L549.01 121.885L570.214 139.115Z" fill="#2D2C2C"/>
<path fill-rule="evenodd" clip-rule="evenodd" d="M213.011 136.989L254.668 169.644L291.346 122.54L249.69 89.884C242.829 84.5055 232.921 85.7261 227.561 92.6103L210.294 114.785C204.933 121.67 206.15 131.61 213.011 136.989Z" fill="#2D2C2C"/>
<path fill-rule="evenodd" clip-rule="evenodd" d="M213.011 136.989L254.668 169.644L291.346 122.54L249.69 89.884C242.829 84.5055 232.921 85.7261 227.561 92.6103L210.294 114.785C204.933 121.67 206.15 131.61 213.011 136.989Z" fill="black" fill-opacity="0.08"/>
<path fill-rule="evenodd" clip-rule="evenodd" d="M250.878 91.8814L259.81 88.8943L276.608 103.136L276.154 111.832L250.878 91.8814Z" fill="#D8D8D8"/>
<path fill-rule="evenodd" clip-rule="evenodd" d="M261.532 155.899L276.617 210.225L334.212 138.351L276.617 134.4L261.532 155.899Z" fill="#2D2C2C"/>
<path fill-rule="evenodd" clip-rule="evenodd" d="M270.905 121.173L288.459 132.828L339.667 134.4L297.299 98.0521L270.905 121.173Z" fill="#2D2C2C"/>
<path fill-rule="evenodd" clip-rule="evenodd" d="M253.064 144.66L264.06 162.668L263.838 214.073L229.114 170.32L253.064 144.66Z" fill="#2D2C2C"/>
<path opacity="0.786" fill-rule="evenodd" clip-rule="evenodd" d="M276.617 134.4L334.212 138.351L276.617 210.225L264.05 164.965L263.838 214.073L229.114 170.32L253.064 144.66L262.872 160.723L261.532 155.899L276.617 134.4ZM297.299 98.0521L339.667 134.4L288.459 132.828L270.905 121.173L297.299 98.0521Z" fill="black" fill-opacity="0.2"/>
<path fill-rule="evenodd" clip-rule="evenodd" d="M250.603 151.61C250.003 157.577 251.355 161.979 254.66 164.815C259.618 169.069 272.528 168.725 284.097 151.61C295.666 134.495 290.375 126.399 288.505 123.402C286.635 120.406 279.374 119.851 275.14 121.627C272.317 122.811 264.138 132.805 250.603 151.61Z" fill="white"/>
<path fill-rule="evenodd" clip-rule="evenodd" d="M239.986 174.722L294.164 108.461L268.462 113.334L239.986 147.353V174.722Z" fill="#2D2C2C"/>
<path fill-rule="evenodd" clip-rule="evenodd" d="M1047.19 136.989L1005.53 169.644L968.855 122.54L1010.51 89.884C1017.37 84.5055 1027.28 85.7261 1032.64 92.6103L1049.91 114.785C1055.27 121.67 1054.05 131.61 1047.19 136.989Z" fill="#2D2C2C"/>
<path fill-rule="evenodd" clip-rule="evenodd" d="M1047.19 136.989L1005.53 169.644L968.855 122.54L1010.51 89.884C1017.37 84.5055 1027.28 85.7261 1032.64 92.6103L1049.91 114.785C1055.27 121.67 1054.05 131.61 1047.19 136.989Z" fill="black" fill-opacity="0.08"/>
<path fill-rule="evenodd" clip-rule="evenodd" d="M1009.32 91.8814L1000.39 88.8943L983.593 103.136L984.047 111.832L1009.32 91.8814Z" fill="#D8D8D8"/>
<path fill-rule="evenodd" clip-rule="evenodd" d="M998.669 155.899L983.584 210.225L925.989 138.351L983.584 134.4L998.669 155.899Z" fill="#2D2C2C"/>
<path fill-rule="evenodd" clip-rule="evenodd" d="M989.296 121.173L971.743 132.828L920.535 134.4L962.902 98.0521L989.296 121.173Z" fill="#2D2C2C"/>
<path fill-rule="evenodd" clip-rule="evenodd" d="M1007.14 144.66L996.142 162.668L996.363 214.073L1031.09 170.32L1007.14 144.66Z" fill="#2D2C2C"/>
<path opacity="0.786" fill-rule="evenodd" clip-rule="evenodd" d="M983.584 134.4L925.989 138.351L983.584 210.225L996.151 164.965L996.363 214.073L1031.09 170.32L1007.14 144.66L997.33 160.723L998.669 155.899L983.584 134.4ZM962.902 98.0521L920.535 134.4L971.743 132.828L989.296 121.173L962.902 98.0521Z" fill="black" fill-opacity="0.2"/>
<path fill-rule="evenodd" clip-rule="evenodd" d="M1009.6 151.61C1010.2 157.577 1008.85 161.979 1005.54 164.815C1000.58 169.069 987.673 168.725 976.104 151.61C964.535 134.495 969.826 126.399 971.696 123.402C973.566 120.406 980.827 119.851 985.061 121.627C987.884 122.811 996.063 132.805 1009.6 151.61Z" fill="white"/>
<path fill-rule="evenodd" clip-rule="evenodd" d="M1020.21 174.722L966.038 108.461L991.74 113.334L1020.21 147.353V174.722Z" fill="#2D2C2C"/>
</g>
<g clip-path="url(#clip2)">
<path fill-rule="evenodd" clip-rule="evenodd" d="M676.768 591.997C664.767 593.663 656.388 604.741 658.054 616.741C658.267 618.276 658.634 619.752 659.137 621.155L687.904 705.608C688.005 705.977 688.128 706.336 688.271 706.683L688.282 706.713C688.377 706.937 688.48 707.157 688.59 707.372L688.548 707.393L746.071 796.542C749.132 794.342 748.79 793.335 749.159 793.353C749.159 793.353 738.051 767.472 705.076 699.762L705.33 700.282C705.242 700.021 705.143 699.765 705.033 699.516L704.967 699.373L701.748 612.141L701.664 612.157C701.629 611.677 701.578 611.195 701.511 610.711C699.846 598.711 688.767 590.333 676.768 591.997Z" fill="#C3786F"/>
<path fill-rule="evenodd" clip-rule="evenodd" d="M650.536 806.054H625.444V804.287C625.444 804.287 634.106 804.273 650.536 804.287V806.054Z" fill="#6384EB"/>
<path fill-rule="evenodd" clip-rule="evenodd" d="M671.166 590.551C660.13 587.367 648.601 593.73 645.416 604.766C645.153 605.678 644.955 606.593 644.819 607.506L644.767 607.491L634.734 696.541C634.529 697.505 634.498 698.47 634.622 699.402L644.003 796.788L649.421 800.766L650.303 794.489C650.303 794.489 650.429 707.661 651.266 699.97C651.268 699.969 651.268 699.966 651.269 699.963L651.271 699.964L684.456 618.872C684.813 618.046 685.123 617.189 685.379 616.301C688.565 605.265 682.201 593.736 671.166 590.551Z" fill="#C3786F"/>
<path fill-rule="evenodd" clip-rule="evenodd" d="M671.166 590.551C660.13 587.367 648.601 593.73 645.416 604.766C645.153 605.678 644.955 606.593 644.819 607.506L644.767 607.491L634.734 696.541C634.529 697.505 634.498 698.47 634.622 699.402L644.003 796.788L649.421 800.766L650.303 794.489C650.303 794.489 650.429 707.661 651.266 699.97C651.268 699.969 651.268 699.966 651.269 699.963L651.271 699.964L684.456 618.872C684.813 618.046 685.123 617.189 685.379 616.301C688.565 605.265 682.201 593.736 671.166 590.551Z" fill="black" fill-opacity="0.04"/>
<path fill-rule="evenodd" clip-rule="evenodd" d="M650.536 780.475V804.355L625.444 804.339C625.517 802.802 625.665 801.93 628.651 801.871C633.13 801.785 643.932 802.272 643.935 797.996C643.935 797.083 642.172 791.684 639.834 781.728L650.536 780.475Z" fill="#E9E9E9"/>
<path fill-rule="evenodd" clip-rule="evenodd" d="M650.536 780.475V804.355L625.444 804.339C625.517 802.802 625.665 801.93 628.651 801.871C633.13 801.785 643.932 802.272 643.935 797.996C643.935 797.083 642.172 791.684 639.834 781.728L650.536 780.475Z" fill="black" fill-opacity="0.02"/>
<path fill-rule="evenodd" clip-rule="evenodd" d="M740.971 772.061L750.684 793.876L727.754 804.067C727.196 802.633 726.977 801.777 729.68 800.509C733.737 798.608 742.255 795.032 740.519 791.124C740.149 790.29 737.889 785.702 731.704 777.558L740.971 772.061Z" fill="#E9E9E9"/>
<path fill-rule="evenodd" clip-rule="evenodd" d="M751.374 795.428L728.451 805.634L727.733 804.02C727.733 804.02 735.641 800.484 750.656 793.814L751.374 795.428Z" fill="#6384EB"/>
<path fill-rule="evenodd" clip-rule="evenodd" d="M650.941 581.712L620.296 690.682L653.723 701.53L701.344 599.761L650.941 581.712Z" fill="#6384EB"/>
<path fill-rule="evenodd" clip-rule="evenodd" d="M650.941 581.712L620.296 690.682L653.723 701.53L701.344 599.761L650.941 581.712Z" fill="black" fill-opacity="0.08"/>
<path fill-rule="evenodd" clip-rule="evenodd" d="M658.834 589.464L672.757 702.451L705.95 701.581L705.697 588.335L658.834 589.464Z" fill="#6384EB"/>
</g>
<path fill-rule="evenodd" clip-rule="evenodd" d="M670.416 448.019C669.286 437.459 664.502 429.626 659.732 430.523C654.961 431.42 652.01 440.708 653.14 451.268C653.901 458.385 656.322 464.263 659.28 467.065L657.345 504.368H675.628L670.604 454.539C670.713 452.47 670.657 450.273 670.416 448.019Z" fill="#C3786F"/>
<path fill-rule="evenodd" clip-rule="evenodd" d="M675.628 504.368H657.345L659.853 456.038L670.465 453.173L675.628 504.368Z" fill="black" fill-opacity="0.04"/>
<path fill-rule="evenodd" clip-rule="evenodd" d="M664.896 425.352C650.901 423.258 651.213 422.8 651.084 424.202C650.882 426.387 650.869 440.393 654.874 440.165C657.418 440.021 664.01 436.606 667.25 438.243C667.931 438.587 668.368 441.616 668.562 447.33L668.552 447.014L666.168 454.931L659.363 454.694C656.521 453.283 654.689 453.484 653.867 455.298C652.633 458.019 656.964 472.743 664.214 469.164C669.047 466.778 671.518 461.095 671.627 452.115L671.542 451.927C676.384 435.598 674.169 426.74 664.896 425.352Z" fill="#CAC9C9"/>
<path d="M656.347 460.144C655.732 460.123 654.487 459.67 654.538 458.205L658.287 458.335C658.239 459.692 656.962 460.166 656.347 460.144Z" fill="white"/>
<path fill-rule="evenodd" clip-rule="evenodd" d="M637.388 495.883C636.985 500.581 629.424 544.035 627.294 557.029C623.586 560.77 615.158 571.622 592.875 598.92L593.033 599.096C592.99 599.137 592.947 599.18 592.906 599.225L592.839 599.3L584.922 601.26L578.546 602.301L573.019 606.519C572.589 606.865 572.794 607.119 572.883 607.107C574.769 606.855 576.161 606.256 577.812 604.989C579.976 605.328 581.428 604.068 581.256 606.078C581.237 606.314 578.215 608.126 574.872 609.145C574.398 609.289 572.146 610.159 571.86 610.248C570.217 610.767 569.932 610.759 568.719 610.929C568.346 610.981 567.914 611.212 567.425 611.622C567.356 611.682 567.3 611.752 567.269 611.826C567.181 612.028 567.282 612.197 567.496 612.205C567.977 612.223 568.501 612.222 569.067 612.2C569.896 612.17 572.407 611.74 574.508 611.144C575.931 610.741 577.7 610.257 577.921 610.265C578.264 610.277 575.497 611.303 573.356 612.313C571.216 613.325 569.545 612.861 567.412 613.085C567.119 613.115 566.617 613.33 565.908 613.726C565.87 613.747 565.562 614.032 565.731 614.199C565.902 614.368 568.477 614.648 569.911 614.616C572.303 614.561 572.753 614.349 573.8 613.931C575.105 613.409 577.461 612.576 578.115 612.376C578.769 612.177 575.396 614.079 572.714 614.925C572.297 615.057 571.409 615.214 571.002 615.295C569.779 615.537 568.068 615.374 567.591 615.807C567.522 615.868 567.462 615.938 567.415 616.011C567.199 616.349 567.294 616.685 567.627 616.764C568.49 616.964 569.711 616.992 571.29 616.848C571.66 616.814 573.114 616.64 573.614 616.459C575.729 615.697 578.206 614.31 578.476 614.33C578.746 614.35 577.225 615.004 575.417 615.912C575.005 616.12 573.265 616.79 572.947 616.94C572.527 617.138 572.21 617.209 571.461 617.474C569.966 618.005 570.006 618.652 570.915 618.722C571.824 618.793 578.464 616.643 581.278 615.315C582.819 614.587 585.987 613.422 589.582 611.042L598.501 604.713L598.378 604.561C598.409 604.53 598.44 604.499 598.47 604.466C598.574 604.355 598.67 604.239 598.758 604.118C620.482 587.546 634.705 577.084 640.525 569.781C640.836 569.47 641.109 569.146 641.336 568.817C641.523 568.546 641.713 568.226 641.906 567.862C642.728 566.565 643.237 565.377 643.427 564.274C648.666 549.699 655.232 511.088 657.578 500.089C657.578 500.089 644.738 496.571 637.388 495.883Z" fill="#C3786F"/>
<path fill-rule="evenodd" clip-rule="evenodd" d="M637.388 495.883C636.985 500.581 629.424 544.035 627.294 557.029C623.586 560.77 615.158 571.622 592.875 598.92L593.033 599.096C592.99 599.137 592.947 599.18 592.906 599.225L592.839 599.3L584.922 601.26L578.546 602.301L573.019 606.519C572.589 606.865 572.794 607.119 572.883 607.107C574.769 606.855 576.161 606.256 577.812 604.989C579.976 605.328 581.428 604.068 581.256 606.078C581.237 606.314 578.215 608.126 574.872 609.145C574.398 609.289 572.146 610.159 571.86 610.248C570.217 610.767 569.932 610.759 568.719 610.929C568.346 610.981 567.914 611.212 567.425 611.622C567.356 611.682 567.3 611.752 567.269 611.826C567.181 612.028 567.282 612.197 567.496 612.205C567.977 612.223 568.501 612.222 569.067 612.2C569.896 612.17 572.407 611.74 574.508 611.144C575.931 610.741 577.7 610.257 577.921 610.265C578.264 610.277 575.497 611.303 573.356 612.313C571.216 613.325 569.545 612.861 567.412 613.085C567.119 613.115 566.617 613.33 565.908 613.726C565.87 613.747 565.562 614.032 565.731 614.199C565.902 614.368 568.477 614.648 569.911 614.616C572.303 614.561 572.753 614.349 573.8 613.931C575.105 613.409 577.461 612.576 578.115 612.376C578.769 612.177 575.396 614.079 572.714 614.925C572.297 615.057 571.409 615.214 571.002 615.295C569.779 615.537 568.068 615.374 567.591 615.807C567.522 615.868 567.462 615.938 567.415 616.011C567.199 616.349 567.294 616.685 567.627 616.764C568.49 616.964 569.711 616.992 571.29 616.848C571.66 616.814 573.114 616.64 573.614 616.459C575.729 615.697 578.206 614.31 578.476 614.33C578.746 614.35 577.225 615.004 575.417 615.912C575.005 616.12 573.265 616.79 572.947 616.94C572.527 617.138 572.21 617.209 571.461 617.474C569.966 618.005 570.006 618.652 570.915 618.722C571.824 618.793 578.464 616.643 581.278 615.315C582.819 614.587 585.987 613.422 589.582 611.042L598.501 604.713L598.378 604.561C598.409 604.53 598.44 604.499 598.47 604.466C598.574 604.355 598.67 604.239 598.758 604.118C620.482 587.546 634.705 577.084 640.525 569.781C640.836 569.47 641.109 569.146 641.336 568.817C641.523 568.546 641.713 568.226 641.906 567.862C642.728 566.565 643.237 565.377 643.427 564.274C648.666 549.699 655.232 511.088 657.578 500.089C657.578 500.089 644.738 496.571 637.388 495.883Z" fill="black" fill-opacity="0.04"/>
<path fill-rule="evenodd" clip-rule="evenodd" d="M650.952 490.656C642.95 489.517 635.508 495.469 634.388 503.907L631.362 526.673L659.97 530.748L663.191 507.833C664.366 499.472 658.89 491.787 650.952 490.656Z" fill="#FEA770"/>
<path fill-rule="evenodd" clip-rule="evenodd" d="M650.952 490.656C642.95 489.517 635.508 495.469 634.388 503.907L631.362 526.673L659.97 530.748L663.191 507.833C664.366 499.472 658.89 491.787 650.952 490.656Z" fill="black" fill-opacity="0.04"/>
<path fill-rule="evenodd" clip-rule="evenodd" d="M658.715 490.206C658.715 490.206 669.963 480.879 675.079 480.879C702.921 480.879 710.815 502.029 710.039 532.219C709.944 535.903 709.535 550.977 708.35 578.408C708.032 585.755 707.685 608.977 707.328 616.287C705.992 643.657 635.198 631.9 636.592 604.476C636.879 598.809 635.813 567.273 634.447 532.856C634.087 523.769 633.489 504.566 636.321 496.896C640.124 486.595 652.543 483.315 658.077 482.503C658.502 487.638 658.715 490.206 658.715 490.206Z" fill="#FEA770"/>
<path fill-rule="evenodd" clip-rule="evenodd" d="M665.321 562.211L653.045 528.453L645.863 536.517L637.689 507.792L647.545 527.636L654.277 519.986L665.321 562.211Z" fill="white"/>
<path fill-rule="evenodd" clip-rule="evenodd" d="M598.818 502.911L575.53 522.684C574.291 522.212 573.499 521.373 573.153 520.168C572.808 518.963 580.101 511.667 595.032 498.281L598.818 502.911Z" fill="#6D6D6D"/>
<path fill-rule="evenodd" clip-rule="evenodd" d="M700.25 499.16C694.857 494.637 686.581 495.737 681.953 501.585C672.706 513.269 657.781 531.596 650.504 540.717C643.544 536.432 630.908 529.021 608.785 515.946L609.138 516.154L603.023 508.56L599.932 502.591L598.487 501.258L597.583 500.843L596.591 502.069C596.591 502.069 599.016 505.942 597.083 506.322C596.844 506.369 594.077 503.912 591.992 500.917C591.695 500.49 589.306 499.93 590.573 501.825C591.433 503.108 591.808 504.008 591.874 504.227C591.972 504.566 591.964 504.748 590.274 502.931C588.582 501.115 588.209 502.903 588.961 503.815C589.898 504.948 589.446 504.428 589.854 505.014C590.149 505.438 589.823 505.467 588.342 503.789C587.942 503.337 586.693 503.896 586.98 504.894C587.1 505.313 587.683 505.485 588.044 505.921C589.261 507.398 588.663 506.742 587.181 505.223C586.972 505.007 585.688 505.447 586.048 506.623C586.266 507.34 587.139 508.048 587.98 508.951C589.197 510.26 591.371 513.043 594.884 515.9L604.894 522.746C634.763 555.758 647.411 566.078 654.373 562.294C655.182 561.819 655.91 561.312 656.56 560.781C657.1 560.573 657.57 560.314 657.943 560.011C663.789 555.258 687.685 532.823 701.167 518.048C706.263 512.461 705.973 503.977 700.512 499.38C700.424 499.307 700.337 499.234 700.25 499.16Z" fill="#C3786F"/>
<path d="M592.769 499.515C591.674 495.694 593.883 491.709 597.704 490.613C601.524 489.517 605.51 491.727 606.606 495.547C607.701 499.368 605.492 503.354 601.671 504.449C597.85 505.545 593.865 503.336 592.769 499.515Z" fill="#D8D8D8"/>
<path d="M605.079 502.703C602.19 501.563 599.969 500.132 598.41 498.418C596.965 496.83 596.065 494.637 595.721 491.822L595.665 491.319L594.389 491.442C594.71 494.758 595.729 497.378 597.461 499.281C599.056 501.035 601.252 502.495 604.042 503.666L604.608 503.896L605.079 502.703Z" fill="#979797"/>
<path fill-rule="evenodd" clip-rule="evenodd" d="M700.831 497.792C694.559 492.694 685.114 493.964 679.807 500.619L665.489 518.575L687.912 536.802L702.474 518.819C707.788 512.257 707.052 502.85 700.831 497.792Z" fill="#FEA770"/>
<path fill-rule="evenodd" clip-rule="evenodd" d="M700.831 497.792C694.559 492.694 685.114 493.964 679.807 500.619L665.489 518.575L687.912 536.802L702.474 518.819C707.788 512.257 707.052 502.85 700.831 497.792Z" fill="black" fill-opacity="0.04"/>
<path fill-rule="evenodd" clip-rule="evenodd" d="M357.884 589.492C369.999 589.472 379.839 599.276 379.859 611.391C379.862 612.924 379.707 614.421 379.41 615.865L362.726 702.909C362.634 704.528 362.119 706.035 361.29 707.32L312.494 799.745C309.253 797.82 307.813 796.961 307.447 797.011C307.447 797.011 317.949 770.086 344.898 699.76L335.95 612.917L336.036 612.921C336.004 612.44 335.987 611.956 335.986 611.468C335.964 599.353 345.769 589.514 357.884 589.492Z" fill="#F0A19E"/>
<path fill-rule="evenodd" clip-rule="evenodd" d="M381.887 591.725C393.374 591.705 402.702 601 402.722 612.486C402.726 614.895 402.321 617.208 401.571 619.361L387.697 703.585C387.608 705.042 387.149 706.398 386.413 707.562L364.66 800.472L358.741 803.656V797.318C358.741 797.318 370.499 710.309 370.707 702.787L370.833 702.8C370.844 702.436 370.877 702.078 370.933 701.727L362.514 620.006C361.622 617.695 361.132 615.184 361.127 612.559C361.107 601.073 370.401 591.745 381.887 591.725Z" fill="#F0A19E"/>
<path fill-rule="evenodd" clip-rule="evenodd" d="M387.173 704.313L364.66 800.472L358.741 803.656V797.318C358.741 797.318 370.499 710.309 370.707 702.787L387.173 704.313Z" fill="black" fill-opacity="0.04"/>
<path fill-rule="evenodd" clip-rule="evenodd" d="M358.169 783.072V806.952L383.261 806.935C383.188 805.398 383.04 804.527 380.054 804.468C375.575 804.382 364.773 804.868 364.771 800.592C364.77 799.68 366.533 794.28 368.871 784.325L358.169 783.072Z" fill="#E9E9E9"/>
<path fill-rule="evenodd" clip-rule="evenodd" d="M358.169 783.072V806.952L383.261 806.935C383.188 805.398 383.04 804.527 380.054 804.468C375.575 804.382 364.773 804.868 364.771 800.592C364.77 799.68 366.533 794.28 368.871 784.325L358.169 783.072Z" fill="black" fill-opacity="0.04"/>
<path fill-rule="evenodd" clip-rule="evenodd" d="M358.169 808.65H383.261V806.883C383.261 806.883 374.599 806.869 358.169 806.883V808.65Z" fill="#284964"/>
<path fill-rule="evenodd" clip-rule="evenodd" d="M313.363 781.753C307.239 796.607 304.568 804.718 305.366 805.178C306.182 805.648 312.084 806.52 313.764 806.848C315.336 807.156 322.772 807.953 326.935 806.93C326.935 806.93 327.25 803.606 326.254 803.342C324.76 802.949 319.921 803.06 317.915 802.876C315.609 802.666 311.422 799.595 312.493 800.213C312.493 800.213 317.255 794.296 323.644 783.4L313.363 781.753Z" fill="#E9E9E9"/>
<path fill-rule="evenodd" clip-rule="evenodd" d="M305.236 804.961L313.764 806.848L326.963 806.93V808.65H313.764L304.981 806.805L305.236 804.961Z" fill="#284964"/>
<path fill-rule="evenodd" clip-rule="evenodd" d="M405.361 586.373L395.48 708.159L389.311 764.896L347.389 760.561L356.455 705.232L362.095 586.373H405.361Z" fill="#284964"/>
<path fill-rule="evenodd" clip-rule="evenodd" d="M405.361 586.373L395.48 708.159L389.311 764.896L347.389 760.561L356.455 705.232L362.095 586.373H405.361Z" fill="black" fill-opacity="0.04"/>
<path d="M386.556 587.959L379.325 705.236L368.661 762.592L369.878 762.819L380.551 705.387L387.791 588.036L386.556 587.959Z" fill="white"/>
<path fill-rule="evenodd" clip-rule="evenodd" d="M380.482 586.073L369.338 708.153L345.65 765.515L308.546 746.931L334.379 697.661V586.073H380.482Z" fill="#284964"/>
<path d="M353.008 702.358L353.063 702.128L353.013 702.238L353.008 702.358ZM353.013 702.238L328.308 756.408L329.434 756.922L354.239 702.533L359.359 587.374L358.122 587.319L353.013 702.238Z" fill="white"/>
<g clip-path="url(#clip3)">
<path fill-rule="evenodd" clip-rule="evenodd" d="M400.927 511.961C394.423 554.183 376.036 573.519 364.496 560.603C364.208 560.281 353.171 538.78 361.819 497.819C366.832 474.076 371.494 464.22 386.875 464.22C402.811 464.22 402.811 499.731 400.927 511.961Z" fill="#CAC9C9"/>
<path fill-rule="evenodd" clip-rule="evenodd" d="M400.927 511.961C394.423 554.183 376.036 573.519 364.496 560.603C364.208 560.281 353.171 538.78 361.819 497.819C366.832 474.076 371.494 464.22 386.875 464.22C402.811 464.22 402.811 499.731 400.927 511.961Z" fill="black" fill-opacity="0.2"/>
<path fill-rule="evenodd" clip-rule="evenodd" d="M355.833 526.499L377.154 473.335L388.011 482.076L380.529 526.499L355.833 526.499Z" fill="#F0A19E"/>
<path fill-rule="evenodd" clip-rule="evenodd" d="M355.833 526.499L377.154 473.335L388.011 482.076L380.529 526.499L355.833 526.499Z" fill="black" fill-opacity="0.04"/>
<path d="M391.672 490.189C396.858 489.087 399.533 481.002 397.647 472.132C395.762 463.261 390.03 456.964 384.844 458.066C379.659 459.168 376.984 467.253 378.87 476.123C380.755 484.994 386.487 491.291 391.672 490.189Z" fill="#F0A19E"/>
<path d="M393.191 484.45C393.826 484.494 395.155 484.154 395.263 482.614C395.263 482.614 395.661 478.936 393.83 478.936C391.739 478.936 391.397 482.346 391.397 482.346C391.297 483.772 392.557 484.406 393.191 484.45Z" fill="#403E3E"/>
<path d="M395.087 480.08C395.067 480.017 395.051 479.97 395.039 479.939C394.83 479.37 394.464 478.937 393.836 478.937C393.133 478.937 392.628 479.322 392.267 479.833C392.229 479.887 392.176 479.97 392.107 480.083L395.087 480.08Z" fill="white"/>
<path fill-rule="evenodd" clip-rule="evenodd" d="M358.517 538.727C356.273 569.57 326.467 604.427 320.04 547.62C317.23 522.787 332.855 507.742 347.401 487.112C355.62 475.456 358.919 467.717 362.664 460.775C368.576 449.816 377.45 442.732 395.345 455.489C400.234 458.973 397.672 461.849 387.66 464.118C387.337 465.586 384.381 465.908 382.638 471.275C382.333 471.75 377.839 484.651 368.994 497.93C358.85 513.158 358.766 535.291 358.517 538.727Z" fill="#CAC9C9"/>
<path fill-rule="evenodd" clip-rule="evenodd" d="M379.863 478.856C395.032 461.532 411.148 466.046 420.9 461.532C425.411 459.444 425.477 450.258 413.95 448.528C398.305 446.18 387.498 450.525 366.686 457.473C345.874 464.42 333.073 467.981 333.073 478.856C333.073 489.73 359.677 501.908 379.863 478.856Z" fill="#274A68"/>
<path fill-rule="evenodd" clip-rule="evenodd" d="M423.689 456.063C423.947 458.416 422.831 460.609 420.9 461.503C411.149 466.016 395.033 461.503 379.864 478.827C359.678 501.879 333.073 489.701 333.073 478.827C333.073 478.561 333.081 478.3 333.096 478.044C333.962 488.769 360.016 500.164 379.864 477.497C395.033 460.173 411.149 464.687 420.9 460.173C422.434 459.463 423.454 457.933 423.679 456.154L423.689 456.063Z" fill="black" fill-opacity="0.08"/>
<path fill-rule="evenodd" clip-rule="evenodd" d="M362.371 463.159C359.232 447.427 381.137 441.687 389.522 452.191C393.715 457.444 389.316 459.909 380.612 463.118C371.907 466.326 362.778 466.47 362.371 463.159Z" fill="#274A68"/>
<path fill-rule="evenodd" clip-rule="evenodd" d="M362.107 460.076C362.154 460.436 362.214 460.801 362.288 461.172C362.694 464.482 371.824 464.338 380.528 461.13C385.613 459.256 389.229 457.635 390.521 455.564C392.606 459.727 388.27 461.992 380.528 464.845C371.824 468.053 362.694 468.198 362.288 464.887C361.974 463.314 361.91 461.841 362.059 460.474L362.107 460.076Z" fill="black" fill-opacity="0.08"/>
</g>
<g clip-path="url(#clip4)">
<path fill-rule="evenodd" clip-rule="evenodd" d="M410.989 523.545C411.271 526.779 411.954 550.613 412.362 566.179C417.842 560.994 425.138 554.139 434.366 545.284L436.407 539.255L439.039 534.176L442.795 529.746C443.103 529.402 443.296 529.573 443.281 529.647C442.96 531.181 442.391 532.305 441.262 533.629C441.404 535.402 440.293 536.564 441.932 536.463C442.047 536.456 445.823 536.148 446.541 537.842C447.019 538.972 445.851 540.989 444.991 542.145L439.363 548.612C439.346 548.64 439.329 548.668 439.312 548.696C439.19 548.892 439.049 549.068 438.893 549.225L438.276 550.253C425.884 570.9 416.66 586.014 409.851 589.187C408.457 589.836 407.128 590.1 405.906 590.064C403.568 590.147 401.224 588.988 399.973 587.301C394.854 580.4 392.404 534.774 391.499 524.395C391.499 524.395 404.002 524.158 410.989 523.545Z" fill="#F0A19E"/>
<path fill-rule="evenodd" clip-rule="evenodd" d="M363.141 507.614C335.32 507.226 330.847 527.957 330.847 556.618C330.847 560.713 330.256 577.272 329.074 606.296C329.029 607.407 328.909 610.314 328.715 615.017V615.017C328.459 621.226 333.284 626.468 339.494 626.724C339.756 626.735 340.019 626.737 340.281 626.729C382.572 625.515 404.44 620.937 405.884 612.996C406.753 608.215 406.33 620.344 404.43 544.161C409.609 530.215 411.813 522.319 411.041 520.47C407.312 511.536 389.747 508.642 382.852 507.614C381.093 508.893 378.302 511.892 376.497 511.892C375.769 511.641 364.418 508.332 363.141 507.614Z" fill="#B5C7FC"/>
<path fill-rule="evenodd" clip-rule="evenodd" d="M348.512 644.102L328.76 610.033L329.207 600.261L360.39 656.852L348.512 644.102Z" fill="#8C8C8C"/>
<path fill-rule="evenodd" clip-rule="evenodd" d="M463.544 525.485L462.468 526.913C462.198 527.271 461.689 527.342 461.33 527.071L461.318 527.063C460.96 526.793 460.893 526.287 461.163 525.929L461.363 525.664L460.541 525.044L459.192 527.389L453.66 529.2L453.097 529.959L452.749 530.433L448.458 536.242L448.107 536.722L444.624 541.434L444.276 541.909L440.793 546.621L440.44 547.101L437.111 551.609L436.763 552.084L433.806 556.087L433.453 556.566L430.448 560.621L430.105 561.101L427.542 564.567L427.19 565.048L424.425 568.78L424.077 569.254L421.621 572.577L421.273 573.052L419.042 576.079L418.687 576.55L416.7 579.249L416.341 579.725L414.35 582.421L414.001 582.896L412.158 585.392L411.811 585.867L409.966 588.353L409.618 588.827L408.128 590.845L407.26 592.022L400.305 586.781L400.838 586.088L401.192 585.618L402.72 583.629L403.08 583.164L404.968 580.71L405.328 580.245L407.214 577.781L407.575 577.316L409.616 574.658L409.981 574.186L412.028 571.533L412.383 571.062L414.677 568.082L415.038 567.616L417.556 564.34L417.91 563.87L420.742 560.189L421.107 559.718L423.732 556.298L424.092 555.832L427.167 551.829L427.532 551.359L430.564 547.412L430.924 546.947L434.34 542.504L434.698 542.029L438.268 537.382L438.628 536.916L442.198 532.27L442.562 531.799L446.964 526.074L447.324 525.608L447.899 524.859L448.12 519.046L449.996 517.098L449.18 516.483L448.98 516.749C448.71 517.107 448.201 517.178 447.842 516.908L447.83 516.899C447.471 516.628 447.405 516.123 447.675 515.765L448.751 514.337C449.017 513.984 449.52 513.909 449.879 514.18L449.891 514.189C450.25 514.459 450.322 514.967 450.056 515.32L449.874 515.562L450.807 516.265L453.596 513.374L452.613 512.634L452.413 512.899C452.143 513.258 451.633 513.33 451.275 513.06L451.262 513.05C450.91 512.785 450.839 512.275 451.109 511.917L452.185 510.488C452.45 510.136 452.959 510.065 453.312 510.33L453.325 510.34C453.683 510.61 453.755 511.119 453.489 511.471L453.307 511.713L454.401 512.538L457.186 509.653L456.011 508.768L455.811 509.034C455.545 509.386 455.042 509.464 454.683 509.193L454.67 509.184C454.312 508.914 454.241 508.404 454.506 508.051L455.582 506.624C455.852 506.265 456.362 506.193 456.72 506.463L456.733 506.473C457.092 506.743 457.156 507.248 456.886 507.607L456.71 507.841L458.001 508.814L461.105 505.502L468.562 511.122L466.304 515.071L467.589 516.039L467.766 515.805C468.036 515.447 468.545 515.374 468.903 515.644L468.916 515.653C469.274 515.924 469.34 516.429 469.069 516.788L467.994 518.214C467.728 518.567 467.224 518.644 466.866 518.374L466.853 518.364C466.495 518.094 466.425 517.585 466.69 517.232L466.891 516.966L465.716 516.081L463.71 519.552L464.805 520.378L464.988 520.136C465.253 519.784 465.761 519.712 466.12 519.982L466.132 519.991C466.491 520.261 466.563 520.77 466.297 521.123L465.221 522.551C464.951 522.909 464.441 522.982 464.082 522.711L464.07 522.702C463.712 522.432 463.641 521.923 463.912 521.564L464.112 521.298L463.134 520.562L461.124 524.039L462.057 524.742L462.239 524.501C462.505 524.148 463.009 524.074 463.367 524.344L463.379 524.353C463.737 524.623 463.81 525.132 463.544 525.485Z" fill="#063648"/>
<path fill-rule="evenodd" clip-rule="evenodd" d="M413.161 617.294C416.044 609.289 427.527 608.232 427.747 602.135C428.016 594.705 420.032 599.351 416.488 592.318C412.476 584.358 417.62 578.764 413.936 575.989L413.937 575.988C413.927 575.981 413.917 575.973 413.908 575.966C413.898 575.959 413.887 575.951 413.878 575.943L413.877 575.945C403.463 568.09 391.369 565.394 384.725 571.752C377.128 579.021 381.286 583.098 374.387 588.075C367.486 593.051 344.483 592.563 338.72 614.86C333.493 635.086 356.072 651.414 356.709 651.871C357.324 652.357 379.243 669.561 397.245 658.961C417.088 647.276 410.279 625.298 413.161 617.294Z" fill="#063648"/>
<path fill-rule="evenodd" clip-rule="evenodd" d="M397.258 614.777C393.913 619.215 387.605 620.101 383.167 616.757C378.729 613.413 377.842 607.104 381.187 602.666C384.531 598.228 390.84 597.341 395.278 600.685C399.716 604.03 400.602 610.339 397.258 614.777Z" fill="#063648"/>
<path fill-rule="evenodd" clip-rule="evenodd" d="M397.258 614.777C393.913 619.215 387.605 620.101 383.167 616.757C378.729 613.413 377.842 607.104 381.187 602.666C384.531 598.228 390.84 597.341 395.278 600.685C399.716 604.03 400.602 610.339 397.258 614.777Z" stroke="#FFFFFE" stroke-width="1.87544"/>
<path fill-rule="evenodd" clip-rule="evenodd" d="M371.13 621.683L381.751 629.687L383.325 627.597L372.704 619.594L371.13 621.683Z" fill="#FFFFFE"/>
<path fill-rule="evenodd" clip-rule="evenodd" d="M380.169 626.778L457.667 521.593L457.932 521.788L380.434 626.976L380.169 626.778Z" fill="#FFFFFE"/>
<path fill-rule="evenodd" clip-rule="evenodd" d="M378.875 625.877C437.151 547.319 447.822 532.885 459.619 517.229L459.897 517.407L459.882 517.427C448.085 533.082 437.414 547.516 379.14 626.075L378.875 625.877Z" fill="#FFFFFE"/>
<path fill-rule="evenodd" clip-rule="evenodd" d="M377.456 624.808L377.72 625.007L462.678 512.265L462.414 512.065L377.456 624.808Z" fill="#FFFFFE"/>
<path fill-rule="evenodd" clip-rule="evenodd" d="M376.408 624.019L376.145 623.818C426.064 558.676 444.267 534.539 461.615 511.517L461.641 511.483L461.905 511.683L461.879 511.716C444.531 534.739 426.327 558.877 376.408 624.019Z" fill="#FFFFFE"/>
<path fill-rule="evenodd" clip-rule="evenodd" d="M375.173 623.089L374.913 622.888C421.831 562.6 438.617 540.598 457.418 515.649L457.463 515.588L457.728 515.787L457.682 515.848C438.88 540.799 422.094 562.801 375.173 623.089Z" fill="#FFFFFE"/>
<path fill-rule="evenodd" clip-rule="evenodd" d="M373.866 622.106L373.607 621.901C374.055 621.342 434.264 544.747 453.87 518.729L454.134 518.928C434.526 544.949 374.31 621.546 373.866 622.106Z" fill="#FFFFFE"/>
<path fill-rule="evenodd" clip-rule="evenodd" d="M454.105 519.543C453.888 519.831 453.478 519.888 453.191 519.672C452.902 519.454 452.845 519.044 453.061 518.757C453.278 518.469 453.688 518.411 453.977 518.628C454.264 518.845 454.322 519.255 454.105 519.543Z" fill="#FFFFFE"/>
<path fill-rule="evenodd" clip-rule="evenodd" d="M458.074 515.871C457.857 516.159 457.448 516.217 457.159 515.999C456.872 515.783 456.814 515.373 457.031 515.085C457.248 514.797 457.658 514.74 457.945 514.956C458.234 515.174 458.291 515.583 458.074 515.871Z" fill="#FFFFFE"/>
<path fill-rule="evenodd" clip-rule="evenodd" d="M460.357 517.769C460.14 518.057 459.73 518.114 459.443 517.897C459.154 517.68 459.097 517.271 459.314 516.983C459.531 516.695 459.94 516.637 460.229 516.855C460.516 517.071 460.574 517.481 460.357 517.769Z" fill="#FFFFFE"/>
<path fill-rule="evenodd" clip-rule="evenodd" d="M458.015 522.49C457.798 522.778 457.389 522.837 457.1 522.619C456.813 522.402 456.755 521.992 456.972 521.705C457.189 521.416 457.599 521.359 457.887 521.575C458.176 521.793 458.232 522.202 458.015 522.49Z" fill="#FFFFFE"/>
<path fill-rule="evenodd" clip-rule="evenodd" d="M461.989 512.302C461.772 512.59 461.362 512.647 461.075 512.43C460.787 512.213 460.729 511.804 460.946 511.516C461.164 511.228 461.573 511.17 461.861 511.387C462.148 511.604 462.206 512.014 461.989 512.302Z" fill="#FFFFFE"/>
<path fill-rule="evenodd" clip-rule="evenodd" d="M462.933 513.013C462.716 513.301 462.305 513.357 462.018 513.141C461.73 512.924 461.673 512.515 461.89 512.227C462.107 511.938 462.516 511.881 462.804 512.098C463.091 512.315 463.15 512.725 462.933 513.013Z" fill="#FFFFFE"/>
<path fill-rule="evenodd" clip-rule="evenodd" d="M446.044 539.796C445.937 539.398 445.548 537.428 445.484 537.188C445.123 535.805 444.996 535.61 444.587 534.686C444.461 534.403 444.43 533.996 444.494 533.466C444.503 533.39 444.526 533.319 444.561 533.263C444.658 533.109 444.815 533.101 444.912 533.247C445.13 533.574 445.354 533.938 445.584 534.344C445.921 534.934 446.714 536.883 447.22 538.62C447.564 539.798 446.243 540.528 446.044 539.796Z" fill="#F0A19E"/>
<path fill-rule="evenodd" clip-rule="evenodd" d="M445.255 531.313C445.439 531.354 446.734 533.018 447.329 534.033C448.322 535.725 448.373 536.135 448.545 537.057C448.759 538.207 447.524 539.45 447.276 537.494C447.029 535.537 446.002 534.586 445.234 532.998C445.128 532.779 445.055 532.331 445.014 531.654C445.012 531.618 445.07 531.272 445.255 531.313ZM446.306 530.541C446.948 530.858 447.736 531.472 448.666 532.386C448.885 532.6 449.721 533.468 449.951 533.845C450.782 535.205 449.938 536.323 448.645 534.379C448.445 534.077 447.958 533.514 447.738 533.249C447.08 532.458 445.917 531.675 445.823 531.147C445.809 531.07 445.805 530.994 445.811 530.922C445.836 530.589 446.057 530.418 446.306 530.541ZM448.896 530.33C449.249 530.36 450.996 530.81 451.902 531.611C452.891 532.485 451.175 532.485 450.378 532.034C449.58 531.583 449.807 531.72 449.225 531.408C448.065 530.782 448.155 530.266 448.896 530.33Z" fill="#F0A19E"/>
<path fill-rule="evenodd" clip-rule="evenodd" d="M358.39 528.68L335.638 575.328C340.349 580.081 348.516 588.684 366.815 600.309L372.891 601.159L378.22 601.506L383.233 604.453C383.625 604.698 383.489 604.916 383.413 604.913C381.843 604.855 380.638 604.483 379.139 603.596C377.413 604.031 376.078 603.135 376.457 604.727C376.5 604.914 379.184 606.131 382.032 606.69C382.437 606.77 384.378 607.293 384.623 607.343C386.025 607.632 386.256 607.605 387.268 607.648C387.578 607.661 387.957 607.813 388.405 608.104C388.47 608.145 388.523 608.198 388.558 608.254C388.654 608.408 388.59 608.552 388.417 608.574C388.027 608.624 387.6 608.662 387.134 608.69C386.455 608.728 384.353 608.574 382.568 608.259C381.358 608.045 379.857 607.793 379.677 607.816C379.399 607.851 381.779 608.461 383.647 609.105C385.515 609.75 386.824 609.252 388.59 609.27C388.833 609.272 389.268 609.405 389.894 609.667C389.928 609.681 390.213 609.886 390.095 610.032C389.977 610.18 387.907 610.599 386.732 610.682C384.774 610.82 384.382 610.685 383.477 610.43C382.35 610.113 380.328 609.625 379.77 609.516C379.213 609.406 382.193 610.668 384.482 611.142C384.838 611.215 385.581 611.273 385.924 611.306C386.95 611.406 388.328 611.147 388.768 611.456C388.833 611.501 388.889 611.552 388.936 611.606C389.152 611.859 389.115 612.135 388.853 612.223C388.172 612.448 387.179 612.564 385.874 612.568C385.567 612.569 384.359 612.54 383.93 612.433C382.113 611.986 379.926 611.066 379.709 611.102C379.491 611.14 380.81 611.545 382.393 612.134C382.754 612.268 384.253 612.672 384.531 612.767C384.898 612.893 385.165 612.925 385.807 613.08C387.091 613.391 387.135 613.911 386.403 614.036C385.669 614.161 379.993 612.948 377.538 612.101C376.194 611.637 373.469 610.948 370.253 609.321L364.006 605.694L363.049 605.348C331.639 593.964 316.968 585.566 317.088 578.703C317.123 576.697 317.517 575.103 318.164 573.856C322.113 560.403 336.908 528.34 340.902 520.151L358.39 528.68Z" fill="#F0A19E"/>
<path fill-rule="evenodd" clip-rule="evenodd" d="M328.281 538.684L354.484 548.743C358.898 536.634 361 528.392 360.79 524.019C360.475 517.459 348.018 512.677 341.753 515.468C337.576 517.328 333.085 525.067 328.281 538.684Z" fill="#B5C7FC"/>
<path fill-rule="evenodd" clip-rule="evenodd" d="M385.937 546.051H414.004C413.786 533.164 412.795 524.717 411.032 520.709C408.387 514.698 395.044 514.698 390.195 519.548C386.962 522.782 385.543 531.616 385.937 546.051Z" fill="#B5C7FC"/>
<path fill-rule="evenodd" clip-rule="evenodd" d="M346.948 645.657L350.274 641.958L363.868 653.478L360.39 656.852L346.948 645.657Z" fill="#595959"/>
<path fill-rule="evenodd" clip-rule="evenodd" d="M383.093 507.609L390.711 508.997L447.898 524.859L444.247 529.611L383.093 507.609Z" fill="#8C8C8C"/>
<path fill-rule="evenodd" clip-rule="evenodd" d="M363.868 582.5L376.144 548.743L383.325 556.807L391.499 528.082L381.644 547.926L374.911 540.276L363.868 582.5Z" fill="white"/>
<path d="M333.717 546.137C335.185 545.758 336.114 546.631 336.473 548.63L336.495 548.758L336.671 548.679C338.925 547.678 340.265 547.728 340.575 548.962C340.737 549.605 340.31 550.303 339.3 551.078L340.219 551.344L341.526 550.694C341.642 550.636 341.783 550.684 341.841 550.799C341.889 550.896 341.864 551.01 341.787 551.079L341.735 551.114L340.884 551.537L341.598 551.745L342.783 551.156C342.899 551.098 343.04 551.145 343.098 551.261C343.146 551.358 343.121 551.471 343.045 551.54L342.992 551.575L342.262 551.938L343.179 552.204C343.303 552.24 343.375 552.37 343.339 552.495C343.308 552.601 343.208 552.669 343.102 552.663L343.048 552.654L342.134 552.389L342.711 553.375C342.765 553.468 342.748 553.583 342.676 553.657L342.627 553.695C342.533 553.75 342.418 553.733 342.345 553.661L342.306 553.611L341.481 552.199L340.945 552.044L341.454 552.913C341.508 553.006 341.491 553.122 341.419 553.195L341.37 553.234C341.276 553.288 341.161 553.271 341.087 553.199L341.049 553.15L340.291 551.853L338.826 551.428L338.817 551.424C337.815 552.099 336.394 552.832 334.556 553.632L334.34 553.726L334.122 553.214C333.545 551.846 333.133 550.673 332.89 549.697L330.168 549.009L330.69 549.902C330.744 549.996 330.727 550.111 330.655 550.184L330.606 550.223C330.512 550.278 330.397 550.26 330.324 550.189L330.285 550.139L329.281 548.421L330.762 547.683C330.878 547.626 331.019 547.673 331.077 547.789C331.125 547.885 331.1 547.999 331.024 548.068L330.971 548.103L330.137 548.518L332.775 549.184C332.435 547.478 332.7 546.47 333.611 546.169L333.717 546.137ZM336.046 548.918C335.757 547.011 335.03 546.282 333.835 546.591C333.116 546.777 332.916 547.68 333.281 549.311L335.189 549.793C335.314 549.825 335.39 549.953 335.359 550.078C335.332 550.186 335.234 550.257 335.128 550.255L335.074 550.248L333.408 549.827C333.628 550.643 333.968 551.613 334.431 552.738L334.586 553.106L335.311 552.781C338.64 551.246 340.241 550 340.134 549.151L340.12 549.077C339.897 548.189 338.706 548.214 336.41 549.316L336.118 549.457L336.046 548.918Z" fill="#4E4E4E"/>
</g>
<g clip-path="url(#clip5)">
<path fill-rule="evenodd" clip-rule="evenodd" d="M450.775 533.845L481.574 564.752L480.116 566.205L463.54 549.57L463.098 791.095L465.806 791.1L465.796 796.586L486.089 796.621L486.075 804.393L437.767 804.309L437.781 796.537L458.324 796.573L458.333 791.087L461.041 791.092L461.486 547.508L412.426 499.272L413.884 497.82L447.986 531.046L450.775 533.845Z" fill="#737373"/>
<path fill-rule="evenodd" clip-rule="evenodd" d="M410.407 487.329L407.11 491.967L429.868 510.425L432.911 506.783L410.407 487.329Z" fill="#535353"/>
<path d="M409.47 493.633C406.34 495.44 402.338 494.368 400.53 491.238C398.723 488.107 399.796 484.105 402.926 482.298C406.056 480.491 410.058 481.563 411.866 484.693C413.673 487.823 412.6 491.826 409.47 493.633Z" fill="#D8D8D8"/>
<path d="M409.492 481.855C409.7 484.243 409.133 486.548 407.779 488.791C406.541 490.84 404.555 491.982 401.742 492.23L401.314 492.26L401.397 493.776C404.915 493.584 407.505 492.18 409.078 489.576C410.501 487.22 411.157 484.766 411.038 482.231L411.004 481.723L409.492 481.855Z" fill="#484848"/>
<path fill-rule="evenodd" clip-rule="evenodd" d="M420.707 495.862C419.627 498.988 418.363 501.531 417.642 501.62C416.876 501.714 416.612 500.935 417.102 500.209L417.191 500.088L416.248 499.332C415.054 500.822 415.699 503.076 417.789 502.82C418.682 502.71 420.036 500.522 421.85 496.257L420.707 495.862Z" fill="#737373"/>
<path d="M430.887 508.542L430.535 508.852C432.139 510.672 433.417 512.531 434.372 514.427L434.826 515.353C436.036 517.708 438.203 520.389 445.778 529.149L449.738 533.725C455.641 540.583 458.812 544.605 460.511 547.637C464.662 555.05 464.854 567.58 461.961 574.406C460.519 577.809 457.959 637.289 457.488 687C457.052 733.001 458.145 768.625 461.011 788.876C461.03 789.009 461.057 789.205 461.094 789.462L461.134 786.313C461.105 786.082 461.084 785.908 461.069 785.79C458.523 765.167 457.543 730.726 457.957 687.004L458.023 681.014C458.629 632.776 461.046 577.768 462.393 574.589C465.34 567.635 465.146 554.953 460.92 547.408C459.267 544.459 456.268 540.62 450.78 534.219L443.266 525.516C437.862 519.213 436.165 516.995 435.155 514.966L435.027 514.702C434.109 512.761 432.862 510.862 431.288 509.005L430.887 508.542Z" fill="black"/>
</g>
<defs>
<clipPath id="clip0">
<rect width="937.722" height="825.196" fill="white" transform="translate(34.6957 51.4021)"/>
</clipPath>
<clipPath id="clip1">
<rect width="1051" height="928" fill="white" transform="translate(3)"/>
</clipPath>
<clipPath id="clip2">
<rect width="235.368" height="234.431" fill="white" transform="matrix(-1 0 0 1 790.266 571.838)"/>
</clipPath>
<clipPath id="clip3">
<rect width="112.527" height="140.658" fill="white" transform="translate(312.73 437.275)"/>
</clipPath>
<clipPath id="clip4">
<rect width="191.295" height="166.915" fill="white" transform="translate(314.606 500.102)"/>
</clipPath>
<clipPath id="clip5">
<rect width="135.032" height="390.093" fill="white" transform="matrix(-1 0 0 1 528.875 414.301)"/>
</clipPath>
</defs>
</svg>
