<svg width="23" height="23" viewBox="0 0 23 23" fill="none" xmlns="http://www.w3.org/2000/svg">
<path d="M9.26981 14.4105C8.79519 14.4105 8.41044 14.0257 8.41044 13.5511C8.41044 13.0765 8.79519 12.6918 9.26981 12.6918C9.74443 12.6918 10.1292 13.0765 10.1292 13.5511C10.1292 14.0257 9.74443 14.4105 9.26981 14.4105Z" fill="#DADADA"/>
<path d="M9.26981 10.6721C8.79519 10.6721 8.41044 10.2873 8.41044 9.81273C8.41044 9.33811 8.79519 8.95336 9.26981 8.95336C9.74443 8.95336 10.1292 9.33811 10.1292 9.81273C10.1292 10.2873 9.74443 10.6721 9.26981 10.6721Z" fill="#DADADA"/>
<path d="M13.0083 14.4105C12.5337 14.4105 12.149 14.0257 12.149 13.5511C12.149 13.0765 12.5337 12.6918 13.0083 12.6918C13.483 12.6918 13.8677 13.0765 13.8677 13.5511C13.8677 14.0257 13.483 14.4105 13.0083 14.4105Z" fill="#DADADA"/>
<path d="M13.0083 10.6721C12.5337 10.6721 12.149 10.2873 12.149 9.81273C12.149 9.33811 12.5337 8.95336 13.0083 8.95336C13.483 8.95336 13.8677 9.33811 13.8677 9.81273C13.8677 10.2873 13.483 10.6721 13.0083 10.6721Z" fill="#DADADA"/>
<path d="M13.0083 18.1487C12.5337 18.1487 12.149 17.7639 12.149 17.2893C12.149 16.8147 12.5337 16.4299 13.0083 16.4299C13.483 16.4299 13.8677 16.8147 13.8677 17.2893C13.8677 17.7639 13.483 18.1487 13.0083 18.1487Z" fill="#DADADA"/>
<path d="M5.53177 10.6721C5.05716 10.6721 4.6724 10.2873 4.6724 9.81273C4.6724 9.33811 5.05716 8.95336 5.53177 8.95336C6.00639 8.95336 6.39114 9.33811 6.39114 9.81273C6.39114 10.2873 6.00639 10.6721 5.53177 10.6721Z" fill="#DADADA"/>
<path d="M16.7466 10.6721C16.272 10.6721 15.8872 10.2873 15.8872 9.81273C15.8872 9.33811 16.272 8.95336 16.7466 8.95336C17.2212 8.95336 17.606 9.33811 17.606 9.81273C17.606 10.2873 17.2212 10.6721 16.7466 10.6721Z" fill="#DADADA"/>
<path d="M3.9849 13.4221C6.11726 13.4221 7.85207 15.157 7.85207 17.2893C7.85207 18.0115 7.65287 18.688 7.30684 19.267L9.36211 21.3223C9.6977 21.6579 9.6977 22.202 9.36211 22.5376C9.19428 22.7054 8.97432 22.7893 8.75441 22.7893C8.53449 22.7893 8.31454 22.7054 8.14675 22.5376L6.12069 20.5116C5.50826 20.9188 4.77389 21.1565 3.9849 21.1565C1.85254 21.1565 0.117732 19.4217 0.117732 17.2893C0.117732 15.157 1.85254 13.4221 3.9849 13.4221ZM3.9849 19.4378C5.16954 19.4378 6.13333 18.474 6.13333 17.2893C6.13333 16.1047 5.16954 15.1409 3.9849 15.1409C2.80026 15.1409 1.83647 16.1047 1.83647 17.2893C1.83647 18.474 2.80026 19.4378 3.9849 19.4378Z" fill="#DADADA"/>
<path d="M16.7466 18.1487C16.272 18.1487 15.8872 17.7639 15.8872 17.2893C15.8872 16.8147 16.272 16.4299 16.7466 16.4299C17.2212 16.4299 17.606 16.8147 17.606 17.2893C17.606 17.7639 17.2212 18.1487 16.7466 18.1487Z" fill="#DADADA"/>
<path d="M3.55531 2.50807H4.67249V1.64869C4.67249 1.17406 5.05723 0.789322 5.53186 0.789322C6.00649 0.789322 6.39123 1.17406 6.39123 1.64869V2.50807H10.3014V1.64869C10.3014 1.17406 10.6861 0.789322 11.1607 0.789322C11.6354 0.789322 12.0201 1.17406 12.0201 1.64869V2.50807H15.8873V1.64869C15.8873 1.17406 16.272 0.789322 16.7466 0.789322C17.2213 0.789322 17.606 1.17406 17.606 1.64869V2.50807H18.6802C20.5757 2.50807 22.1177 4.05013 22.1177 5.94556V19.3518C22.1177 21.2472 20.5757 22.7893 18.6802 22.7893H13.0513C12.5767 22.7893 12.192 22.4045 12.192 21.9299C12.192 21.4553 12.5767 21.0705 13.0513 21.0705H18.6802C19.6279 21.0705 20.399 20.2995 20.399 19.3518V5.94556C20.399 4.99784 19.6279 4.22681 18.6802 4.22681H17.606V5.08619C17.606 5.56082 17.2213 5.94556 16.7466 5.94556C16.272 5.94556 15.8873 5.56082 15.8873 5.08619V4.22681H12.0201V5.08619C12.0201 5.56082 11.6354 5.94556 11.1607 5.94556C10.6861 5.94556 10.3014 5.56082 10.3014 5.08619V4.22681H6.39123V5.08619C6.39123 5.56082 6.00649 5.94556 5.53186 5.94556C5.05723 5.94556 4.67249 5.56082 4.67249 5.08619V4.22681H3.55531C2.60759 4.22681 1.83657 4.99784 1.83657 5.94556V11.1018C1.83657 11.5764 1.45183 11.9612 0.977198 11.9612C0.502567 11.9612 0.117826 11.5764 0.117826 11.1018V5.94556C0.117826 4.05013 1.65988 2.50807 3.55531 2.50807Z" fill="#DADADA"/>
<path d="M16.7466 14.4105C16.272 14.4105 15.8872 14.0257 15.8872 13.5511C15.8872 13.0765 16.272 12.6918 16.7466 12.6918C17.2212 12.6918 17.606 13.0765 17.606 13.5511C17.606 14.0257 17.2212 14.4105 16.7466 14.4105Z" fill="#DADADA"/>
</svg>
