<svg width="8" height="8" viewBox="0 0 8 8" fill="none" xmlns="http://www.w3.org/2000/svg">
<path d="M6.83333 1.83333H5.83333C5.76166 1.83333 5.698 1.78766 5.67533 1.71933L5.57 1.40333C5.45633 1.06233 5.13867 0.833328 4.77933 0.833328H3.22066C2.86133 0.833328 2.54366 1.06233 2.43033 1.403L2.325 1.71933C2.302 1.78766 2.23833 1.83333 2.16667 1.83333H1.16667C0.523328 1.83333 0 2.35667 0 3V6C0 6.64333 0.523328 7.16667 1.16667 7.16667H6.83334C7.47667 7.16667 8 6.64333 8 6V3C8 2.35667 7.47667 1.83333 6.83333 1.83333ZM7.66667 6C7.66667 6.45933 7.29267 6.83333 6.83334 6.83333H1.16667C0.707344 6.83333 0.333344 6.45933 0.333344 6V3C0.333344 2.54067 0.707344 2.16667 1.16667 2.16667H2.16667C2.382 2.16667 2.57267 2.02934 2.641 1.825L2.74667 1.50833C2.81467 1.304 3.00534 1.16666 3.22067 1.16666H4.77934C4.99467 1.16666 5.18534 1.30398 5.25367 1.50866L5.359 1.82498C5.42733 2.02931 5.618 2.16666 5.83333 2.16666H6.83333C7.29266 2.16666 7.66666 2.54066 7.66666 2.99998V6H7.66667Z" fill="black"/>
<path d="M4 2.5C2.897 2.5 2 3.397 2 4.5C2 5.603 2.897 6.5 4 6.5C5.103 6.5 6 5.603 6 4.5C6 3.397 5.103 2.5 4 2.5ZM4 6.16667C3.081 6.16667 2.33333 5.419 2.33333 4.5C2.33333 3.581 3.081 2.83333 4 2.83333C4.919 2.83333 5.66667 3.581 5.66667 4.5C5.66667 5.419 4.919 6.16667 4 6.16667Z" fill="black"/>
</svg>
