<svg width="30" height="30" viewBox="0 0 30 30" fill="none" xmlns="http://www.w3.org/2000/svg">
<path fill-rule="evenodd" clip-rule="evenodd" d="M23.5371 3.583C20.758 1.40251 17.2796 0.310735 13.7537 0.51219C10.2277 0.713644 6.89628 2.19449 4.38336 4.67723C1.87045 7.15997 0.348461 10.4743 0.102548 13.9993C-0.143366 17.5243 0.903675 21.0181 3.04759 23.8262C5.1915 26.6343 8.28515 28.5639 11.7489 29.2536C15.107 29.9221 19.334 29.1071 22.3508 27.4742L27.7045 29.2993C28.01 29.4035 28.3482 29.3263 28.5782 29.0998C28.8082 28.8734 28.8908 28.5365 28.7915 28.2293L27.036 22.7973C28.7048 19.8005 29.4748 15.7155 28.8509 12.3571C28.2055 8.88303 26.3163 5.76349 23.5371 3.583ZM25.3822 22.2499C26.982 19.5614 27.7396 15.717 27.1733 12.6687C26.6038 9.60293 24.9367 6.8502 22.4844 4.92615C20.032 3.00209 16.9627 2.03869 13.8513 2.21645C10.74 2.39422 7.80008 3.70098 5.58246 5.89197C3.36484 8.08296 2.02171 11.0078 1.8047 14.1185C1.58769 17.2292 2.51168 20.3123 4.40349 22.7902C6.29529 25.2681 9.02513 26.9708 12.0816 27.5794C15.1145 28.1832 19.1196 27.3826 21.8374 25.8053L21.8374 25.8053C22.0433 25.686 22.2977 25.653 22.5407 25.7358L26.6445 27.1348L25.2958 22.9615C25.2156 22.7135 25.255 22.4555 25.3822 22.2499Z" fill="#262D33"/>
</svg>
