<svg width="16" height="16" viewBox="0 0 16 16" fill="none" xmlns="http://www.w3.org/2000/svg">
<g clip-path="url(#clip0)">
<path d="M14.7674 10.0511C14.5473 10.0511 14.3689 10.2295 14.3689 10.4496V13.9877C14.3681 14.6477 13.8334 15.1825 13.1734 15.1831H1.99241C1.33243 15.1825 0.797744 14.6477 0.796966 13.9877V3.60361C0.797744 2.94377 1.33243 2.40893 1.99241 2.40816H5.53051C5.75061 2.40816 5.92899 2.22977 5.92899 2.00967C5.92899 1.78973 5.75061 1.61119 5.53051 1.61119H1.99241C0.892539 1.61244 0.00124526 2.50373 0 3.60361V13.9878C0.00124526 15.0877 0.892539 15.979 1.99241 15.9802H13.1734C14.2733 15.979 15.1646 15.0877 15.1659 13.9878V10.4496C15.1659 10.2295 14.9875 10.0511 14.7674 10.0511Z" fill="#262D33"/>
<path d="M15.0079 0.585881C14.3076 -0.114422 13.1722 -0.114422 12.4719 0.585881L5.36272 7.69506C5.314 7.74379 5.27882 7.80418 5.26046 7.87049L4.32558 11.2456C4.28713 11.384 4.3262 11.5322 4.42769 11.6338C4.52933 11.7353 4.67752 11.7744 4.8159 11.7361L8.19102 10.8011C8.25733 10.7827 8.31772 10.7475 8.36645 10.6988L15.4755 3.58945C16.1747 2.88868 16.1747 1.75424 15.4755 1.05348L15.0079 0.585881ZM6.23098 7.95408L12.0493 2.13561L13.9258 4.01206L8.10728 9.83053L6.23098 7.95408ZM5.85616 8.70621L7.35529 10.2055L5.28162 10.78L5.85616 8.70621ZM14.912 3.02597L14.4894 3.44858L12.6128 1.57197L13.0355 1.14936C13.4245 0.760373 14.0553 0.760373 14.4443 1.14936L14.912 1.61696C15.3004 2.00641 15.3004 2.63667 14.912 3.02597Z" fill="#262D33"/>
</g>
<defs>
<clipPath id="clip0">
<rect width="16" height="16" fill="white"/>
</clipPath>
</defs>
</svg>
