<svg width="20" height="14" viewBox="0 0 20 14" fill="none" xmlns="http://www.w3.org/2000/svg">
<path d="M18.2422 0H1.75781C0.788555 0 0 0.80568 0 1.79599V12.204C0 13.1943 0.788555 14 1.75781 14H18.2422C19.2114 14 20 13.1943 20 12.204V1.79599C20 0.80568 19.2114 0 18.2422 0ZM18.0128 1.19732L17.7782 1.39692L10.6974 7.4211C10.2933 7.76489 9.70664 7.76489 9.30258 7.4211L2.22184 1.39692L1.98723 1.19732H18.0128ZM1.17187 2.06171L6.94109 6.97007L1.17187 10.893V2.06171ZM18.2422 12.8027H1.75781C1.47469 12.8027 1.23789 12.5964 1.18363 12.3233L7.8807 7.76944L8.55273 8.3412C8.97203 8.69793 9.48605 8.87629 10 8.87629C10.514 8.87629 11.028 8.69793 11.4473 8.3412L12.1194 7.76944L18.8164 12.3233C18.7621 12.5965 18.5253 12.8027 18.2422 12.8027ZM18.8281 10.893L13.0589 6.97011L18.8281 2.06171V10.893Z" fill="#DADADA"/>
</svg>
