<svg width="16" height="11" viewBox="0 0 16 11" fill="none" xmlns="http://www.w3.org/2000/svg">
<path d="M0.5 2C0.5 1.17157 1.17157 0.5 2 0.5H14C14.8284 0.5 15.5 1.17157 15.5 2V9C15.5 9.82843 14.8284 10.5 14 10.5H2C1.17157 10.5 0.5 9.82843 0.5 9V2Z" stroke="#6A6A6A" stroke-linecap="round" stroke-linejoin="round"/>
<path d="M1 9.24263L5.24264 4.99998" stroke="#6A6A6A" stroke-linecap="round"/>
<path d="M14.9497 9.24263L10.707 4.99998" stroke="#6A6A6A" stroke-linecap="round" stroke-linejoin="round"/>
<path d="M8.25706 5.26256C8.09872 5.35756 7.9009 5.35756 7.74256 5.26256L1.35288 1.42875C0.918037 1.16784 1.10302 0.5 1.61013 0.5H14.3895C14.8966 0.5 15.0816 1.16784 14.6467 1.42875L8.25706 5.26256Z" stroke="#6A6A6A" stroke-linecap="round" stroke-linejoin="round"/>
</svg>
