<svg width="16" height="16" viewBox="0 0 16 16" fill="none" xmlns="http://www.w3.org/2000/svg">
<g clip-path="url(#clip0)">
<path d="M8.9762 11.1885C7.05256 11.1885 5.4884 9.76074 5.4884 8.00488C5.4884 6.24902 7.05256 4.82129 8.9762 4.82129C10.8998 4.82129 12.464 6.24902 12.464 8.00488C12.464 9.76074 10.8998 11.1885 8.9762 11.1885ZM8.9762 5.01563C7.17132 5.01563 5.70238 6.35645 5.70238 8.00391C5.70238 9.65137 7.17132 10.9922 8.9762 10.9922C10.7811 10.9922 12.25 9.65137 12.25 8.00391C12.25 6.35645 10.7822 5.01563 8.9762 5.01563Z" fill="#6384EB"/>
<path d="M8.97625 10.4561C6.52088 10.4092 5.34081 7.55469 7.2805 6.10254C9.15385 4.7002 12.0211 6.2295 11.6295 8.40235C11.4145 9.59082 10.2751 10.4307 8.97625 10.4561C7.94489 10.4756 7.94168 11.9404 8.97625 11.9209C10.7747 11.8867 12.3656 10.8936 13.0033 9.34864C13.6227 7.84766 13.1081 6.05176 11.7547 5.02539C10.3682 3.97461 8.3814 3.78321 6.81189 4.62305C5.25522 5.45606 4.44746 7.11426 4.76201 8.72754C5.12362 10.5811 6.95097 11.8818 8.97518 11.9199C10.0098 11.9404 10.0098 10.4756 8.97625 10.4561Z" fill="#6384EB"/>
<path d="M8.97631 4.28319C7.24525 4.31835 5.73459 5.27929 5.13331 6.76757C4.55772 8.19433 5.07875 9.88086 6.35511 10.8467C7.66571 11.8389 9.55297 12.0078 11.0326 11.2158C12.5315 10.4141 13.2858 8.81933 12.9712 7.27246C12.6171 5.53027 10.8743 4.32226 8.97631 4.28319C7.94281 4.26171 7.94388 5.72655 8.97631 5.74804C10.3244 5.77538 11.4477 6.75195 11.4477 8.0039C11.4477 9.23437 10.3233 10.2598 8.97631 10.2598C7.62934 10.2598 6.5049 9.23437 6.5049 8.0039C6.5049 6.75195 7.62827 5.77538 8.97631 5.74804C10.0077 5.72753 10.0109 4.26171 8.97631 4.28319Z" fill="#6384EB"/>
<path d="M15.0167 12.1699C13.6055 13.9326 11.3246 15.0811 8.75472 15.0811C4.4795 15.0811 1.00133 11.9063 1.00133 8.00391C1.00133 4.10156 4.4795 0.927734 8.75472 0.927734C11.301 0.927734 13.5649 2.05469 14.9793 3.79102L15.1462 3.66797C13.6922 1.8877 11.3684 0.732422 8.75472 0.732422C4.36181 0.732422 0.787354 3.99414 0.787354 8.00391C0.787354 12.0137 4.36181 15.2764 8.75472 15.2764C11.3941 15.2764 13.7361 14.0977 15.1868 12.2881L15.0167 12.1699Z" fill="#6384EB"/>
<path d="M14.3235 11.7997C12.8588 13.5907 10.4355 14.534 8.00906 14.3153C5.87144 14.1229 3.90608 12.9481 2.80304 11.2762C1.66576 9.55457 1.48602 7.3866 2.34727 5.53113C3.19247 3.71083 4.97489 2.33094 7.07184 1.84755C9.73156 1.23524 12.6266 2.16493 14.286 4.16004C14.622 4.56336 15.1088 4.62977 15.5463 4.30848C15.602 4.26747 15.6576 4.22645 15.7132 4.18543C15.9604 4.00379 16.0353 3.53407 15.8384 3.29774C13.9501 1.03114 10.9362 -0.286238 7.79508 0.0516519C5.04122 0.348526 2.55483 1.8036 1.16078 4.00379C-0.253599 6.23524 -0.368076 8.97546 0.777762 11.3202C1.88294 13.579 4.21848 15.3016 6.8675 15.8212C10.3211 16.4979 13.7853 15.2186 15.8801 12.6581C16.1615 12.3143 15.9037 11.8729 15.5923 11.6561C15.5356 11.6171 15.4789 11.577 15.4222 11.538C15.0745 11.2958 14.5267 11.4901 14.3235 11.7997C14.0774 12.1737 14.2689 12.5633 14.6113 12.8016C14.668 12.8407 14.7247 12.8807 14.7814 12.9198C14.6851 12.5858 14.5899 12.2518 14.4936 11.9178C12.9669 13.7841 10.3992 14.7792 7.86783 14.4979C5.70561 14.2577 3.73811 13.0721 2.61688 11.3739C1.44109 9.59168 1.25814 7.34168 2.16325 5.42664C3.03199 3.5868 4.82403 2.18348 6.94453 1.6747C9.70481 1.01259 12.7229 1.95985 14.4529 4.03602C14.4946 3.74012 14.5364 3.44422 14.5781 3.14833C14.5225 3.18934 14.4668 3.23036 14.4112 3.27137C14.8317 3.32118 15.251 3.37001 15.6715 3.41981C13.8388 1.21767 10.9159 -0.075301 7.86141 0.241105C5.17923 0.519425 2.76024 1.91786 1.38117 4.04676C-0.0385537 6.23816 -0.16052 8.9657 0.990667 11.2733C2.08301 13.4637 4.34687 15.1298 6.92741 15.6317C10.2954 16.288 13.6687 15.034 15.709 12.538C15.97 12.2186 15.7635 11.7225 15.4212 11.536C15.0146 11.3153 14.5813 11.4852 14.3235 11.7997Z" fill="#6384EB"/>
</g>
<defs>
<clipPath id="clip0">
<rect width="16" height="16" fill="white"/>
</clipPath>
</defs>
</svg>
