<svg width="27" height="27" viewBox="0 0 27 27" fill="none" xmlns="http://www.w3.org/2000/svg">
<path d="M23.625 0H3.375C1.51313 0 0 1.51313 0 3.375V23.625C0 25.4858 1.51313 27 3.375 27H23.625C25.4858 27 27 25.4858 27 23.625V3.375C27 1.51313 25.4858 0 23.625 0Z" fill="#3B5999"/>
<path d="M18.5625 13.5V10.125C18.5625 9.1935 19.3185 9.28125 20.25 9.28125H21.9375V5.0625H18.5625C15.7657 5.0625 13.5 7.32825 13.5 10.125V13.5H10.125V17.7188H13.5V27H18.5625V17.7188H21.0938L22.7812 13.5H18.5625Z" fill="white"/>
</svg>
