<?xml version="1.0" encoding="UTF-8"?>
<svg id="illustration-builder" width="600" height="528" viewBox="-10 -30 670 588" version="1.1" xmlns="http://www.w3.org/2000/svg" xmlns:xlink="http://www.w3.org/1999/xlink" style="pointer-events: none;"><g transform="translate(130,35.5)">
<g transform="translate(1.25,192)">

<g><svg xmlns="http://www.w3.org/2000/svg" width="285" height="250" viewBox="0 0 285 250"><g id="Symbols--globalStyle1/people/man3/bottom/8" fill="none" fill-rule="evenodd" stroke="none" stroke-width="1"><g id="globalStyle1/people/man3/bottom/8--globalStyle1/people/man3/bottom/8"><path id="[skin]leg---globalStyle1/people/man3/bottom/8" fill="#9a6059" d="M134.400942,18.7874184 C147.320942,18.7654531 157.813942,29.2204531 157.835977,42.1404531 C157.838786,43.7932247 157.670147,45.4062634 157.34683,46.9627344 L139.501915,140.416957 C139.45038,140.821849 139.373923,141.218989 139.27413,141.606783 L139.267044,141.640536 C139.199883,141.891364 139.124394,142.138887 139.039516,142.382015 L139.087318,142.397369 L91.5721857,245.079842 C88.0134763,243.210529 88.2242819,242.096022 87.8376425,242.170359 C87.8376425,242.170359 95.7269307,213.190697 120.500507,136.792447 L120.309207,137.378821 C120.363261,137.089999 120.430095,136.805668 120.509101,136.52644 L120.557468,136.365198 L111.010342,43.7673531 L111.102144,43.7714339 C111.067754,43.2594545 111.049832,42.7429528 111.048904,42.2224531 C111.025942,29.3024531 121.481942,18.8104531 134.400942,18.7874184 Z" transform="rotate(8 122.837 131.934)" opacity="1.00"></path><path id="[clothes]shoes--globalStyle1/people/man3/bottom/8" fill="#294b67" d="M178.009266,249.770897 L204.768266,249.770897 L204.768266,247.886897 C204.768266,247.886897 195.530266,247.871897 178.009266,247.886897 L178.009266,249.770897 Z" opacity="1.00"></path><path id="[skin]leg---globalStyle1/people/man3/bottom/8" fill="#9a6059" d="M186.923986,18.0403448 C199.172986,18.0193781 209.120986,27.9313781 209.142019,40.1803781 C209.143752,41.1924777 209.077669,42.1888609 208.948057,43.1652277 L209.005812,43.1647781 L193.115203,137.399908 C193.042398,138.447886 192.790205,139.446532 192.389087,140.365314 L154.146345,237.438636 L147.423141,239.923126 L148.363812,233.229904 C148.363812,233.229904 173.757895,144.185379 175.160113,136.055309 C175.158726,136.053894 175.159013,136.050242 175.159301,136.04659 L175.157262,136.046957 L164.975549,43.1647781 C164.852536,42.2135119 164.786641,41.2435031 164.784949,40.2583781 C164.762986,28.0093781 174.674986,18.0613781 186.923986,18.0403448 Z" transform="rotate(-16 178.283 128.982)" opacity="1.00"></path><path id="shadow--globalStyle1/people/man3/bottom/8" fill="#000" fill-opacity=".04" d="M186.923986,18.0403448 C199.172986,18.0193781 209.120986,27.9313781 209.142019,40.1803781 C209.143752,41.1924777 209.077669,42.1888609 208.948057,43.1652277 L209.005812,43.1647781 L193.115203,137.399908 C193.042398,138.447886 192.790205,139.446532 192.389087,140.365314 L154.146345,237.438636 L147.423141,239.923126 L148.363812,233.229904 C148.363812,233.229904 173.757895,144.185379 175.160113,136.055309 C175.158726,136.053894 175.159013,136.050242 175.159301,136.04659 L175.157262,136.046957 L164.975549,43.1647781 C164.852536,42.2135119 164.786641,41.2435031 164.784949,40.2583781 C164.762986,28.0093781 174.674986,18.0613781 186.923986,18.0403448 Z" transform="rotate(-16 178.283 128.982)"></path><path id="Fill-15--globalStyle1/people/man3/bottom/8" fill="#E9E9E9" d="M178.009266,222.493597 L178.009266,247.959597 L204.768266,247.941597 C204.690266,246.302597 204.532266,245.373597 201.348266,245.310597 C196.571266,245.218597 185.052266,245.737597 185.049266,241.177597 C185.048266,240.204597 186.929266,234.446597 189.422266,223.829597 L178.009266,222.493597 Z"></path><path id="shadow--globalStyle1/people/man3/bottom/8" fill="#000" fill-opacity=".02" d="M178.009266,222.493597 L178.009266,247.959597 L204.768266,247.941597 C204.690266,246.302597 204.532266,245.373597 201.348266,245.310597 C196.571266,245.218597 185.052266,245.737597 185.049266,241.177597 C185.048266,240.204597 186.929266,234.446597 189.422266,223.829597 L178.009266,222.493597 Z"></path><path id="shape--globalStyle1/people/man3/bottom/8" fill="#E9E9E9" d="M75.2327756,217.861252 L75.2327756,243.327252 L101.991776,243.309252 C101.913776,241.670252 101.755776,240.741252 98.5717756,240.678252 C93.7947756,240.586252 83.9451088,240.797164 83.9421088,236.237164 C83.9411088,235.264164 84.1527756,229.814252 86.6457756,219.197252 L75.2327756,217.861252 Z" transform="rotate(24 88.612 230.594)"></path><path id="[clothes]shoes--globalStyle1/people/man3/bottom/8" fill="#294b67" d="M69.7015775,243.962859 L96.4605775,243.962859 L96.4605775,242.078859 C96.4605775,242.078859 87.2225775,242.063859 69.7015775,242.078859 L69.7015775,243.962859 Z" transform="rotate(24 83.081 243.018)" opacity="1.00"></path><path id="[clothes]pants--globalStyle1/people/man3/bottom/8" fill="#294b67" d="M225.249843,21.476485 C215.404492,64.0023787 203.027037,103.184656 188.117477,139.023316 C173.207917,174.861975 158.428211,200.958372 143.778358,217.312506 L136.091914,212.944457 L158.793356,130.65004 L169.076823,11.2707724 L225.249843,21.476485 Z" transform="rotate(-23 180.67 114.292)" opacity="1.00"></path><path id="shadow--globalStyle1/people/man3/bottom/8" fill="#000" fill-opacity=".08" d="M225.249843,21.476485 C215.404492,64.0023787 203.027037,103.184656 188.117477,139.023316 C173.207917,174.861975 158.428211,200.958372 143.778358,217.312506 L136.091914,212.944457 L158.793356,130.65004 L169.076823,11.2707724 L225.249843,21.476485 Z" transform="rotate(-23 180.67 114.292)"></path><path id="[clothes]pants--globalStyle1/people/man3/bottom/8" fill="#294b67" d="M176.242274,22.3026174 C168.308234,67.5759705 158.501027,105.764471 146.820651,136.868118 C135.140275,167.971765 116.230129,195.202671 90.0902115,218.560836 L82.6422521,214.2126 L111.799767,134.851827 L126.785853,15.0175702 L176.242274,22.3026174 Z" opacity="1.00"></path></g></g></svg></g>
</g>
<g transform="translate(88.5,-9.5)">

<g><svg xmlns="http://www.w3.org/2000/svg" width="120" height="185" viewBox="0 0 120 185"><g id="Symbols--globalStyle1/people/man3/head/3" fill="none" fill-rule="evenodd" stroke="none" stroke-width="1"><g id="globalStyle1/people/man3/head/3--globalStyle1/people/man3/head/3"><polygon id="[skin]neck--globalStyle1/people/man3/head/3" fill="#9a6059" points="69.0765532 127.0485 88.5735532 127.0485 85.8989543 75.509 74.5815532 72.4535" opacity="1.00"></polygon><polygon id="shadow--globalStyle1/people/man3/head/3" fill="#000" fill-opacity=".04" points="69.0765532 127.0485 88.5735532 127.0485 85.8989543 75.509 74.5815532 72.4535"></polygon><path id="[skin]face--globalStyle1/people/man3/head/3" fill="#9a6059" d="M83.4037,83.5008 C88.7417,84.4918 91.8307,77.3288 92.8867,66.7838 C93.9447,56.2378 90.4737,46.8848 85.1357,45.8938 C79.7987,44.9018 74.6137,52.6468 73.5567,63.1928 C72.4997,73.7388 78.0657,82.5088 83.4037,83.5008" opacity="1.00"></path><path id="[hair]hair--globalStyle1/people/man3/head/3" fill="#cac9c9" d="M73.8754,67.5613 L76.3034,63.4603 C76.7034,57.4523 77.3044,54.2783 78.1044,53.9403 C81.9154,52.3323 91.5634,54.3423 92.1284,55.4123 C92.5644,56.2423 97.4374,42.0513 81.1804,44.2273 C70.3414,45.6773 67.9064,53.4553 73.8754,67.5613" opacity="1.00"></path><path id="smile--globalStyle1/people/man3/head/3" fill="#FFF" d="M90.3295,77.576 C90.9755,77.554 92.2815,77.071 92.2265,75.509 L88.2925,75.646 C88.3435,77.093 89.6835,77.598 90.3295,77.576"></path></g></g></svg></g>
</g>
<g transform="translate(73.49999999999977,14)">

<g><svg xmlns="http://www.w3.org/2000/svg" width="214" height="274" viewBox="0 0 214 274"><g id="Symbols--globalStyle1/people/man3/top/15" fill="none" fill-rule="evenodd" stroke="none" stroke-width="1"><g id="globalStyle1/people/man3/top/15--globalStyle1/people/man3/top/15"><path id="[skin]hand--globalStyle1/people/man3/top/15" fill="#9a6059" d="M96.4318421,104.878758 C96.4318421,104.878758 110.586642,104.026552 118.431842,104.878758 C117.963588,109.47902 117.473707,150.949976 117.177134,166.603926 C125.510129,168.002365 140.269471,170.820087 166.417538,175.498309 L166.417538,175.498309 C166.419664,175.500011 166.422342,175.500004 166.42502,175.5 C166.596279,175.499718 166.765044,175.510206 166.930675,175.530826 L175.64322,172.993875 L181.158775,170.26475 L187.870775,170.312875 C188.404109,170.330375 188.394331,170.627 188.317886,170.668125 C186.718775,171.515125 185.300109,171.840625 183.290331,171.8205 C181.821886,173.251125 179.970331,173.12775 181.272553,174.497125 C181.425442,174.65725 184.807664,174.323 187.973886,173.238 C188.423664,173.084 190.663664,172.4855 190.936553,172.3945 C192.502775,171.873 192.717886,171.712875 193.751664,171.172125 C194.068109,171.005875 194.534775,170.9385 195.150775,170.97 C195.238775,170.974375 195.32322,170.99625 195.389886,171.032125 C195.575664,171.131 195.596109,171.310375 195.43522,171.432875 C195.076109,171.7085 194.672553,171.992875 194.223664,172.28775 C193.568553,172.719125 191.383664,173.77875 189.420998,174.4945 C188.089442,174.97925 186.446775,175.594375 186.280553,175.720375 C186.023664,175.9155 188.752553,175.15075 190.988998,174.715875 C193.225442,174.281 194.241442,173.02975 196.012998,172.027 C196.256553,171.88875 196.767664,171.770625 197.544553,171.670875 C197.586331,171.665625 197.988998,171.705 197.956109,171.919375 C197.924109,172.134625 196.104553,173.74725 194.980998,174.507625 C193.108998,175.776375 192.639664,175.867375 191.589886,176.135125 C190.281442,176.469375 187.980998,177.150125 187.361442,177.36275 C186.741886,177.575375 190.446775,177.116 193.004998,176.2655 C193.402331,176.133375 194.177442,175.762375 194.538331,175.59875 C195.620109,175.106125 196.84322,174.05175 197.460998,174.105125 C197.551664,174.113875 197.637886,174.131375 197.716109,174.159375 C198.079664,174.28625 198.20322,174.58375 197.991664,174.82175 C197.444109,175.4395 196.520553,176.128125 195.221886,176.885875 C194.916109,177.064375 193.695664,177.732 193.204998,177.874625 C191.132998,178.47575 188.41922,178.819625 188.222775,178.982375 C188.026331,179.145125 189.578331,178.789 191.498331,178.46175 C191.938331,178.387375 193.66722,177.923625 193.999664,177.858875 C194.437886,177.774 194.72322,177.652375 195.454775,177.43625 C196.914331,177.004 197.260998,177.4975 196.60322,178.04525 C195.944553,178.593875 189.57922,180.65975 186.639664,181.231125 C185.028998,181.544375 181.910775,182.429 177.756998,182.66175 L167.969789,183.193674 C167.498384,183.390198 166.981251,183.499105 166.438664,183.5 L166.431842,183.5 L166.431842,183.533205 C124.607838,185.774407 104.112776,187.606413 100.773315,180.128465 L100.677366,179.899002 C100.069229,178.587193 99.6997869,177.321259 99.5345432,176.120968 L99.5224714,176.027841 C96.0283885,163.642117 96.7812901,117.426207 96.4318421,104.878758 Z" opacity="1.00"></path><path id="shadow--globalStyle1/people/man3/top/15" fill="#000" fill-opacity=".04" d="M166.846775,183.49025 L166.832553,175.7955 L175.64322,173.229125 L181.158775,170.5 L187.870775,170.548125 C188.404109,170.565625 188.394331,170.86225 188.317886,170.903375 C186.718775,171.750375 185.300109,172.075875 183.290331,172.05575 C181.821886,173.486375 179.970331,173.363 181.272553,174.732375 C181.425442,174.8925 184.807664,174.55825 187.973886,173.47325 C188.423664,173.31925 190.663664,172.72075 190.936553,172.62975 C192.502775,172.10825 192.717886,171.948125 193.751664,171.407375 C194.068109,171.241125 194.534775,171.17375 195.150775,171.20525 C195.238775,171.209625 195.32322,171.2315 195.389886,171.267375 C195.575664,171.36625 195.596109,171.545625 195.43522,171.668125 C195.076109,171.94375 194.672553,172.228125 194.223664,172.523 C193.568553,172.954375 191.383664,174.014 189.420998,174.72975 C188.089442,175.2145 186.446775,175.829625 186.280553,175.955625 C186.023664,176.15075 188.752553,175.386 190.988998,174.951125 C193.225442,174.51625 194.241442,173.265 196.012998,172.26225 C196.256553,172.124 196.767664,172.005875 197.544553,171.906125 C197.586331,171.900875 197.988998,171.94025 197.956109,172.154625 C197.924109,172.369875 196.104553,173.9825 194.980998,174.742875 C193.108998,176.011625 192.639664,176.102625 191.589886,176.370375 C190.281442,176.704625 187.980998,177.385375 187.361442,177.598 C186.741886,177.810625 190.446775,177.35125 193.004998,176.50075 C193.402331,176.368625 194.177442,175.997625 194.538331,175.834 C195.620109,175.341375 196.84322,174.287 197.460998,174.340375 C197.551664,174.349125 197.637886,174.366625 197.716109,174.394625 C198.079664,174.5215 198.20322,174.819 197.991664,175.057 C197.444109,175.67475 196.520553,176.363375 195.221886,177.121125 C194.916109,177.299625 193.695664,177.96725 193.204998,178.109875 C191.132998,178.711 188.41922,179.054875 188.222775,179.217625 C188.026331,179.380375 189.578331,179.02425 191.498331,178.697 C191.938331,178.622625 193.66722,178.158875 193.999664,178.094125 C194.437886,178.00925 194.72322,177.887625 195.454775,177.6715 C196.914331,177.23925 197.260998,177.73275 196.60322,178.2805 C195.944553,178.829125 189.57922,180.895 186.639664,181.466375 C185.028998,181.779625 181.910775,182.66425 177.756998,182.897 L166.846775,183.49025 Z"></path><path id="[clothes]jacket--globalStyle1/people/man3/top/15" fill="#294b67" d="M88.1092037,98.2611621 C94.8553405,89.6482984 107.433879,88.7940142 115.10211,98.2611621 C120.214264,104.572594 122.336257,126.179334 121.468087,163.081381 L166.431842,170.26475 L166.832553,188.257828 C129.67236,190.455316 108.097199,186.202707 102.107072,175.5 C93.1218821,159.445939 81.363067,106.874026 88.1092037,98.2611621 Z" opacity="1.00"></path><path id="shadow--globalStyle1/people/man3/top/15" fill="#000" fill-opacity=".08" d="M88.1092037,98.2611621 C94.8553405,89.6482984 107.433879,88.7940142 115.10211,98.2611621 C120.214264,104.572594 122.336257,126.179334 121.468087,163.081381 L166.431842,170.26475 L166.832553,188.257828 C129.67236,190.455316 108.097199,186.202707 102.107072,175.5 C93.1218821,159.445939 81.363067,106.874026 88.1092037,98.2611621 Z"></path><path id="tshirt--globalStyle1/people/man3/top/15" fill="#F7F8F9" d="M84.7459306,83.416099 C84.2156817,84.2466376 68.9174165,87.1284844 63.9725296,88.4615533 C46.8309801,93.0826635 45.7204708,102.757463 46.3569193,126.545043 C46.4572966,130.28527 45.5133652,154.024398 46.7662897,181.873367 C47.1014784,189.333279 47.4626577,196.960197 47.839969,204.3826 C49.2524218,232.168159 128.4725,229.614676 127,201.773745 C126.695283,196.01962 124.543511,140.966051 124.498699,138.45024 C124.132375,119.464596 122.951713,107.376181 120.956713,102.184995 C116.936241,91.7270071 114.962846,86.4261467 102.546526,84.8971907 C102.546526,84.8971907 102.972233,90.8004612 98.4068558,90.7995681 C93.8414784,90.798675 86.4760659,80.7061565 84.7459306,83.416099 Z"></path><path id="[clothes]jacket--globalStyle1/people/man3/top/15" fill="#294b67" d="M85.4756742,82.7769811 L113.860938,153.39035 L115,237.969994 C88.096205,238.632097 72.3434321,238.632097 67.7416812,237.969994 C63.1399302,237.307891 56.6427492,233.581225 48.250138,226.789997 C45.4167127,177.700535 44.1493711,145.314701 44.4481132,129.632494 C44.8962264,106.109184 44.8962264,99 56.3086568,91.4773777 C59.3680564,89.4607426 64.611781,87.2524337 68.6429736,86.1262782 C71.9327226,85.2072526 77.5436228,84.0908203 85.4756742,82.7769811 Z" opacity="1.00"></path><polygon id="shadow--globalStyle1/people/man3/top/15" fill="#000" fill-opacity=".04" points="85.6884705 82.7172565 112.860938 153.39035 89.2649702 129.288809 93.1209799 118.053803 85.6884705 113.762816"></polygon><path id="[clothes]jacket--globalStyle1/people/man3/top/15" fill="#294b67" d="M104.1196,85.0074508 L112.860938,153.39035 L115,237.969994 C119.254022,235.266413 122.350541,233.033676 124.289556,231.271784 C126.228571,229.509892 127.198079,227.891677 127.198079,226.417141 C127.649102,195.469324 127.268895,169.733644 126.057457,149.210102 C124.240301,118.424788 124.289556,101.534919 119.812164,94 C116.827235,88.9767203 111.596381,85.979204 104.1196,85.0074508 Z" opacity="1.00"></path><path id="shadow--globalStyle1/people/man3/top/15" fill="#000" fill-opacity=".04" d="M104.1196,85.0074508 L112.860938,153.39035 L115,237.969994 C119.254022,235.266413 122.350541,233.033676 124.289556,231.271784 C126.228571,229.509892 127.198079,227.891677 127.198079,226.417141 C127.649102,195.469324 127.268895,169.733644 126.057457,149.210102 C124.240301,118.424788 124.289556,101.534919 119.812164,94 C116.827235,88.9767203 111.596381,85.979204 104.1196,85.0074508 Z"></path><polygon id="shadow---globalStyle1/people/man3/top/15" fill="#000" fill-opacity=".04" points="93.9140425 87.3146733 122.80781 150.53813 104.1125 131.132122 104.082293 120.571039 98.2243632 115.232973" transform="scale(-1 1) rotate(32 0 -258.973)"></polygon><g id="Group-23--globalStyle1/people/man3/top/15" transform="rotate(-5 669.277 -1175.383)"><path id="Fill-718--globalStyle1/people/man3/top/15" fill="#AB8753" d="M53.6082968,152.694814 L49.5222968,151.145314 C48.7047968,150.836314 48.2937968,149.924314 48.6027968,149.106814 L50.1522968,145.020814 C50.4612968,144.204814 51.3747968,143.793814 52.1907968,144.102814 L56.2782968,145.650814 C57.0942968,145.961314 57.5052968,146.873314 57.1962968,147.689314 L55.6467968,151.776814 C55.3377968,152.592814 54.4242968,153.003814 53.6082968,152.694814"></path><path id="Fill-720--globalStyle1/people/man3/top/15" fill="#D1A463" d="M63.6687968,151.523314 L63.4857968,151.524832 C54.3327968,151.538314 46.8762968,144.102814 46.8612968,134.951314 L49.0827968,32.7263141 C49.0227968,26.8613141 45.6897968,20.6693141 40.3992968,18.4283141 L13.8702968,6.81231408 L15.3807968,3.26331408 L42.2757968,13.9073141 C51.8862968,18.4118141 54.0927968,22.5713141 55.1067968,31.5878141 L61.9257968,134.927314 C61.9272968,135.773314 62.6172968,136.461814 63.4632968,136.460314 L63.6462968,136.460314 C64.4922968,136.458814 65.1792968,135.768814 65.1777968,134.922814 L66.5202968,107.268814 C68.1777968,82.4093141 78.7227968,82.7708141 75.1257968,69.4058141 L101.896297,91.0208141 C93.7962968,88.3958141 85.7742968,96.9443141 84.2907968,111.572314 L82.0662968,134.171314 C80.5752968,144.468814 72.8202968,151.509814 63.6687968,151.523314"></path><path id="Fill-721--globalStyle1/people/man3/top/15" fill="#1A1B19" d="M18.8712968,9.55581408 L0.223296837,2.12481408 L0.827796837,0.609814083 C4.89729684,1.72281408 8.41329684,1.86981408 11.2602968,0.846814083 L20.8227968,4.65681408 L18.8712968,9.55581408"></path><path id="Fill-722--globalStyle1/people/man3/top/15" fill="#AB8753" d="M102.716797,89.8913141 C103.201297,90.2858141 103.274797,90.9968141 102.881797,91.4813141 C102.487297,91.9658141 101.776297,92.0393141 101.291797,91.6448141 L73.9662968,69.4358141 C73.4817968,69.0428141 73.4082968,68.3318141 73.8027968,67.8473141 C74.1957968,67.3628141 74.9067968,67.2893141 75.3912968,67.6823141 L102.716797,89.8913141"></path><path id="Fill-723--globalStyle1/people/man3/top/15" fill="#F1D19E" d="M83.3113019,105.242314 C83.3157968,108.959314 80.3067968,111.978814 76.5882968,111.984819 C72.8712968,111.989314 69.8532968,108.980314 69.8472879,105.261814 C69.8412968,101.544814 72.8502968,98.5253141 76.5687968,98.5208051 C80.2857968,98.5148141 83.3052968,101.523814 83.3113019,105.242314"></path><path id="Fill-724--globalStyle1/people/man3/top/15" fill="#F1D19E" d="M82.0798058,121.391314 C82.0857968,125.108314 79.0767968,128.127814 75.3582968,128.132323 C71.6397968,128.138314 68.6217968,125.129314 68.6157879,121.410814 C68.6097968,117.693814 71.6202968,114.674314 75.3372968,114.669805 C79.0557968,114.663814 82.0737968,117.672814 82.0798058,121.391314"></path><path id="Fill-725--globalStyle1/people/man3/top/15" fill="#F1D19E" d="M76.7428034,137.883814 C76.7472968,140.720314 74.4522968,143.022814 71.6157968,143.027321 C68.7777968,143.031814 66.4752968,140.735314 66.4707902,137.898814 C66.4662968,135.062314 68.7627968,132.759814 71.5992968,132.755307 C74.4357968,132.750814 76.7382968,135.047314 76.7428034,137.883814"></path><path id="Fill-726--globalStyle1/people/man3/top/15" fill="#F1D19E" d="M63.1603034,140.916814 C63.1647968,143.753314 60.8682968,146.057314 58.0317968,146.060321 C55.1952968,146.064814 52.8927968,143.769814 52.8882902,140.933314 C52.8837968,138.096814 55.1802968,135.792814 58.0167968,135.788307 C60.8532968,135.783814 63.1557968,138.080314 63.1603034,140.916814"></path><path id="Fill-727--globalStyle1/people/man3/top/15" fill="#F1D19E" d="M59.7688049,60.6653141 C59.7717968,62.9573141 58.9392968,64.8158141 57.9087968,64.817315 C56.8767968,64.8188141 56.0382968,62.9633141 56.0352787,60.6713141 C56.0307968,58.3793141 56.8647968,56.5208141 57.8952968,56.5193132 C58.9272968,56.5178141 59.7657968,58.3748141 59.7688049,60.6653141"></path><path id="Fill-728--globalStyle1/people/man3/top/15" fill="#AB8753" d="M50.2363049,58.5593141 C50.2392968,60.8513141 49.4067968,62.7098141 48.3762968,62.711315 C47.3442968,62.7128141 46.5057968,60.8558141 46.5027787,58.5653141 C46.4982968,56.2733141 47.3322968,54.4148141 48.3627968,54.4133132 C49.3932968,54.4118141 50.2332968,56.2673141 50.2363049,58.5593141"></path><path id="Fill-729--globalStyle1/people/man3/top/15" fill="#F1D19E" d="M50.2513049,68.2088141 C50.2542968,70.4993141 49.4217968,72.3593141 48.3897968,72.360815 C47.3592968,72.3623141 46.5207968,70.5053141 46.5177787,68.2148141 C46.5132968,65.9228141 47.3472968,64.0643141 48.3777968,64.0628132 C49.4082968,64.0613141 50.2467968,65.9168141 50.2513049,68.2088141"></path><path id="Fill-730--globalStyle1/people/man3/top/15" fill="#F1D19E" d="M58.7038049,50.2478141 C58.7067968,52.5398141 57.8742968,54.3983141 56.8422968,54.399815 C55.8117968,54.4013141 54.9732968,52.5458141 54.9702787,50.2538141 C54.9657968,47.9618141 55.7997968,46.1033141 56.8302968,46.1018132 C57.8607968,46.1003141 58.7007968,47.9558141 58.7038049,50.2478141"></path><path id="Fill-731--globalStyle1/people/man3/top/15" fill="#AB8753" d="M57.869815,39.9548141 C57.8742968,42.2468141 57.0402968,44.1053141 56.0097968,44.106815 C54.9792968,44.1083141 54.1392968,42.2528141 54.1362888,39.9608141 C54.1332968,37.6688141 54.9657968,35.8103141 55.9962968,35.8088132 C57.0282968,35.8073141 57.8667968,37.6643141 57.869815,39.9548141"></path><path id="Fill-732--globalStyle1/people/man3/top/15" fill="#AB8753" d="M63.9822968,130.022314 C63.3582968,130.022314 62.8512968,129.516814 62.8497968,128.892814 L62.7567968,68.1893141 C62.7567968,67.5653141 63.2622968,67.0583108 63.8862968,67.0583108 C64.5087968,67.0568141 65.0157968,67.5623141 65.0172968,68.1863141 L65.1102968,128.889814 C65.1102968,129.513814 64.6062968,130.020814 63.9822968,130.022314"></path><path id="Fill-733--globalStyle1/people/man3/top/15" fill="#AB8753" d="M52.8132968,92.1593141 C52.1892968,92.1593141 51.6822968,91.6538141 51.6822968,91.0313141 L51.5892935,30.3263141 C51.5877968,29.7023141 52.0932968,29.1953108 52.7172968,29.1953108 C53.3412968,29.1938141 53.8482968,29.6993141 53.8482968,30.3233141 L53.9413002,91.0268141 C53.9427968,91.6508141 53.4372968,92.1578141 52.8132968,92.1593141"></path><path id="Fill-734--globalStyle1/people/man3/top/15" fill="#AB8753" d="M50.2857989,91.1153141 C50.2872968,92.1458141 49.4532968,92.9828141 48.4212968,92.9843161 C47.3907968,92.9858141 46.5537968,92.1518141 46.5522968,91.1213141 L46.5462948,87.2048141 C46.5447968,86.1728141 47.3787968,85.3358141 48.4107968,85.3343121 C49.4412968,85.3328141 50.2782968,86.1668141 50.2797968,87.1988141 L50.2857989,91.1153141"></path><path id="Fill-735--globalStyle1/people/man3/top/15" fill="#F1D19E" d="M50.3007989,100.518814 C50.3022968,101.549314 49.4667968,102.387814 48.4362968,102.389316 C47.4057968,102.390814 46.5672968,101.555314 46.5657968,100.524814 L46.5612888,96.6083141 C46.5582968,95.5763141 47.3937968,94.7393141 48.4242968,94.7378121 C49.4562968,94.7363141 50.2932968,95.5703141 50.2947968,96.6023141 L50.3007989,100.518814"></path><path id="Fill-736--globalStyle1/people/man3/top/15" fill="#AB8753" d="M50.3143049,110.157814 C50.3172968,111.188314 49.4817968,112.025314 48.4512968,112.026816 C47.4192968,112.028314 46.5822968,111.194314 46.5807968,110.162314 L46.5747948,106.245814 C46.5732968,105.215314 47.4087968,104.378314 48.4392968,104.376812 C49.4697968,104.375314 50.3082968,105.209314 50.3082968,106.241314 L50.3143049,110.157814"></path><path id="Fill-737--globalStyle1/people/man3/top/15" fill="#AB8753" d="M53.5782968,133.313314 L49.4922968,131.765314 C48.6762968,131.454814 48.2652968,130.542814 48.5742968,129.726814 L50.1222968,125.639314 C50.4312968,124.823314 51.3447968,124.412314 52.1607968,124.721314 L56.2482968,126.270814 C57.0642968,126.579814 57.4752968,127.491814 57.1662968,128.309314 L55.6167968,132.395314 C55.3077968,133.211314 54.3957968,133.622314 53.5782968,133.313314"></path><path id="Fill-738--globalStyle1/people/man3/top/15" fill="#AB8753" d="M57.9282968,77.9063141 L52.7922968,77.9138174 C52.1682968,77.9153141 51.6612968,77.4098141 51.6597968,76.7858141 C51.6597968,76.1618141 52.1637968,75.6548141 52.7877968,75.6548141 L57.9252968,75.6458141 C58.5477968,75.6458141 59.0547968,76.1513141 59.0562968,76.7753141 C59.0562968,77.3978141 58.5522968,77.9048141 57.9282968,77.9063141"></path><path id="Fill-739--globalStyle1/people/man3/top/15" fill="#AB8753" d="M63.0867968,92.9228141 L57.9507968,92.9303174 C57.3267968,92.9318141 56.8197935,92.4263141 56.8197935,91.8023141 C56.8182968,91.1783141 57.3237968,90.6713141 57.9477968,90.6713141 L63.0837968,90.6638108 C63.7077968,90.6623141 64.2148002,91.1678141 64.2148002,91.7918141 C64.2162968,92.4143141 63.7107968,92.9213141 63.0867968,92.9228141"></path><path id="Fill-740--globalStyle1/people/man3/top/15" fill="#AB8753" d="M63.9477968,107.735314 L57.9732968,107.744317 C57.3492968,107.745814 56.8422935,107.240314 56.8422935,106.616314 C56.8407968,105.992314 57.3462968,105.486814 57.9702968,105.485314 L63.9447968,105.476311 C64.5687968,105.474814 65.0742968,105.980314 65.0758002,106.604314 C65.0772968,107.228314 64.5717968,107.735314 63.9477968,107.735314"></path><path id="Fill-741--globalStyle1/people/man3/top/15" fill="#AB8753" d="M63.9702968,122.547814 L59.0007968,122.555317 C58.3767968,122.556814 57.8697935,122.051314 57.8697935,121.427314 C57.8682968,120.804814 58.3737968,120.297814 58.9977968,120.296314 L63.9672968,120.288811 C64.5912968,120.287314 65.0983002,120.792814 65.0983002,121.416814 C65.0997968,122.040814 64.5942968,122.547814 63.9702968,122.547814"></path><path id="Fill-742--globalStyle1/people/man3/top/15" fill="#AB8753" d="M63.9027968,77.8973141 L58.0902968,77.9063141 C57.4662968,77.9063141 56.9592935,77.4023141 56.9592935,76.7783141 C56.9577968,76.1543141 57.4632968,75.6473141 58.0872968,75.6458141 L63.8982968,75.6368141 C64.5222968,75.6368141 65.0292968,76.1423141 65.0307968,76.7648141 C65.0307968,77.3888141 64.5252968,77.8958141 63.9027968,77.8973141"></path><path id="Fill-743--globalStyle1/people/man3/top/15" fill="#AB8753" d="M61.5027968,133.899868 C61.3512968,133.901314 61.1982968,133.871314 61.0512968,133.806814 L52.4187968,130.053814 C51.8472968,129.804814 51.5847968,129.138814 51.8337968,128.567314 C52.0812968,127.994314 52.7457968,127.730314 53.3202968,127.980814 L61.9527968,131.733814 C62.5242968,131.982814 62.7867968,132.648814 62.5377968,133.220314 C62.3532968,133.646314 61.9377968,133.899868 61.5027968,133.899868"></path><path id="Fill-744--globalStyle1/people/man3/top/15" fill="#AB8753" d="M76.5807968,106.382314 C76.2837968,106.382314 75.9882968,106.266814 75.7662968,106.035814 L69.0237968,99.0488141 C68.5902968,98.6003141 68.6022968,97.8848141 69.0522968,97.4513141 C69.5007968,97.0163141 70.2147968,97.0298141 70.6497968,97.4813141 L77.3922968,104.468314 C77.8257968,104.916814 77.8122968,105.630814 77.3637968,106.064314 C77.1447968,106.277314 76.8627968,106.380814 76.5807968,106.382314"></path><path id="Fill-745--globalStyle1/people/man3/top/15" fill="#AB8753" d="M75.3492968,122.531314 C75.0672968,122.531314 74.7852968,122.427814 74.5662968,122.216314 L67.8237968,115.743814 C67.3737968,115.313314 67.3587968,114.597814 67.7907968,114.146314 C68.2227968,113.699314 68.9397968,113.682814 69.3882968,114.114814 L76.1292968,120.585814 C76.5792968,121.017814 76.5942968,121.733314 76.1622968,122.183314 C75.9417968,122.414314 75.6462968,122.529814 75.3492968,122.531314"></path><path id="Fill-746--globalStyle1/people/man3/top/15" fill="#AB8753" d="M71.6097968,139.020814 C71.2617968,139.020814 70.9182968,138.861814 70.6962968,138.560314 L65.5497968,131.549314 C65.1807968,131.045314 65.2887968,130.338814 65.7912968,129.968314 C66.2937968,129.600814 67.0017968,129.708814 67.3722968,130.211314 L72.5172968,137.220814 C72.8877968,137.724814 72.7782968,138.431314 72.2757968,138.801814 C72.0747968,138.948814 71.8407968,139.020814 71.6097968,139.020814"></path><path id="Fill-747--globalStyle1/people/man3/top/15" fill="#AB8753" d="M58.8477968,144.177814 C58.5537968,144.177814 58.2612968,144.065314 58.0392968,143.840314 L49.5462968,135.207814 C49.1082968,134.762314 49.1157968,134.046814 49.5597968,133.610314 C50.0052968,133.172314 50.7207968,133.178314 51.1572968,133.622314 L59.6517968,142.254814 C60.0882968,142.700314 60.0822968,143.414314 59.6382968,143.852314 C59.4192968,144.068314 59.1327968,144.176314 58.8477968,144.177814"></path><path id="Fill-748--globalStyle1/people/man3/top/15" fill="#F1D19E" d="M61.9153175,121.421314 C61.9212968,125.001814 60.6192968,127.904314 59.0082968,127.907316 C57.3987968,127.910314 56.0877968,125.010814 56.0832762,121.430314 C56.0772968,117.851314 57.3777968,114.947314 58.9887968,114.944314 C60.5997968,114.942814 61.9092968,117.842314 61.9153175,121.421314"></path><path id="Fill-749--globalStyle1/people/man3/top/15" fill="#F1D19E" d="M60.8878175,106.610314 C60.8937968,110.189314 59.5917968,113.093314 57.9822968,113.096315 C56.3712968,113.097814 55.0617968,110.198314 55.0557762,106.619314 C55.0497968,103.038814 56.3517968,100.134814 57.9627968,100.133312 C59.5722968,100.130314 60.8832968,103.029814 60.8878175,106.610314"></path><path id="Fill-750--globalStyle1/people/man3/top/15" fill="#F1D19E" d="M60.8653175,91.7963141 C60.8712968,95.3768141 59.5692968,98.2808141 57.9597968,98.2823164 C56.3487968,98.2853141 55.0377968,95.3858141 55.0332762,91.8053141 C55.0272968,88.2263141 56.3292968,85.3223141 57.9387968,85.3193135 C59.5497968,85.3178141 60.8607968,88.2173141 60.8653175,91.7963141"></path><path id="Fill-751--globalStyle1/people/man3/top/15" fill="#F1D19E" d="M60.8428175,76.7723141 C60.8487968,80.3513141 59.5467968,83.2553141 57.9357968,83.2583147 C56.3262968,83.2598141 55.0152968,80.3603141 55.0107762,76.7813141 C55.0047968,73.2008141 56.3052968,70.2968141 57.9162968,70.2953118 C59.5272968,70.2923141 60.8367968,73.1918141 60.8428175,76.7723141"></path><path id="Fill-752--globalStyle1/people/man3/top/15" fill="#AB8753" d="M49.9077968,50.0783183 C48.9102968,50.0798141 47.9337968,49.6823141 47.2242968,48.9803141 C46.5057968,48.2723141 46.0917968,47.2853141 46.0902968,46.2743141 L46.0767968,36.7733141 C46.0752968,35.6453141 46.5327968,34.5413141 47.3352968,33.7478141 C48.1347968,32.9513141 49.2372968,32.5028141 50.3712968,32.5148141 L53.7102968,32.5493141 C54.4332968,32.5193141 55.1352968,32.2403141 55.6092968,31.6838141 C56.0832968,31.1258141 56.2842968,30.3923141 56.1612968,29.6708141 L55.9422968,28.3973141 C54.8802968,22.2338141 50.8392968,17.0213141 45.1347968,14.4593141 L33.1077968,9.05331408 C32.7282968,8.88081408 32.5587968,8.43531408 32.7297968,8.05581408 C32.9007968,7.67931408 33.3462968,7.50831408 33.7257968,7.67781408 L45.7527968,13.0838141 C51.9162968,15.8528141 56.2797968,21.4823141 57.4257968,28.1423141 L57.6447968,29.4158141 C57.8457968,30.5783141 57.5217968,31.7603141 56.7567968,32.6588141 C55.9917968,33.5603141 54.8982968,34.0523141 53.6952968,34.0553141 L50.3562968,34.0208141 C49.5627968,33.9833141 48.9117968,34.3058141 48.3957968,34.8173141 C47.8782968,35.3318141 47.5812968,36.0428141 47.5827968,36.7703141 L47.5977968,46.2728141 C47.5977968,46.8833141 47.8482968,47.4803141 48.2832968,47.9078141 C48.7182968,48.3383141 49.3242968,48.5348141 49.9302968,48.5723141 L52.7382968,48.5393141 L52.7472968,48.5393141 C53.1597968,48.5378141 53.4957968,48.8708141 53.5017968,49.2833141 C53.5062968,49.6988141 53.1732968,50.0408141 52.7577968,50.0453141 L49.9482968,50.0783183 L49.9077968,50.0783183"></path><path id="Fill-753--globalStyle1/people/man3/top/15" fill="#AB8753" d="M36.1542968,13.4453141 L35.8722968,13.3913141 C35.4852968,13.2353141 35.2992968,12.7973141 35.4552968,12.4103141 L36.5127968,9.78981408 C36.6687968,9.40281408 37.1097968,9.21831408 37.4922968,9.37131408 C37.8792968,9.52731408 38.0652968,9.96681408 37.9092968,10.3523141 L36.8517968,12.9728141 C36.7347968,13.2668141 36.4512968,13.4453141 36.1542968,13.4453141"></path><path id="Fill-754--globalStyle1/people/man3/top/15" fill="#AB8753" d="M43.5042968,16.7303141 L43.2402968,16.6823141 C42.8502968,16.5383141 42.6522968,16.1033141 42.7962968,15.7148141 L43.7772968,13.0763141 C43.9212968,12.6863141 44.3562968,12.4883141 44.7447968,12.6323141 C45.1347968,12.7778141 45.3327968,13.2113141 45.1887968,13.6013141 L44.2077968,16.2383141 C44.0967968,16.5413141 43.8087968,16.7288141 43.5042968,16.7303141"></path><path id="Fill-755--globalStyle1/people/man3/top/15" fill="#AB8753" d="M52.7112968,26.0363207 C52.3542968,26.0378141 52.0377968,25.7828141 51.9702968,25.4198141 C51.8952968,25.0103141 52.1652968,24.6173141 52.5747968,24.5423141 L55.5867968,23.9843141 C56.0007968,23.9183141 56.3892968,24.1808141 56.4642968,24.5888141 C56.5392968,24.9983141 56.2692968,25.3913141 55.8597968,25.4663141 L52.8477968,26.0243141 L52.7112968,26.0363207"></path><path id="Fill-756--globalStyle1/people/man3/top/15" fill="#AB8753" d="M50.2107968,41.4818141 L50.1687968,41.4803141 L46.7937968,41.2973141 C46.3782968,41.2733141 46.0602968,40.9193141 46.0827968,40.5038141 C46.1052968,40.0883141 46.4667968,39.7373141 46.8762968,39.7928141 L50.2497968,39.9758141 C50.6652968,39.9998141 50.9832968,40.3538141 50.9607968,40.7693141 C50.9397968,41.1698141 50.6067968,41.4803141 50.2107968,41.4818141"></path></g><path id="[skin]hand--globalStyle1/people/man3/top/15" fill="#9a6059" d="M88.6973759,98.2550005 L88.9536033,98.2585391 C88.8852922,102.672807 94.7364755,143.007392 97.0997797,160.650161 C105.862898,159.126687 121.044191,156.752948 146.78548,152.651948 L146.78548,152.651948 C146.805597,152.647848 146.825944,152.644043 146.846343,152.640398 L153.576919,148.831328 L158.489433,145.008003 L165.173431,143.673624 C165.707774,143.580745 165.759972,143.875245 165.6929,143.930011 C164.280281,145.095116 162.937838,145.707654 160.934495,146.100805 C159.774131,147.812782 157.907557,148.072401 159.489869,149.153813 C159.67556,149.28076 162.968509,148.254487 165.889402,146.533496 C166.30499,146.288347 168.407142,145.238337 168.658585,145.092747 C170.107032,144.256372 170.28816,144.053896 171.202327,143.308617 C171.481657,143.080125 171.931857,142.917384 172.55108,142.822115 C172.639932,142.808264 172.728161,142.812237 172.802363,142.834459 C173.00653,142.892451 173.065635,143.065838 172.930856,143.219071 C172.63137,143.564644 172.29019,143.928393 171.905501,144.311145 C171.344183,144.86976 169.393432,146.364074 167.591824,147.472764 C166.369493,148.224236 164.865479,149.169318 164.726056,149.327742 C164.5122,149.572798 167.064565,148.257432 169.197698,147.368227 C171.3308,146.479913 172.078271,145.038165 173.629556,143.685163 C173.84311,143.499882 174.32666,143.276736 175.07919,143.01926 C175.118946,143.005479 175.528423,142.960886 175.540412,143.179921 C175.553323,143.398096 174.081616,145.360647 173.124402,146.341778 C171.527559,147.976943 171.080085,148.163871 170.092189,148.643344 C168.861838,149.241058 166.717098,150.385951 166.145669,150.72292 C165.574239,151.05989 169.161196,149.844899 171.526945,148.480185 C171.894069,148.268143 172.588118,147.742716 172.912336,147.506868 C173.884098,146.799293 174.880671,145.509013 175.50631,145.434491 C175.596851,145.423376 175.686957,145.424738 175.77051,145.434794 C176.158796,145.48583 176.344059,145.752854 176.183465,146.031893 C175.769119,146.752688 174.99527,147.620652 173.861949,148.634894 C173.595649,148.873657 172.52226,149.782023 172.063972,150.023004 C170.128918,151.042265 167.501843,151.94099 167.340421,152.141477 C167.179891,152.341995 168.648434,151.671398 170.490825,150.954072 C170.909821,150.790242 172.534197,149.976963 172.850316,149.845233 C173.267872,149.671537 173.526738,149.492299 174.207991,149.128826 C175.569574,148.40274 176.018328,148.818166 175.478818,149.493544 C174.93934,150.16803 169.041981,153.514378 166.237684,154.682638 C164.702382,155.322349 161.786926,156.836514 157.705594,157.920025 L149.469834,159.84498 C149.046138,160.088354 148.572934,160.254022 148.070266,160.323233 C108.242443,179.20907 91.1266739,184.952525 84.6827539,180.729113 C83.9749943,180.378632 83.2993065,179.935572 82.6738242,179.398902 C81.4228263,178.325284 80.5194728,177.003421 79.9734108,175.571478 C79.8248249,175.330837 79.7048732,175.090038 79.6155766,174.8521 C76.1111584,165.512991 61.3894271,114.246749 61.5778657,102.105948 C61.5778657,102.105948 80.9584454,98.1030114 88.9536033,98.2585391 Z" transform="rotate(-21 118.909 140.148)" opacity="1.00"></path><path id="[clothes]jacket--globalStyle1/people/man3/top/15" fill="#294b67" d="M63.3863535,91.9629397 C70.1324903,83.350076 82.7110289,82.4957917 90.37926,91.9629397 C95.4914141,98.2743716 97.4347943,121.017253 96.2094005,160.191584 L141.241787,157.693684 L141.293049,179.003954 C102.517462,188.597443 79.7826023,190.09117 73.0884708,183.485134 C63.0472736,173.57608 56.6402168,100.575803 63.3863535,91.9629397 Z" transform="rotate(-29 100.948 136.353)" opacity="1.00"></path><path id="shadow--globalStyle1/people/man3/top/15" fill="#000" fill-opacity=".08" d="M63.3863535,91.9629397 C70.1324903,83.350076 82.7110289,82.4957917 90.37926,91.9629397 C95.4914141,98.2743716 97.4347943,121.017253 96.2094005,160.191584 L141.241787,157.693684 L141.293049,179.003954 C102.517462,188.597443 79.7826023,190.09117 73.0884708,183.485134 C63.0472736,173.57608 56.6402168,100.575803 63.3863535,91.9629397 Z" transform="rotate(-29 100.948 136.353)"></path></g></g></svg></g>
</g></g></svg>