<svg width="22" height="22" viewBox="0 0 22 22" fill="none" xmlns="http://www.w3.org/2000/svg">
<path d="M18.0769 19.366C16.1691 20.9773 13.6942 22 11 22C6.99101 22 3.47183 19.7914 1.56406 16.5688L2.27828 13.2764L5.44413 12.6887C6.1789 15.0605 8.39604 16.8008 11 16.8008C12.2632 16.8008 13.4363 16.4012 14.4031 15.6922L17.4453 16.1563L18.0769 19.366Z" fill="#59C36A"/>
<path d="M18.077 19.366L17.4453 16.1562L14.4031 15.6922C13.4363 16.4012 12.2632 16.8008 11 16.8008V22C13.6942 22 16.1691 20.9773 18.077 19.366Z" fill="#00A66C"/>
<path d="M5.19922 11C5.19922 11.5929 5.28945 12.1601 5.44414 12.6887L1.56406 16.5687C0.597266 14.9445 0 13.0367 0 11C0 8.96323 0.597266 7.05546 1.56406 5.43124L4.67814 5.96719L5.44414 9.31132C5.28945 9.83979 5.19922 10.407 5.19922 11Z" fill="#FFDA2D"/>
<path d="M22 11C22 14.3515 20.4489 17.3551 18.077 19.366L14.4031 15.6922C15.1507 15.1507 15.7824 14.4289 16.1949 13.5781H11C10.639 13.5781 10.3555 13.2945 10.3555 12.9336V9.06641C10.3555 8.70543 10.639 8.42188 11 8.42188H21.175C21.4844 8.42188 21.7551 8.64097 21.8066 8.95035C21.9355 9.6207 22 10.3168 22 11Z" fill="#4086F4"/>
<path d="M16.195 13.5781C15.7825 14.4289 15.1507 15.1507 14.4032 15.6922L18.077 19.366C20.4489 17.3551 22 14.3516 22 11C22 10.3168 21.9355 9.6207 21.8066 8.95035C21.7551 8.64097 21.4843 8.42188 21.175 8.42188H11V13.5781H16.195Z" fill="#4175DF"/>
<path d="M18.2574 3.07222C18.2703 3.25269 18.193 3.42031 18.0769 3.54918L15.3184 6.29488C15.0993 6.52691 14.7383 6.55269 14.4805 6.35933C13.4621 5.59883 12.2632 5.19922 11 5.19922C8.39604 5.19922 6.1789 6.93941 5.44413 9.31133L1.56406 5.43125C3.47183 2.20859 6.99101 0 11 0C13.5652 0 16.066 0.945312 18.0254 2.59527C18.1672 2.71133 18.2445 2.89175 18.2574 3.07222Z" fill="#FF641A"/>
<path d="M14.4805 6.35933C14.7383 6.55273 15.0992 6.52691 15.3183 6.29488L18.0769 3.54918C18.193 3.42031 18.2703 3.25273 18.2574 3.07222C18.2444 2.89171 18.1671 2.71133 18.0253 2.59527C16.066 0.945313 13.5652 0 11 0V5.19922C12.2632 5.19922 13.4621 5.59883 14.4805 6.35933Z" fill="#F03800"/>
</svg>
