<svg width="19" height="23" viewBox="0 0 19 23" fill="none" xmlns="http://www.w3.org/2000/svg">
<path d="M9.57404 0.760559C4.61144 0.760559 0.574036 4.2302 0.574036 8.49493C0.574036 9.93585 1.03849 11.342 1.91749 12.562L9.06174 22.4559C9.19859 22.6454 9.43969 22.7606 9.69899 22.7606C9.70098 22.7606 9.70294 22.7606 9.70494 22.7606C9.96649 22.7588 10.2081 22.6401 10.3424 22.4472L17.3046 12.4575C18.1351 11.2633 18.574 9.89309 18.574 8.49493C18.574 4.2302 14.5366 0.760559 9.57404 0.760559ZM16.0173 11.7957L9.68764 20.8779L3.19239 11.8828C2.46074 10.8674 2.06404 9.69591 2.06404 8.49493C2.06404 4.94099 5.43854 2.04103 9.57404 2.04103C13.7095 2.04103 17.079 4.94099 17.079 8.49493C17.079 9.66029 16.7085 10.8018 16.0173 11.7957Z" fill="#DADADA"/>
<path d="M9.57379 4.62775C7.09249 4.62775 5.07379 6.36257 5.07379 8.49494C5.07379 10.6137 7.05964 12.3621 9.57379 12.3621C12.1189 12.3621 14.0738 10.5904 14.0738 8.49494C14.0738 6.36257 12.0551 4.62775 9.57379 4.62775ZM9.57379 11.0817C7.91094 11.0817 6.56379 9.92009 6.56379 8.49494C6.56379 7.07336 7.91959 5.90822 9.57379 5.90822C11.228 5.90822 12.5788 7.07336 12.5788 8.49494C12.5788 9.89929 11.263 11.0817 9.57379 11.0817Z" fill="#DADADA"/>
</svg>
