<svg width="151" height="36" viewBox="0 0 151 36" fill="none" xmlns="http://www.w3.org/2000/svg">
<path d="M13.283 33.1116L16.1294 4.47374L17.5752 28.8621L17.8915 33.1116H21.2348L19.0661 0.778527H13.1475L12.3794 7.47609L10.6174 28.7697L8.85537 7.47609L8.0873 0.778527H2.16866L0 33.1116H3.34335L3.65962 28.8621L5.10539 4.47374L7.95176 33.1116H13.283Z" fill="#262D33"/>
<path d="M29.051 23.1345L26.9727 7.24514L26.0239 0.778527H22.6806L26.4757 27.2916H28.4185L27.6956 33.1116H31.039L35.1052 0.778527H31.7618L30.9486 7.24514L29.051 23.1345Z" fill="#262D33"/>
<path d="M35.9548 25.9059C37.1295 30.4787 41.1506 33.7582 45.9849 33.7582C51.6776 33.7582 56.286 29.093 56.286 23.2731C56.286 19.7165 54.2529 15.9751 50.4577 14.3584C52.6716 12.9265 53.7559 10.617 53.7559 8.16894C53.7559 3.78088 50.1866 0.131866 45.7138 0.131866C41.2409 0.131866 37.6717 3.78088 37.6717 8.16894L41.1054 8.53846V8.16894C41.1054 5.5823 43.1837 3.41136 45.7138 3.41136C48.2439 3.41136 50.3222 5.5823 50.3222 8.16894C50.3222 10.5246 48.6505 12.8803 46.2559 12.8803H44.1325V16.206H45.9849C49.9156 16.206 52.8523 19.3469 52.8523 23.3193C52.8523 27.2916 49.9156 30.5249 45.9849 30.5249C42.6415 30.5249 40.021 28.2154 39.2982 25.0745L35.9548 25.9059Z" fill="#262D33"/>
<path d="M66.0273 16.9912C66.0273 21.7026 69.8225 25.5364 74.4761 25.5364C79.1748 25.5364 82.97 21.7026 82.97 16.9912C82.97 12.2337 79.1748 8.39989 74.4761 8.39989C69.8225 8.39989 66.0273 12.2337 66.0273 16.9912ZM69.2351 16.9912C69.2351 13.9889 71.4942 11.587 74.4761 11.587C77.458 11.587 79.7622 13.9889 79.7622 16.9912C79.7622 19.9936 77.458 22.3493 74.4761 22.3493C71.4942 22.3493 69.2351 19.9936 69.2351 16.9912ZM85.1386 24.8897C82.7441 28.2616 78.9037 30.4326 74.4761 30.4326C67.1117 30.4326 61.2834 24.3817 61.2834 16.9451C61.2834 9.50845 67.1117 3.45755 74.4761 3.45755C78.8134 3.45755 82.6085 5.53611 85.0031 8.76941L87.6236 6.69086C84.5513 2.71851 79.8074 0.131866 74.4761 0.131866C65.3044 0.131866 57.8497 7.66085 57.8497 16.9451C57.8497 26.2293 65.3044 33.7582 74.4761 33.7582C79.9881 33.7582 84.8224 31.0792 87.8495 26.9221L85.1386 24.8897Z" fill="#262D33"/>
<path d="M90.2497 33.1116H93.6834V18.4231H95.1743C95.8972 27.0145 103.081 33.7582 111.756 33.7582C120.927 33.7582 128.382 26.2293 128.382 16.9451C128.382 7.66085 120.927 0.131866 111.756 0.131866C103.171 0.131866 96.1231 6.69086 95.2195 15.0975H93.6834V0.778527H90.2497V33.1116ZM98.5629 16.9451C98.5629 9.50845 104.391 3.45755 111.756 3.45755C119.12 3.45755 124.948 9.50845 124.948 16.9451C124.948 24.3817 119.12 30.4326 111.756 30.4326C104.391 30.4326 98.5629 24.3817 98.5629 16.9451Z" fill="#262D33"/>
<path d="M129.669 25.9059C130.844 30.4787 134.865 33.7582 139.699 33.7582C145.392 33.7582 150 29.093 150 23.2731C150 19.7165 147.967 15.9751 144.172 14.3584C146.386 12.9265 147.47 10.617 147.47 8.16894C147.47 3.78088 143.901 0.131866 139.428 0.131866C134.955 0.131866 131.386 3.78088 131.386 8.16894L134.819 8.53846V8.16894C134.819 5.5823 136.898 3.41136 139.428 3.41136C141.958 3.41136 144.036 5.5823 144.036 8.16894C144.036 10.5246 142.365 12.8803 139.97 12.8803H137.847V16.206H139.699C143.63 16.206 146.566 19.3469 146.566 23.3193C146.566 27.2916 143.63 30.5249 139.699 30.5249C136.356 30.5249 133.735 28.2154 133.012 25.0745L129.669 25.9059Z" fill="#262D33"/>
</svg>
