<svg width="24" height="24" viewBox="0 0 24 24" fill="none" xmlns="http://www.w3.org/2000/svg">
<path d="M23.3911 7.83313C22.6867 6.27681 21.4768 5.40542 20.3063 4.56172C19.434 3.93217 18.6114 3.33771 18.0287 2.48662L17.9207 2.3297C17.578 1.83308 17.1872 1.27 17.1273 0.797378C17.0673 0.31922 16.7177 -0.0130906 16.2207 0.00167876C15.7717 0.0349098 15.4238 0.437375 15.4238 0.922917V17.3723C14.7057 16.9034 13.8214 16.6154 12.8531 16.6154C10.4916 16.6154 8.56871 18.2714 8.56871 20.3077C8.56871 22.344 10.4916 24 12.8531 24C15.2164 24 17.1375 22.344 17.1375 20.3077V9.54822C18.4246 10.0781 20.5308 11.4276 21.11 14.579C21.0021 14.7507 20.8993 14.9372 20.7793 15.083C20.4657 15.4652 20.5017 16.0486 20.8564 16.3846C21.2094 16.7243 21.751 16.6837 22.0646 16.3015C23.1374 14.9889 23.8761 12.9101 23.9909 10.8775C24.0474 9.87499 23.8401 8.82268 23.3911 7.83313Z" fill="#262D33"/>
<path d="M0.856882 1.84617H11.1395C11.6125 1.84617 11.9963 1.43263 11.9963 0.923085C11.9963 0.413542 11.6125 0 11.1395 0H0.856882C0.383883 0 0 0.413542 0 0.923085C0 1.43263 0.383883 1.84617 0.856882 1.84617Z" fill="#262D33"/>
<path d="M0.856882 7.38468H11.1395C11.6125 7.38468 11.9963 6.97114 11.9963 6.4616C11.9963 5.95206 11.6125 5.53851 11.1395 5.53851H0.856882C0.383883 5.53851 0 5.95206 0 6.4616C0 6.97114 0.383883 7.38468 0.856882 7.38468Z" fill="#262D33"/>
<path d="M5.99819 11.077H0.856884C0.383884 11.077 0 11.4906 0 12.0001C0 12.5096 0.383884 12.9232 0.856884 12.9232H5.99819C6.47119 12.9232 6.85507 12.5096 6.85507 12.0001C6.85507 11.4906 6.47119 11.077 5.99819 11.077Z" fill="#262D33"/>
<path d="M5.99819 16.6155H0.856884C0.383884 16.6155 0 17.029 0 17.5386C0 18.0481 0.383884 18.4617 0.856884 18.4617H5.99819C6.47119 18.4617 6.85507 18.0481 6.85507 17.5386C6.85507 17.029 6.47119 16.6155 5.99819 16.6155Z" fill="#262D33"/>
</svg>
