<svg width="23" height="23" viewBox="0 0 23 23" fill="none" xmlns="http://www.w3.org/2000/svg">
<g clip-path="url(#clip0)">
<path d="M8.38081 17.0629C8.37522 17.0354 8.36706 17.0083 8.35632 16.9821C8.34558 16.9563 8.33226 16.9314 8.31679 16.9082C8.30132 16.8846 8.28327 16.8627 8.26351 16.8429C8.24374 16.8231 8.22183 16.8051 8.19819 16.7896C8.17499 16.7742 8.15007 16.7608 8.12386 16.7501C8.09808 16.7394 8.07101 16.7308 8.04351 16.7256C7.98808 16.7144 7.93093 16.7144 7.87593 16.7256C7.84843 16.7308 7.82136 16.7394 7.79515 16.7501C7.76937 16.7608 7.74444 16.7742 7.72124 16.7896C7.69761 16.8051 7.67569 16.8231 7.65593 16.8429C7.63616 16.8627 7.61812 16.8846 7.60265 16.9082C7.58675 16.9314 7.57386 16.9563 7.56312 16.9821C7.55237 17.0083 7.54378 17.0354 7.53862 17.0629C7.53304 17.0904 7.53003 17.1188 7.53003 17.1467C7.53003 17.1746 7.53304 17.203 7.53862 17.2305C7.54378 17.258 7.55237 17.2851 7.56312 17.3108C7.57386 17.337 7.58675 17.362 7.60265 17.3852C7.61812 17.4088 7.63616 17.4307 7.65593 17.4505C7.67569 17.4702 7.69761 17.4883 7.72124 17.5038C7.74444 17.5193 7.76937 17.5326 7.79515 17.5433C7.82136 17.5541 7.84843 17.5627 7.87593 17.5678C7.90343 17.5734 7.93179 17.5764 7.95972 17.5764C7.98765 17.5764 8.01601 17.5734 8.04351 17.5678C8.07101 17.5627 8.09808 17.5541 8.12386 17.5433C8.15007 17.5326 8.17499 17.5192 8.19819 17.5038C8.22183 17.4883 8.24374 17.4702 8.26351 17.4505C8.28327 17.4307 8.30132 17.4088 8.31679 17.3852C8.33226 17.362 8.34558 17.337 8.35632 17.3108C8.36706 17.2851 8.37522 17.258 8.38081 17.2305C8.3864 17.203 8.3894 17.1746 8.3894 17.1467C8.3894 17.1188 8.3864 17.0904 8.38081 17.0629Z" fill="#DADADA"/>
<path d="M20.7319 17.1952C20.7302 17.1909 20.7285 17.1867 20.7267 17.1824C20.3312 16.257 19.4037 15.915 18.306 16.2899L15.3124 17.1177C15.1394 16.5936 14.7077 16.1476 14.0972 15.9211C14.0935 15.9197 14.0897 15.9183 14.0859 15.917L10.7953 14.8002C10.5214 14.4462 9.66347 13.5403 8.05717 13.5403C6.93461 13.5403 5.94156 14.3104 5.37343 15.1498H1.39624C1.15892 15.1498 0.966553 15.3421 0.966553 15.5795V20.9968C0.966553 21.2341 1.15892 21.4265 1.39624 21.4265H3.95103C4.18835 21.4265 4.38072 21.2341 4.38072 20.9968V20.6258H5.57882C5.81613 20.6258 6.00851 20.4335 6.00851 20.1961V20.0725C6.70692 20.1334 6.93663 20.2659 7.57807 20.6358C8.07135 20.9202 8.8169 21.3501 10.1595 21.9538C10.1657 21.9566 10.172 21.9592 10.1784 21.9617C10.436 22.0631 10.9398 22.2223 11.5608 22.2223C11.9931 22.2223 12.4823 22.1451 12.9844 21.9175L19.6012 19.5484C19.613 19.5442 19.6246 19.5394 19.6359 19.5342C20.2683 19.2433 21.2106 18.4233 20.7319 17.1952ZM3.52135 20.5671H1.82593V16.0091H3.52135V20.5671ZM5.14913 19.7664H4.38072V16.0091H5.14913V19.7664ZM19.2926 18.746L12.6787 21.1141C12.6729 21.1161 12.6651 21.1192 12.6593 21.1216C12.6535 21.1239 12.6477 21.1264 12.642 21.129C11.7209 21.5524 10.8453 21.2989 10.5022 21.1655C9.2053 20.582 8.51311 20.1828 8.00737 19.8912C7.30423 19.4857 6.96542 19.2903 6.00851 19.2113V15.7505C6.41581 15.0829 7.20566 14.3996 8.05721 14.3996C9.51755 14.3996 10.1363 15.3494 10.1607 15.3878C10.2131 15.4731 10.2938 15.5374 10.3886 15.5696L13.8036 16.7286C14.349 16.9334 14.6372 17.4004 14.5047 17.8662C14.4436 18.0813 14.3023 18.2597 14.107 18.3686C13.9133 18.4764 13.6894 18.5031 13.476 18.4441L9.62635 17.2241C9.39999 17.1524 9.15859 17.2777 9.08692 17.5039C9.0152 17.7302 9.1405 17.9717 9.36673 18.0434L13.2231 19.2654C13.2272 19.2667 13.2313 19.268 13.2354 19.2691C13.3894 19.3129 13.5461 19.3346 13.7019 19.3346C13.9872 19.3346 14.2692 19.2619 14.5253 19.1193C14.9211 18.8987 15.2074 18.5372 15.3313 18.1012C15.3412 18.0664 15.35 18.0316 15.3576 17.9968L18.5838 17.1031C19.0497 16.9439 19.6614 16.8866 19.9337 17.5138C20.2156 18.2501 19.483 18.6552 19.2926 18.746Z" fill="#DADADA"/>
<path d="M16.3949 5.87556C16.3893 5.84806 16.3812 5.82099 16.37 5.79478C16.3592 5.769 16.3464 5.74408 16.3305 5.72087C16.315 5.69724 16.2969 5.67533 16.2772 5.65556C16.2574 5.6358 16.2355 5.61775 16.2119 5.60228C16.1887 5.58681 16.1637 5.57349 16.138 5.56275C16.1117 5.55201 16.0847 5.54341 16.0576 5.53826C16.0022 5.52708 15.945 5.52708 15.8896 5.53826C15.8621 5.54341 15.835 5.55201 15.8092 5.56275C15.783 5.57349 15.7581 5.58681 15.7349 5.60228C15.7113 5.61775 15.6894 5.6358 15.6696 5.65556C15.6498 5.67533 15.6318 5.69724 15.6163 5.72087C15.6008 5.74408 15.5875 5.769 15.5768 5.79478C15.566 5.82099 15.5575 5.84806 15.5523 5.87556C15.5467 5.90306 15.5437 5.93142 15.5437 5.95935C15.5437 5.98728 15.5467 6.01564 15.5523 6.04314C15.5575 6.07064 15.566 6.09771 15.5768 6.12349C15.5875 6.14971 15.6008 6.17463 15.6163 6.19783C15.6318 6.22146 15.6498 6.24338 15.6696 6.26314C15.6894 6.28291 15.7113 6.30096 15.7349 6.31643C15.7581 6.33189 15.783 6.34521 15.8092 6.35596C15.835 6.3667 15.8621 6.37486 15.8896 6.38045C15.9171 6.38604 15.9455 6.38904 15.9734 6.38904C16.0013 6.38904 16.0297 6.38604 16.0576 6.38045C16.0847 6.37486 16.1117 6.3667 16.138 6.35596C16.1637 6.34521 16.1887 6.33189 16.2119 6.31643C16.2355 6.30096 16.2574 6.28291 16.2772 6.26314C16.2969 6.24338 16.315 6.22146 16.3305 6.19783C16.3464 6.17463 16.3592 6.14971 16.37 6.12349C16.3812 6.09771 16.3893 6.07064 16.3949 6.04314C16.4005 6.01564 16.4031 5.98728 16.4031 5.95935C16.4031 5.93142 16.4005 5.90306 16.3949 5.87556Z" fill="#DADADA"/>
<path d="M22.5367 1.67936H19.9819C19.7446 1.67936 19.5522 1.87173 19.5522 2.10905V2.48004H18.3541C18.1168 2.48004 17.9245 2.67241 17.9245 2.90973V3.03339C17.226 2.97242 16.9963 2.83999 16.3549 2.47011C15.8617 2.18566 15.1161 1.75576 13.7735 1.15209C13.7672 1.14926 13.761 1.14663 13.7546 1.14414C13.3175 0.972181 12.1721 0.633845 10.9487 1.18827L9.21968 1.80736L7.76222 0.349951C7.59443 0.182158 7.32235 0.182158 7.15456 0.349951L2.36964 5.13482C2.21487 5.28964 2.18518 5.55806 2.36964 5.74253L10.546 13.9189C10.6769 14.0498 10.9832 14.0894 11.1537 13.9189L15.5222 9.55055C15.6357 9.56034 15.7536 9.56563 15.8758 9.56563C16.9984 9.56563 17.9914 8.79554 18.5595 7.95619H22.5367C22.774 7.95619 22.9664 7.76382 22.9664 7.5265V2.10905C22.9664 1.87173 22.774 1.67936 22.5367 1.67936ZM7.45835 1.26145L8.43769 2.24079C8.14658 2.42083 7.81 2.51716 7.45835 2.51716C7.10665 2.51716 6.77012 2.42087 6.479 2.24079L7.45835 1.26145ZM4.26053 6.41804L3.28118 5.43865L4.26053 4.45931C4.44057 4.75042 4.5369 5.087 4.5369 5.43865C4.5369 5.79031 4.44061 6.12688 4.26053 6.41804ZM10.8499 13.0074L9.87074 12.0282C10.4686 11.6593 11.2312 11.6593 11.829 12.0282L10.8499 13.0074ZM12.4481 11.4092C11.4986 10.7204 10.2012 10.7204 9.25169 11.4092L4.87958 7.03705C5.21512 6.57556 5.39628 6.02122 5.39628 5.43865C5.39628 4.85604 5.21516 4.30174 4.87958 3.84026L5.86 2.85988C6.32148 3.19543 6.87578 3.37658 7.45839 3.37658C8.041 3.37658 8.5953 3.19543 9.05678 2.85988L9.98616 3.78925C9.78562 3.81886 9.59007 3.88495 9.40771 3.98657C9.09971 4.15818 8.85805 4.41518 8.70758 4.7261C8.22289 4.81586 7.77417 5.05052 7.42217 5.40247C6.46719 6.3575 6.46719 7.91138 7.42221 8.8664C7.89968 9.34387 8.52689 9.58264 9.15415 9.58264C9.78137 9.58264 10.4086 9.34391 10.8861 8.8664C11.1968 8.55573 11.4144 8.17391 11.5234 7.7578L12.9742 8.25018C12.8109 9.00678 12.9782 9.80273 13.4294 10.4279L12.4481 11.4092ZM9.83572 7.18482C9.8395 7.18619 9.84328 7.18757 9.84711 7.18886L10.7063 7.48048C10.6414 7.77332 10.4946 8.04256 10.2785 8.25873C9.65852 8.8786 8.64978 8.87869 8.02992 8.25873C7.40996 7.63882 7.40996 6.63013 8.02992 6.01018C8.17945 5.86056 8.35592 5.74365 8.54821 5.66437C8.62753 6.32445 9.1028 6.91282 9.83572 7.18482ZM14.0485 9.80875C13.8827 9.53847 13.7888 9.23 13.774 8.91517C13.9798 9.06397 14.2314 9.20976 14.5318 9.32548L14.0485 9.80875ZM17.9244 7.35519C17.5172 8.02284 16.7273 8.70617 15.8758 8.70617C15.7164 8.70617 15.5671 8.69482 15.4275 8.67463C15.4269 8.67454 15.4264 8.67446 15.4258 8.67437C14.4979 8.53958 13.9987 8.01218 13.8342 7.80335C13.8254 7.79046 13.7881 7.74161 13.7825 7.73348C13.7325 7.64402 13.6504 7.57209 13.5457 7.53656L10.1294 6.37705C9.58418 6.17243 9.29599 5.70557 9.42808 5.23997C9.42816 5.23966 9.42825 5.23936 9.42834 5.23906C9.42846 5.23872 9.42855 5.23833 9.42864 5.23799C9.49004 5.02357 9.63106 4.84573 9.82597 4.73715C10.0196 4.62925 10.2434 4.60248 10.4569 4.66165L14.3066 5.88157C14.5329 5.95338 14.7743 5.82799 14.846 5.60176C14.9177 5.37553 14.7924 5.13405 14.5662 5.06233L11.5045 4.0921L11.4777 4.06537C11.4775 4.06511 11.4772 4.06481 11.4769 4.06456L9.8918 2.47944L11.2542 1.99157C11.2588 1.9899 11.2645 1.98779 11.2691 1.98594C11.2702 1.98547 11.2725 1.98461 11.2736 1.98414C11.2794 1.98177 11.2852 1.97928 11.2909 1.97666C12.212 1.55333 13.0875 1.80672 13.4307 1.94018C14.7276 2.52374 15.4199 2.92288 15.9256 3.2145C16.6287 3.62 16.9675 3.81538 17.9244 3.8944V7.35519ZM19.5522 7.09673H18.7838V3.33942H19.5522V7.09673ZM22.107 7.09673H20.4116V2.53874H22.107V7.09673Z" fill="#DADADA"/>
</g>
<defs>
<clipPath id="clip0">
<rect width="22" height="22" fill="white" transform="translate(0.966583 0.223312)"/>
</clipPath>
</defs>
</svg>
