<svg width="21" height="20" viewBox="0 0 21 20" fill="none" xmlns="http://www.w3.org/2000/svg">
<mask id="path-1-inside-1" fill="white">
<path fill-rule="evenodd" clip-rule="evenodd" d="M9.97798 0C9.04245 0 8.28405 0.758401 8.28405 1.69394C8.28405 1.78596 8.29138 1.87627 8.3055 1.96431C6.25868 2.6465 4.78644 4.54292 4.78644 6.77564C4.78644 7.10977 4.81941 7.43637 4.88235 7.7525C5.006 8.37357 4.98761 9.03467 4.66569 9.58L0.2954 16.9832C-0.491646 18.3164 0.469481 19.9999 2.0177 19.9999H18.0108C19.559 19.9999 20.5202 18.3164 19.7331 16.9832L15.3167 9.50188C14.9997 8.96489 14.9769 8.31488 15.0923 7.70207C15.1489 7.40168 15.1785 7.09204 15.1785 6.77564C15.1785 4.5661 13.7367 2.68592 11.723 1.98595C11.7395 1.89108 11.7481 1.79351 11.7481 1.69394C11.7481 0.758401 10.9897 0 10.0541 0H9.97798Z"/>
</mask>
<path d="M8.3055 1.96431L8.93789 3.86169L10.5493 3.32463L10.2803 1.64755L8.3055 1.96431ZM4.88235 7.7525L6.84386 7.362L4.88235 7.7525ZM4.66569 9.58L6.38799 10.5967L6.38799 10.5967L4.66569 9.58ZM0.2954 16.9832L-1.42689 15.9665L-1.42689 15.9665L0.2954 16.9832ZM19.7331 16.9832L21.4554 15.9665L21.4554 15.9665L19.7331 16.9832ZM15.3167 9.50188L17.039 8.48517V8.48517L15.3167 9.50188ZM15.0923 7.70207L17.0578 8.07224L17.0578 8.07224L15.0923 7.70207ZM11.723 1.98595L9.75251 1.64356L9.46168 3.31729L11.0663 3.87507L11.723 1.98595ZM10.284 1.69394C10.284 1.86297 10.147 2 9.97798 2V-2C7.93788 -2 6.28405 -0.346168 6.28405 1.69394H10.284ZM10.2803 1.64755C10.2829 1.66386 10.284 1.67947 10.284 1.69394H6.28405C6.28405 1.89244 6.29989 2.08867 6.33075 2.28106L10.2803 1.64755ZM7.67312 0.0669167C4.85741 1.00538 2.78644 3.63266 2.78644 6.77564H6.78644C6.78644 5.45318 7.65995 4.28763 8.93789 3.86169L7.67312 0.0669167ZM2.78644 6.77564C2.78644 7.24168 2.83246 7.69907 2.92084 8.14301L6.84386 7.362C6.80636 7.17368 6.78644 6.97786 6.78644 6.77564H2.78644ZM2.92084 8.14301C2.9537 8.30804 2.95724 8.42961 2.94997 8.5066C2.94318 8.57853 2.92985 8.58623 2.9434 8.56328L6.38799 10.5967C7.05716 9.46315 7.01822 8.23784 6.84386 7.362L2.92084 8.14301ZM2.9434 8.56328L-1.42689 15.9665L2.01769 17.9999L6.38799 10.5967L2.9434 8.56328ZM-1.42689 15.9665C-3.00099 18.633 -1.07873 21.9999 2.0177 21.9999V17.9999H2.01769L-1.42689 15.9665ZM2.0177 21.9999H18.0108V17.9999H2.0177V21.9999ZM18.0108 21.9999C21.1072 21.9999 23.0295 18.633 21.4554 15.9665L18.0108 17.9999V21.9999ZM21.4554 15.9665L17.039 8.48517L13.5944 10.5186L18.0108 17.9999L21.4554 15.9665ZM17.039 8.48517C17.0524 8.50782 17.0394 8.50021 17.0323 8.42965C17.0247 8.35422 17.0271 8.23493 17.0578 8.07224L13.1269 7.3319C12.9639 8.19713 12.9355 9.40248 13.5944 10.5186L17.039 8.48517ZM17.0578 8.07224C17.1372 7.65047 17.1785 7.21691 17.1785 6.77564H13.1785C13.1785 6.96716 13.1606 7.15289 13.1269 7.33191L17.0578 8.07224ZM17.1785 6.77564C17.1785 3.6654 15.1501 1.05984 12.3797 0.0968269L11.0663 3.87507C12.3233 4.31199 13.1785 5.4668 13.1785 6.77564H17.1785ZM9.74806 1.69394C9.74806 1.67825 9.74943 1.66127 9.75251 1.64356L13.6935 2.32833C13.7295 2.1209 13.7481 1.90878 13.7481 1.69394H9.74806ZM10.0541 2C9.88509 2 9.74806 1.86297 9.74806 1.69394H13.7481C13.7481 -0.346167 12.0942 -2 10.0541 -2V2ZM9.97798 2H10.0541V-2H9.97798V2Z" fill="#262D33" mask="url(#path-1-inside-1)"/>
</svg>
