<svg width="24" height="24" viewBox="0 0 24 24" fill="none" xmlns="http://www.w3.org/2000/svg">
<path d="M21.1444 14.3132C20.8698 14.0133 20.4246 14.0133 20.15 14.3132C19.8754 14.6132 19.8754 15.0996 20.15 15.3996L21.5684 16.9492C21.7057 17.0992 21.8856 17.1741 22.0655 17.1741C22.2455 17.1741 22.4254 17.0991 22.5627 16.9492C22.8373 16.6492 22.8373 16.1628 22.5627 15.8628L21.1444 14.3132Z" fill="#262D33"/>
<path d="M20.6472 7.95624C20.8271 7.95624 21.0071 7.88121 21.1444 7.73127L22.5627 6.18168C22.8373 5.88174 22.8373 5.39533 22.5627 5.09534C22.2882 4.79535 21.843 4.79535 21.5684 5.09534L20.15 6.64493C19.8754 6.94487 19.8754 7.43128 20.15 7.73127C20.2873 7.88127 20.4672 7.95624 20.6472 7.95624Z" fill="#262D33"/>
<path d="M23.2968 10.2541H21.2909C20.9026 10.2541 20.5877 10.598 20.5877 11.0222C20.5877 11.4465 20.9026 11.7904 21.2909 11.7904H23.2968C23.6851 11.7904 23.9999 11.4465 23.9999 11.0222C23.9999 10.598 23.6851 10.2541 23.2968 10.2541Z" fill="#262D33"/>
<path d="M18.7147 0.0979656C18.4927 -0.037897 18.2208 -0.0320589 18.0038 0.113073L9.95142 5.50072H6.37669C5.61323 5.45663 4.88695 5.7473 4.32942 6.32066C4.12191 6.534 3.94697 6.78027 3.80756 7.04862H2.03845C0.914437 7.04862 0 8.04764 0 9.27563V12.7688C0 13.9968 0.914437 14.9958 2.03845 14.9958H3.80405C4.08717 15.5488 4.51458 16.0072 5.03419 16.3106L2.58445 20.9462C2.49047 21.124 2.46558 21.3356 2.51531 21.5337C2.56509 21.7317 2.68537 21.8997 2.8493 22.0002L5.95158 23.9016C6.06033 23.9683 6.17845 24 6.29498 24C6.53813 24 6.77442 23.862 6.9045 23.6158L10.4026 16.9963L18.0118 21.9366C18.1224 22.0085 18.2467 22.0444 18.371 22.0444C18.4909 22.0444 18.6109 22.011 18.7187 21.9439C18.9384 21.8073 19.0741 21.5524 19.0741 21.2762V0.768163C19.0741 0.49019 18.9367 0.233879 18.7147 0.0979656ZM2.03845 13.4595C1.68984 13.4595 1.40625 13.1497 1.40625 12.7688V9.27563C1.40625 8.89477 1.68984 8.58495 2.03845 8.58495H3.42848C3.42839 8.59642 3.42769 8.60784 3.42769 8.61931V13.4251C3.42769 13.4367 3.42834 13.448 3.42848 13.4595H2.03845ZM4.83394 8.61931C4.83394 8.16958 5.00133 7.73951 5.29317 7.43941C5.57095 7.15381 5.93339 7.01016 6.31425 7.03566C6.32845 7.03659 9.44658 7.03705 9.44658 7.03705V15.1704H6.37992C5.51137 15.1022 4.83394 14.3395 4.83394 13.4251V8.61931ZM6.03394 22.1905L4.15819 21.0409L6.4072 16.7851C6.42075 16.7595 6.43242 16.7332 6.44297 16.7067H8.93189L6.03394 22.1905ZM17.6679 19.9262L10.8528 15.5015V6.69921L17.6679 2.13939V19.9262Z" fill="#262D33"/>
</svg>
