<svg width="21" height="20" viewBox="0 0 21 20" fill="none" xmlns="http://www.w3.org/2000/svg">
<path d="M13.9369 14.2959C14.3684 14.2959 14.7182 13.9461 14.7182 13.5146C14.7182 13.0831 14.3684 12.7334 13.9369 12.7334C13.5055 12.7334 13.1557 13.0831 13.1557 13.5146C13.1557 13.9461 13.5055 14.2959 13.9369 14.2959Z" fill="#DADADA"/>
<path d="M10.0307 18.4375H3.85888C2.99732 18.4375 2.29638 17.7366 2.29638 16.875V10.4688C2.29638 9.60719 2.99732 8.90625 3.85888 8.90625H15.1088C15.9704 8.90625 16.6713 9.60719 16.6713 10.4688V12.0313C16.6713 12.4627 17.0211 12.8125 17.4526 12.8125C17.8841 12.8125 18.2338 12.4627 18.2338 12.0313V10.4688C18.2338 8.74563 16.832 7.34375 15.1088 7.34375H14.1699V4.58852C14.1699 2.0584 12.0671 0 9.48241 0C6.89773 0 4.79493 2.0584 4.79493 4.58852V7.34375H3.85888C2.13576 7.34375 0.733887 8.74563 0.733887 10.4688V16.875C0.733887 18.5981 2.13576 20 3.85888 20H10.0307C10.4622 20 10.812 19.6502 10.812 19.2188C10.812 18.7873 10.4622 18.4375 10.0307 18.4375ZM6.35742 4.58852C6.35742 2.91996 7.75929 1.5625 9.48241 1.5625C11.2055 1.5625 12.6074 2.91996 12.6074 4.58852V7.34375H6.35742V4.58852Z" fill="#DADADA"/>
<path d="M20.4074 12.7231C20.0565 12.4719 19.5684 12.5528 19.3174 12.9036L15.4666 18.2825C15.3614 18.4045 15.2296 18.4308 15.159 18.4355C15.0866 18.4403 14.9471 18.4311 14.8243 18.3159L12.3358 15.8874C12.0269 15.586 11.5323 15.5921 11.231 15.9008C10.9296 16.2096 10.9356 16.7042 11.2445 17.0056L13.7374 19.4385C13.7398 19.4407 13.7421 19.443 13.7445 19.4452C14.1182 19.801 14.617 19.999 15.1303 19.999C15.1744 19.999 15.2186 19.9975 15.2629 19.9946C15.822 19.9573 16.3441 19.6854 16.6951 19.2486C16.7042 19.2372 16.7129 19.2257 16.7214 19.2139L20.5878 13.8131C20.839 13.4623 20.7582 12.9743 20.4074 12.7231Z" fill="#DADADA"/>
<path d="M10.9683 14.2959C11.3997 14.2959 11.7495 13.9461 11.7495 13.5146C11.7495 13.0831 11.3997 12.7334 10.9683 12.7334C10.5368 12.7334 10.187 13.0831 10.187 13.5146C10.187 13.9461 10.5368 14.2959 10.9683 14.2959Z" fill="#DADADA"/>
<path d="M5.10889 14.2959C5.54036 14.2959 5.89013 13.9461 5.89013 13.5146C5.89013 13.0831 5.54036 12.7334 5.10889 12.7334C4.67741 12.7334 4.32764 13.0831 4.32764 13.5146C4.32764 13.9461 4.67741 14.2959 5.10889 14.2959Z" fill="#DADADA"/>
<path d="M8.03857 14.2959C8.47005 14.2959 8.81982 13.9461 8.81982 13.5146C8.81982 13.0831 8.47005 12.7334 8.03857 12.7334C7.6071 12.7334 7.25732 13.0831 7.25732 13.5146C7.25732 13.9461 7.6071 14.2959 8.03857 14.2959Z" fill="#DADADA"/>
</svg>
