<svg width="16" height="16" viewBox="0 0 16 16" fill="none" xmlns="http://www.w3.org/2000/svg">
<path d="M15.571 11.8573L13.0476 9.32175C12.4749 8.74289 11.5453 8.74177 10.9712 9.31926L10.9687 9.32175L9.52297 10.7796C9.41358 10.8902 9.2412 10.9055 9.1144 10.8159C8.32309 10.2582 7.58234 9.63092 6.90084 8.94143C6.29048 8.32733 5.729 7.6658 5.22156 6.96283C5.12959 6.83655 5.14295 6.66146 5.25297 6.55084L6.73467 5.05671C7.30673 4.47875 7.30673 3.5429 6.73467 2.96494L4.21131 0.420421C3.62984 -0.14014 2.71393 -0.14014 2.13246 0.420421L1.33325 1.22632C0.126265 2.42974 -0.304617 4.21664 0.219713 5.84452C0.610975 7.03552 1.16403 8.16609 1.86305 9.20402C2.49236 10.1556 3.21432 11.0413 4.01826 11.8482C4.89228 12.7358 5.86044 13.5238 6.90531 14.198C8.05395 14.9538 9.31513 15.5194 10.641 15.8732C10.9818 15.958 11.3316 16.0005 11.6826 16C12.8861 15.9926 14.0374 15.5041 14.884 14.6417L15.571 13.949C16.143 13.3711 16.143 12.4352 15.571 11.8573ZM14.9351 13.3315L14.9333 13.3333L14.9378 13.3197L14.2508 14.0124C13.3682 14.9137 12.0827 15.2846 10.8609 14.9904C9.62989 14.6581 8.45968 14.1293 7.3946 13.4239C6.40508 12.7861 5.48807 12.0407 4.66019 11.2008C3.89845 10.4383 3.21411 9.601 2.61722 8.7015C1.96434 7.73361 1.44759 6.67924 1.08164 5.56835C0.662119 4.26333 1.00976 2.83134 1.97965 1.86928L2.77886 1.06338C3.00106 0.838308 3.36212 0.837513 3.58527 1.06158L3.58706 1.06338L6.11042 3.6079C6.33363 3.83197 6.33442 4.19605 6.11221 4.42107L6.11042 4.42288L4.62872 5.917C4.20358 6.34104 4.15012 7.01488 4.50302 7.50169C5.03893 8.24334 5.63198 8.94122 6.27659 9.58895C6.99529 10.3168 7.7766 10.9789 8.61137 11.5676C9.09372 11.9068 9.74764 11.8496 10.1649 11.4317L11.5972 9.96477C11.8194 9.73969 12.1805 9.7389 12.4036 9.96296L12.4054 9.96477L14.9333 12.5184C15.1565 12.7424 15.1573 13.1064 14.9351 13.3315Z" fill="#6A6A6A"/>
</svg>
