<svg width="23" height="23" viewBox="0 0 23 23" fill="none" xmlns="http://www.w3.org/2000/svg">
<path d="M3.41408 21.5553C4.08048 22.1966 4.98384 22.5609 5.92873 22.5695V22.5704C5.92873 22.6785 5.9736 22.7822 6.05348 22.8587C6.13336 22.9351 6.2417 22.9781 6.35467 22.9781H14.0216C14.1346 22.9781 14.2429 22.9351 14.3228 22.8587C14.4027 22.7822 14.4476 22.6785 14.4476 22.5704V15.7998C14.6356 15.8544 14.8333 15.8719 15.0287 15.8511C15.224 15.8304 15.4129 15.7718 15.5839 15.679C15.7548 15.5861 15.9043 15.461 16.0231 15.3112C16.142 15.1613 16.2277 14.9899 16.2752 14.8074C16.4804 14.0247 16.5243 13.2113 16.4043 12.4126L16.2669 11.4923L17.171 11.1214C17.2228 11.1002 17.2697 11.0692 17.309 11.0305C17.3483 10.9917 17.3791 10.9459 17.3997 10.8956C17.4203 10.8454 17.4303 10.7917 17.429 10.7377C17.4278 10.6837 17.4154 10.6305 17.3925 10.5812L16.7677 9.23575L18.8887 7.2246L20.0813 6.7965C20.141 6.77509 20.1948 6.74115 20.2389 6.69717L22.8478 4.098C22.8871 4.0589 22.9178 4.01269 22.9381 3.9621C22.9585 3.9115 22.9681 3.85752 22.9664 3.80332C22.9647 3.74913 22.9517 3.6958 22.9282 3.64646C22.9047 3.59712 22.8712 3.55277 22.8296 3.51599L20.7531 1.68128C20.6707 1.60844 20.5615 1.56967 20.4494 1.57342C20.3372 1.57716 20.2312 1.6231 20.1542 1.70126L17.5453 4.35139C17.5029 4.39446 17.4708 4.44588 17.4513 4.50204L17.0583 5.63054L15.6846 6.90327C15.6601 6.85347 15.6252 6.80894 15.5822 6.77237C15.5392 6.7358 15.4889 6.70795 15.4344 6.6905C15.4344 6.6905 12.7885 5.85412 12.7438 5.85412V4.74897L13.6542 3.44153C13.8929 3.08951 13.977 2.66167 13.8883 2.25071C13.7997 1.83975 13.5454 1.47878 13.1807 1.24601C12.8159 1.01324 12.37 0.927424 11.9396 1.00715C11.5092 1.08688 11.129 1.32573 10.8813 1.67195L10.812 1.77159H9.81854C9.4217 1.77159 9.03198 1.87239 8.68915 2.06369C8.34632 2.255 8.06267 2.52996 7.86715 2.8605C7.67163 3.19105 7.57125 3.56534 7.57625 3.94515C7.58125 4.32497 7.69146 4.69672 7.89562 5.02244L8.42012 5.85917C8.39619 5.86254 8.3726 5.86786 8.34962 5.87507L5.79397 6.6905C5.70858 6.71774 5.63439 6.77017 5.58207 6.84028L3.45236 9.69428L1.74454 11.983C1.58651 12.1946 1.47528 12.4348 1.41768 12.689C1.36007 12.9432 1.3573 13.2059 1.40954 13.4612C1.46178 13.7164 1.56792 13.9588 1.72146 14.1734C1.87501 14.388 2.07272 14.5703 2.30247 14.7091C1.59067 15.2808 1.13754 16.0939 1.03801 16.9781L0.989562 17.3953C0.928314 17.9119 0.989888 18.4351 1.16968 18.9257C1.34947 19.4163 1.64282 19.8617 2.02779 20.2285L3.41408 21.5553ZM16.1513 10.6526V9.91597L16.4388 10.5348L16.1513 10.6526ZM17.7253 6.14732C17.7746 6.10175 17.8116 6.04547 17.8332 5.98327L18.2295 4.84539L20.4849 2.55435L21.9323 3.83324L19.6914 6.06547L18.5041 6.49163C18.4478 6.51187 18.3967 6.54325 18.3539 6.58373L16.3976 8.43882L16.053 7.69648L17.7253 6.14732ZM13.5957 22.1627H8.06131C8.79842 21.786 9.37635 21.1764 9.69672 20.4377L10.1881 19.3087H13.5957V22.1627ZM13.5957 18.4932H10.5431L10.5803 18.4076C10.6825 18.1707 10.8463 17.9628 11.0561 17.8035C11.2658 17.6442 11.5146 17.5389 11.7789 17.4976C12.1711 17.436 12.5416 17.2837 12.8583 17.0537C13.1749 16.8238 13.4281 16.5233 13.5957 16.1783V18.4932ZM13.2161 10.3246L13.5546 11.1346L10.1956 14.3195L9.46788 13.7971L13.2161 10.3246ZM8.77775 13.3017C8.71459 13.262 8.64722 13.2288 8.57676 13.2026L7.26981 12.9246C7.35286 12.7878 7.42107 12.6431 7.47335 12.4929L7.57542 12.1998C7.68117 11.8952 7.88451 11.6303 8.15653 11.4426C8.42856 11.255 8.75544 11.1541 9.09076 11.1544H9.35011C9.55995 11.1538 9.76782 11.1931 9.96169 11.27C10.1556 11.3469 10.3316 11.4598 10.4795 11.6022L10.5448 11.6647L8.77775 13.3017ZM13.4296 12.4008L13.3267 13.1889C13.2806 13.136 13.2328 13.0844 13.1816 13.0354L12.9719 12.8348L13.4296 12.4008ZM15.2994 9.5898C15.2994 9.5898 15.3009 10.7854 15.3038 10.8044L15.561 12.528C15.6652 13.2223 15.6271 13.9294 15.4488 14.6097C15.4219 14.7129 15.3655 14.8069 15.286 14.8813C15.2066 14.9556 15.107 15.0074 14.9986 15.0308C14.8902 15.0541 14.7771 15.0482 14.672 15.0137C14.5669 14.9791 14.4739 14.9173 14.4033 14.8351C14.3837 14.7969 14.358 14.7619 14.3271 14.7314L14.162 14.4941C14.0821 14.3794 14.048 14.241 14.0658 14.1042L14.4444 11.2051C14.4534 11.1366 14.444 11.0671 14.4173 11.0031L13.7738 9.46325L13.7726 9.46025L13.7236 9.34303L14.5816 9.01451L14.5846 9.01334L15.0384 8.83961L15.2994 9.5898ZM8.70613 3.11944C8.83601 2.95449 9.00405 2.82057 9.19705 2.7282C9.39006 2.63582 9.6028 2.5875 9.81859 2.58701H11.04C11.1102 2.58701 11.1792 2.57043 11.241 2.53875C11.3028 2.50708 11.3555 2.46128 11.3944 2.40543L11.5902 2.12426C11.7117 1.95592 11.8974 1.84002 12.1073 1.80155C12.3173 1.76308 12.5346 1.80512 12.7124 1.91861C12.8902 2.03209 13.0143 2.20794 13.058 2.40821C13.1016 2.60849 13.0613 2.81716 12.9456 2.98922L12.0899 4.21787H10.1881C10.1322 4.21787 10.0768 4.22841 10.0251 4.2489C9.97346 4.26939 9.92651 4.29942 9.88695 4.33728L8.99487 5.19113L8.62616 4.6029C8.48326 4.37625 8.4145 4.11383 8.42875 3.84944C8.44301 3.58506 8.53961 3.33081 8.70613 3.11944ZM11.8919 5.03329V6.26184C11.8919 6.58623 11.7573 6.89735 11.5176 7.12673C11.278 7.35611 10.953 7.48498 10.6141 7.48498C10.2752 7.48498 9.95017 7.35611 9.71053 7.12673C9.47089 6.89735 9.33626 6.58623 9.33626 6.26184V6.01757L10.3646 5.03329H11.8919ZM6.19494 7.42214L8.5291 6.67735C8.62878 7.13612 8.89053 7.54801 9.2703 7.8437C9.65007 8.13939 10.1247 8.30082 10.6142 8.30082C11.1037 8.30082 11.5783 8.13939 11.9581 7.8437C12.3379 7.54801 12.5996 7.13612 12.6993 6.67735L14.9866 7.40721L15.0329 7.50679L14.1927 8.28511L13.0116 8.73737C12.9596 8.75725 12.9123 8.78674 12.8722 8.82414C12.8322 8.86153 12.8002 8.90612 12.7782 8.95533C12.7562 9.00455 12.7445 9.05745 12.7438 9.11099C12.7431 9.16454 12.7535 9.21768 12.7743 9.2674L12.8742 9.50668L11.1572 11.0975L11.0821 11.0256C10.8552 10.8072 10.5853 10.6341 10.288 10.5162C9.99068 10.3983 9.6719 10.3381 9.35011 10.339H9.09076C8.58346 10.3386 8.08858 10.4892 7.67467 10.77C7.26077 11.0507 6.94832 11.4478 6.78061 11.9061V10.339C6.78061 10.2515 6.7512 10.1663 6.69672 10.096C6.64225 10.0258 6.56561 9.97413 6.47812 9.94877C6.39063 9.92341 6.29693 9.92566 6.21089 9.9552C6.12484 9.98474 6.051 10.04 6.00029 10.1128L5.43661 10.9222L4.35535 9.88717L6.19494 7.42214ZM5.92873 11.6855V12.6394L5.35014 12.5163L5.92873 11.6855ZM2.25855 13.3603C2.21821 13.2063 2.21334 13.0458 2.24429 12.8898C2.27524 12.7338 2.34125 12.5861 2.43776 12.4569L3.85338 10.5599L4.95471 11.614L4.29652 12.5591C4.25812 12.6142 4.23433 12.6774 4.22722 12.7433C4.2201 12.8092 4.22986 12.8758 4.25566 12.9373C4.28147 12.9987 4.32253 13.0533 4.3753 13.0961C4.42807 13.139 4.49096 13.1689 4.55853 13.1833L8.30229 13.9796L9.61025 14.9186L9.06291 15.7044L8.23233 15.9694L7.56088 15.0054C7.52857 14.959 7.48667 14.9194 7.43776 14.8892C7.38884 14.8589 7.33397 14.8385 7.27652 14.8294L3.18172 14.1761C2.96154 14.141 2.75687 14.0451 2.59286 13.9002C2.42885 13.7553 2.31265 13.5676 2.25855 13.3603ZM7.02787 17.3232L6.35467 16.6815L7.1753 15.9212L7.70432 16.6806L7.70485 16.6813L7.02787 17.3232ZM7.21113 18.6455L6.77417 19.0792L4.39379 16.8066L4.82011 16.3761L7.21113 18.6455ZM1.83628 17.4853L1.88468 17.0682C1.93282 16.6408 2.08958 16.2313 2.34126 15.8753C2.59295 15.5194 2.93189 15.2278 3.32846 15.0262L6.38923 15.5145L5.74802 16.1085L5.11055 15.5035C5.07025 15.4652 5.02238 15.4351 4.96975 15.4148C4.91711 15.3945 4.86077 15.3845 4.80403 15.3853C4.7473 15.3862 4.69131 15.3979 4.63936 15.4197C4.58741 15.4416 4.54054 15.4731 4.5015 15.5125L3.48989 16.5342C3.41347 16.6114 3.37157 16.7141 3.37313 16.8204C3.37469 16.9267 3.41959 17.0283 3.49825 17.1033L6.47931 19.9493C6.55916 20.0256 6.66735 20.0684 6.78013 20.0684H6.78429C6.84083 20.0679 6.89669 20.0566 6.94862 20.0352C7.00055 20.0137 7.04751 19.9826 7.08676 19.9437L8.11594 18.9221C8.19364 18.8449 8.2365 18.7416 8.23525 18.6345C8.23399 18.5273 8.18872 18.425 8.10923 18.3495L7.63282 17.8974L9.02698 16.5754L9.47097 16.4337C9.56081 16.4051 9.63811 16.3486 9.69065 16.2731L10.3615 15.3102L12.3669 13.4086L12.5794 13.612C12.7542 13.7802 12.886 13.9848 12.9644 14.2099C13.0428 14.435 13.0657 14.6744 13.0312 14.9093L12.9577 15.4014C12.9106 15.7232 12.7572 16.0221 12.52 16.2546C12.2828 16.487 11.9741 16.6407 11.6391 16.6933C11.2324 16.7569 10.8494 16.919 10.5265 17.1641C10.2036 17.4093 9.95149 17.7294 9.79415 18.094L8.91032 20.1241C8.70089 20.6076 8.34621 21.0207 7.89124 21.311C7.43626 21.6014 6.90148 21.7559 6.35467 21.7549H5.97414C5.61042 21.7559 5.2501 21.6878 4.91406 21.5546C4.57802 21.4213 4.27291 21.2256 4.01641 20.9788L2.63024 19.6519C2.33583 19.3714 2.11149 19.0308 1.974 18.6556C1.83651 18.2804 1.78943 17.8803 1.83628 17.4853Z" fill="#DADADA"/>
</svg>
