<svg width="23" height="16" viewBox="0 0 23 16" fill="none" xmlns="http://www.w3.org/2000/svg">
<path d="M15.1375 6.74491C14.8344 6.40915 14.3435 6.40915 14.0405 6.74491L12.4637 8.49157L10.8878 6.74491C10.5847 6.40915 10.0936 6.40915 9.79046 6.74491C9.48745 7.08066 9.48745 7.62471 9.79046 7.96047L11.3665 9.70713L9.79046 11.4534C9.48745 11.7892 9.48745 12.3332 9.79046 12.669C9.94197 12.8369 10.1404 12.9209 10.3392 12.9209C10.5377 12.9209 10.7362 12.837 10.8877 12.669L12.4645 10.9228L14.0404 12.669C14.1919 12.8369 14.3908 12.9209 14.5894 12.9209C14.7878 12.9209 14.9869 12.837 15.1384 12.669C15.4414 12.3332 15.4414 11.7892 15.1384 11.4534L13.5615 9.70713L15.1384 7.96047C15.4405 7.62459 15.4405 7.08066 15.1375 6.74491Z" fill="#DADADA" fill-opacity="0.7"/>
<path d="M8.09839 11.541C8.44146 10.9049 8.66905 10.1004 8.7132 9.30434C8.74123 8.79341 8.63848 8.25707 8.41599 7.75273C8.06697 6.96045 7.46745 6.51539 6.8883 6.08538C6.45607 5.76451 6.04761 5.46153 5.75889 5.0287L5.70709 4.95154C5.5364 4.69749 5.34363 4.40956 5.31306 4.16773C5.28249 3.92309 5.08209 3.74902 4.863 3.76313C4.64051 3.78007 4.46812 3.98425 4.46812 4.23172V12.6155C4.11231 12.3765 3.67414 12.2297 3.19435 12.2297C2.02417 12.2297 1.07138 13.0738 1.07138 14.1116C1.07138 15.1495 2.02417 15.9935 3.19435 15.9935C4.36452 15.9935 5.31731 15.1495 5.31731 14.1116V8.6278C5.95505 8.89785 6.9987 9.58568 7.28572 11.1919C7.23222 11.2794 7.18127 11.3735 7.12183 11.4487C6.96643 11.6435 6.98341 11.9409 7.16004 12.1121C7.33497 12.2852 7.60332 12.2645 7.75872 12.0698C7.87251 11.9267 7.97356 11.7593 8.07037 11.5842C8.08056 11.5711 8.08993 11.557 8.09839 11.541Z" fill="#DADADA" fill-opacity="0.7"/>
<path d="M19.8528 8.75115C19.464 8.75115 19.1336 8.80715 18.8634 8.91855C18.7013 8.9863 18.4766 9.1242 18.1871 9.33357L18.528 7.02752H22.416V5.26683H17.178L16.5098 11.0941L18.1871 11.1814C18.3356 10.8664 18.5564 10.6503 18.8482 10.534C19.0149 10.4708 19.2109 10.4394 19.4387 10.4394C19.919 10.4394 20.2725 10.6253 20.4998 10.9958C20.7266 11.3674 20.8402 11.8219 20.8402 12.3602C20.8402 12.9087 20.719 13.363 20.4766 13.7247C20.2342 14.0862 19.8816 14.2664 19.419 14.2664C19.017 14.2664 18.7119 14.1444 18.5017 13.8993C18.2926 13.6541 18.1502 13.3061 18.0764 12.855H16.2118C16.2774 13.8444 16.6007 14.6077 17.1826 15.1472C17.7644 15.685 18.5079 15.9541 19.4129 15.9541C20.5367 15.9541 21.3807 15.5709 21.9453 14.8046C22.509 14.0385 22.7907 13.1683 22.7907 12.1922C22.7907 11.0718 22.4983 10.2189 21.9125 9.63156C21.3262 9.04386 20.6403 8.75115 19.8528 8.75115Z" fill="#DADADA" fill-opacity="0.7"/>
</svg>
