<svg width="17" height="18" viewBox="0 0 17 18" fill="none" xmlns="http://www.w3.org/2000/svg">
<path d="M6.57763 9C5.33715 9 4.32764 10.0095 4.32764 11.25C4.32764 12.4905 5.33715 13.5 6.57763 13.5C7.81812 13.5 8.82763 12.4905 8.82763 11.25C8.82763 10.0095 7.81815 9 6.57763 9ZM6.57763 12.75C5.75037 12.75 5.07762 12.0773 5.07762 11.25C5.07762 10.4227 5.75037 9.74999 6.57763 9.74999C7.40489 9.74999 8.07764 10.4227 8.07764 11.25C8.07764 12.0773 7.40489 12.75 6.57763 12.75Z" fill="#6A6A6A"/>
<path d="M12.8928 12.6308L11.7108 11.7045C11.725 11.5553 11.734 11.403 11.734 11.2507C11.734 11.0962 11.725 10.9425 11.71 10.788L12.9033 9.85198C13.1672 9.62849 13.231 9.25499 13.0585 8.96773L11.7805 6.75897C11.6065 6.47023 11.2525 6.3457 10.927 6.4672L9.53726 7.02594C9.28751 6.84745 9.02725 6.69593 8.74976 6.56543L8.539 5.06918C8.47754 4.74525 8.18279 4.5 7.85204 4.5H5.30206C4.96906 4.5 4.67357 4.75049 4.61131 5.09551L4.40357 6.57601C4.12383 6.70876 3.86058 6.8625 3.61681 7.03501L2.21882 6.47251C1.90382 6.35477 1.54832 6.47775 1.37131 6.7725L0.100057 8.97226C-0.0754428 9.26402 -0.0117045 9.63826 0.262795 9.87001L1.44478 10.7963C1.43055 10.9455 1.42155 11.0978 1.42155 11.25C1.42155 11.4045 1.43055 11.5583 1.44556 11.7128L0.251545 12.6481C-0.0124428 12.8715 -0.0762162 13.245 0.0962955 13.5323L1.3743 15.7411C1.54828 16.0306 1.90231 16.1543 2.22778 16.0328L3.61754 15.4741C3.86729 15.6526 4.12756 15.8041 4.40505 15.9346L4.61581 17.4309C4.67729 17.7549 4.97204 18.0001 5.30279 18.0001H7.85278C8.18578 18.0001 8.48127 17.7496 8.54353 17.4046L8.75127 15.9241C9.03101 15.7913 9.29426 15.6376 9.53803 15.4651L10.936 16.0276C11.2518 16.1461 11.6073 16.0224 11.7835 15.7276L13.0555 13.5286C13.231 13.2367 13.1673 12.8625 12.8928 12.6308ZM11.1595 15.3083L9.62279 14.6902C9.49904 14.6392 9.35803 14.6603 9.25228 14.742C8.95904 14.9708 8.62527 15.1657 8.26077 15.3218C8.14078 15.3735 8.05528 15.4845 8.03728 15.6143L7.85278 17.25H5.34702L5.11903 15.6233C5.10029 15.4928 5.01479 15.381 4.89252 15.33C4.53326 15.18 4.21003 14.9903 3.90326 14.7518C3.79825 14.67 3.6565 14.6498 3.53275 14.7L1.996 15.3188L0.768237 13.197L2.07324 12.174C2.17747 12.0923 2.23074 11.9618 2.21425 11.8305C2.18876 11.637 2.1715 11.4435 2.1715 11.25C2.1715 11.0572 2.18876 10.8653 2.21351 10.6808C2.23077 10.5495 2.17825 10.4175 2.07327 10.3358L0.768272 9.31275L1.99603 7.191L3.53278 7.80901C3.65502 7.85925 3.79754 7.839 3.90329 7.75726C4.19653 7.5285 4.53031 7.33352 4.89481 7.1775C5.01479 7.12575 5.09956 7.0155 5.11829 6.88574L5.30206 5.24999H7.80856L8.03654 6.87674C8.05528 7.00724 8.14078 7.119 8.26306 7.16998C8.62232 7.31999 8.94554 7.50973 9.25232 7.74823C9.35881 7.83074 9.50056 7.85099 9.62283 7.79998L11.1596 7.18049L12.3873 9.30224L11.0823 10.3253C10.9781 10.407 10.9248 10.5375 10.9413 10.6688C10.9668 10.8623 10.9841 11.0558 10.9841 11.2493C10.9841 11.442 10.9668 11.634 10.9421 11.8185C10.9248 11.9497 10.9773 12.0818 11.0823 12.1635L12.3873 13.1865L11.1595 15.3083Z" fill="#6A6A6A"/>
<path d="M13.3276 2.25C12.5004 2.25 11.8276 2.92275 11.8276 3.75001C11.8276 4.57727 12.5004 5.25002 13.3276 5.25002C14.1549 5.25002 14.8277 4.57727 14.8277 3.75001C14.8277 2.92275 14.1549 2.25 13.3276 2.25ZM13.3276 4.5C12.9144 4.5 12.5777 4.16324 12.5777 3.75001C12.5777 3.33675 12.9144 3.00002 13.3276 3.00002C13.7409 3.00002 14.0776 3.33679 14.0776 3.75001C14.0777 4.16324 13.7409 4.5 13.3276 4.5Z" fill="#6A6A6A"/>
<path d="M16.803 4.3605C16.797 4.35526 16.7902 4.34999 16.7843 4.34475L16.227 3.91275C16.2315 3.85949 16.2337 3.80549 16.2337 3.75001C16.2337 3.69376 16.2322 3.63902 16.2292 3.58351L16.797 3.13801C16.9905 2.9655 17.04 2.68801 16.9125 2.45475L16.242 1.29526C16.1167 1.06502 15.84 0.960012 15.5632 1.053L14.9167 1.31326C14.823 1.251 14.7292 1.19626 14.634 1.14901L14.5379 0.486C14.5163 0.21375 14.2807 0 14.0025 0H12.6525C12.3885 0 12.1575 0.19575 12.1117 0.464238L12.0127 1.15499C11.9137 1.20523 11.82 1.25849 11.7322 1.31548L11.0722 1.04998C10.8277 0.961488 10.56 1.05296 10.41 1.28848L9.73125 2.46375C9.60148 2.70074 9.65626 2.9835 9.86923 3.1545L10.425 3.58949C10.4227 3.64198 10.4212 3.69524 10.4212 3.74998C10.4212 3.80471 10.4227 3.85798 10.425 3.91124L9.85197 4.3605C9.65773 4.53301 9.60823 4.81124 9.73571 5.04524L10.4062 6.20473C10.5322 6.43496 10.8097 6.54071 11.085 6.44699L11.7315 6.18673C11.8252 6.24899 11.9189 6.30373 12.0142 6.35098L12.114 7.04549C12.1582 7.30874 12.3847 7.49999 12.6524 7.49999H14.0024C14.2657 7.49999 14.4974 7.30424 14.5432 7.03649L14.6422 6.345C14.7412 6.2955 14.8334 6.24224 14.9189 6.18599L15.5819 6.45149C15.8249 6.53924 16.0949 6.44773 16.245 6.21299L16.9245 5.03624C17.0467 4.8105 16.9972 4.53224 16.803 4.3605ZM15.6832 5.68424L15.0052 5.4135C14.88 5.364 14.7382 5.38425 14.6317 5.46901C14.5035 5.57177 14.3415 5.6655 14.1495 5.74875C14.0303 5.8005 13.9463 5.91001 13.9275 6.039L13.8255 6.75H12.8288L12.7275 6.03826C12.708 5.904 12.6173 5.79076 12.4913 5.742C12.3308 5.68051 12.1733 5.589 12.0105 5.46374C11.9047 5.38274 11.7652 5.364 11.6415 5.4135L10.9717 5.68424L10.4745 4.82474L11.0475 4.37625C11.1517 4.29451 11.205 4.16475 11.1885 4.03425C11.1765 3.94126 11.1712 3.84824 11.1712 3.75001C11.1712 3.65178 11.1765 3.55876 11.1877 3.46577C11.2042 3.33453 11.151 3.20477 11.0467 3.12377L10.4737 2.67528L10.9702 1.81578L11.6407 2.08578C11.7637 2.13602 11.904 2.11577 12.0097 2.03555C12.1477 1.9298 12.3142 1.83378 12.5047 1.75131C12.624 1.69956 12.708 1.59005 12.7267 1.46106L12.8287 0.750058H13.8187L13.9215 1.46257C13.9402 1.59683 14.031 1.71007 14.157 1.75883C14.3175 1.82032 14.475 1.91183 14.6378 2.03709C14.7428 2.11809 14.8823 2.13761 15.0068 2.08733L15.6765 1.81659L16.1738 2.67609L15.6008 3.12458C15.4905 3.21008 15.4372 3.35032 15.4628 3.48834C15.4793 3.57384 15.4838 3.65934 15.4838 3.75008C15.4838 3.84834 15.471 3.94133 15.459 4.03358C15.4425 4.16482 15.4965 4.29532 15.6008 4.37632L16.179 4.82481L15.6832 5.68424Z" fill="#6A6A6A"/>
</svg>
