<?xml version="1.0" encoding="UTF-8"?>
<svg id="illustration-builder" width="1000" height="880" viewBox="-10 -30 1070 940" version="1.1" xmlns="http://www.w3.org/2000/svg" xmlns:xlink="http://www.w3.org/1999/xlink" style="pointer-events: inherit;"><g transform="translate(0,0)">
<g><svg xmlns="http://www.w3.org/2000/svg" width="1000" height="880" viewBox="0 0 1000 880"><g id="Symbols--globalStyle1/communication/bg1" fill="none" fill-rule="evenodd" stroke="none" stroke-width="1"><g id="globalStyle1/communication/bg1--globalStyle1/communication/bg1" fill="#FFEEFC" fill-rule="nonzero"><path id="[background]background--globalStyle1/communication/bg1" d="M0.5,572.762952 L1000.5,572.762952 C951.819877,489.716678 901.767069,453.909533 850.341578,465.341517 C773.203342,482.489494 765.646861,527.161182 728.869444,527.161182 C692.092027,527.161182 661.309484,400.393446 580.904742,406.193101 C500.5,411.992756 492.834118,499.077225 439.525597,513.119203 C386.217076,527.161182 325.023622,406.193101 263.516446,406.193101 C202.009271,406.193101 222.097896,499.077225 171.309781,513.119203 C120.521666,527.161182 107.322271,470.536108 62.8195843,482.830123 C33.1511267,491.026132 12.3779319,521.003742 0.5,572.762952 Z" fill="#cbf6ff" opacity="1.00"></path></g></g></svg></g></g><g transform="translate(198,404)">
<g><svg xmlns="http://www.w3.org/2000/svg" width="123" height="285" viewBox="0 0 123 285"><g id="Symbols--globalStyle1/objects/party/3" fill="none" fill-rule="evenodd" stroke="none" stroke-width="1"><g id="globalStyle1/objects/party/3--globalStyle1/objects/party/3"><polygon id="[objects]music--globalStyle1/objects/party/3" fill="#98dcea" fill-rule="nonzero" points="-0.139272714 280.015286 122.510623 280.015286 122.510623 81.5080956 -0.139272714 81.5080956" opacity="1.00"></polygon><path id="Fill-2--globalStyle1/objects/party/3" fill="#FEFEFE" d="M110.425069,216.402179 C110.425069,243.597244 88.3841988,265.645235 61.1835391,265.645235 C33.9920343,265.645235 11.9465865,243.597244 11.9465865,216.402179 C11.9465865,189.205588 33.9920343,167.160649 61.1835391,167.160649 C88.3841988,167.160649 110.425069,189.205588 110.425069,216.402179"></path><path id="Fill-6--globalStyle1/objects/party/3" fill="#FEFEFE" d="M90.2626774,124.954742 C90.2626774,141.012902 77.2429192,154.031643 61.1832339,154.031643 C45.1235486,154.031643 32.1088765,141.012902 32.1088765,124.954742 C32.1088765,108.8976 45.1235486,95.876316 61.1832339,95.876316 C77.2429192,95.876316 90.2626774,108.8976 90.2626774,124.954742"></path><path id="[objects]music--globalStyle1/objects/party/3" fill="#98dcea" fill-rule="nonzero" d="M24.3434063,280.015286 L24.3434063,285.256452 L5.79206913,285.256452 L5.79206913,280.015286 L24.3434063,280.015286 Z M116.574195,280.015286 L116.574195,285.256452 L98.0330302,285.256452 L98.0330302,280.015286 L116.574195,280.015286 Z M61.1831831,185.437849 C78.2911016,185.437849 92.1510738,199.30189 92.1510738,216.402179 C92.1510738,233.503486 78.2911016,247.363967 61.1831831,247.363967 C44.0803506,247.363967 30.2254644,233.503486 30.2254644,216.402179 C30.2254644,199.30189 44.0803506,185.437849 61.1831831,185.437849 Z M61.1831831,109.9143 C69.4922494,109.9143 76.2246428,116.650762 76.2246428,124.954742 C76.2246428,133.257705 69.4922494,139.993659 61.1831831,139.993659 C52.8837802,139.993659 46.1417233,133.257705 46.1417233,124.954742 C46.1417233,116.650762 52.8837802,109.9143 61.1831831,109.9143 Z" opacity="1.00"></path><path id="shadow--globalStyle1/objects/party/3" fill="#000" fill-opacity=".3" d="M61.1780462,185.437849 C78.2859647,185.437849 92.1459369,199.30189 92.1459369,216.402179 C92.1459369,233.503486 78.2859647,247.363967 61.1780462,247.363967 C44.0752137,247.363967 30.2203275,233.503486 30.2203275,216.402179 C30.2203275,199.30189 44.0752137,185.437849 61.1780462,185.437849 Z M61.1780462,109.9143 C69.4871125,109.9143 76.2195059,116.650762 76.2195059,124.954742 C76.2195059,133.257705 69.4871125,139.993659 61.1780462,139.993659 C52.8786433,139.993659 46.1365864,133.257705 46.1365864,124.954742 C46.1365864,116.650762 52.8786433,109.9143 61.1780462,109.9143 Z"></path></g></g></svg></g></g><g transform="translate(662,404)">
<g><svg xmlns="http://www.w3.org/2000/svg" width="123" height="285" viewBox="0 0 123 285"><g id="Symbols--globalStyle1/objects/party/3" fill="none" fill-rule="evenodd" stroke="none" stroke-width="1"><g id="globalStyle1/objects/party/3--globalStyle1/objects/party/3"><polygon id="[objects]music--globalStyle1/objects/party/3" fill="#98dcea" fill-rule="nonzero" points="-0.139272714 280.015286 122.510623 280.015286 122.510623 81.5080956 -0.139272714 81.5080956" opacity="1.00"></polygon><path id="Fill-2--globalStyle1/objects/party/3" fill="#FEFEFE" d="M110.425069,216.402179 C110.425069,243.597244 88.3841988,265.645235 61.1835391,265.645235 C33.9920343,265.645235 11.9465865,243.597244 11.9465865,216.402179 C11.9465865,189.205588 33.9920343,167.160649 61.1835391,167.160649 C88.3841988,167.160649 110.425069,189.205588 110.425069,216.402179"></path><path id="Fill-6--globalStyle1/objects/party/3" fill="#FEFEFE" d="M90.2626774,124.954742 C90.2626774,141.012902 77.2429192,154.031643 61.1832339,154.031643 C45.1235486,154.031643 32.1088765,141.012902 32.1088765,124.954742 C32.1088765,108.8976 45.1235486,95.876316 61.1832339,95.876316 C77.2429192,95.876316 90.2626774,108.8976 90.2626774,124.954742"></path><path id="[objects]music--globalStyle1/objects/party/3" fill="#98dcea" fill-rule="nonzero" d="M24.3434063,280.015286 L24.3434063,285.256452 L5.79206913,285.256452 L5.79206913,280.015286 L24.3434063,280.015286 Z M116.574195,280.015286 L116.574195,285.256452 L98.0330302,285.256452 L98.0330302,280.015286 L116.574195,280.015286 Z M61.1831831,185.437849 C78.2911016,185.437849 92.1510738,199.30189 92.1510738,216.402179 C92.1510738,233.503486 78.2911016,247.363967 61.1831831,247.363967 C44.0803506,247.363967 30.2254644,233.503486 30.2254644,216.402179 C30.2254644,199.30189 44.0803506,185.437849 61.1831831,185.437849 Z M61.1831831,109.9143 C69.4922494,109.9143 76.2246428,116.650762 76.2246428,124.954742 C76.2246428,133.257705 69.4922494,139.993659 61.1831831,139.993659 C52.8837802,139.993659 46.1417233,133.257705 46.1417233,124.954742 C46.1417233,116.650762 52.8837802,109.9143 61.1831831,109.9143 Z" opacity="1.00"></path><path id="shadow--globalStyle1/objects/party/3" fill="#000" fill-opacity=".3" d="M61.1780462,185.437849 C78.2859647,185.437849 92.1459369,199.30189 92.1459369,216.402179 C92.1459369,233.503486 78.2859647,247.363967 61.1780462,247.363967 C44.0752137,247.363967 30.2203275,233.503486 30.2203275,216.402179 C30.2203275,199.30189 44.0752137,185.437849 61.1780462,185.437849 Z M61.1780462,109.9143 C69.4871125,109.9143 76.2195059,116.650762 76.2195059,124.954742 C76.2195059,133.257705 69.4871125,139.993659 61.1780462,139.993659 C52.8786433,139.993659 46.1365864,133.257705 46.1365864,124.954742 C46.1365864,116.650762 52.8786433,109.9143 61.1780462,109.9143 Z"></path></g></g></svg></g></g><g transform="translate(680,133)">
<g><svg xmlns="http://www.w3.org/2000/svg" width="320" height="463" viewBox="0 0 320 463"><g id="Symbols--globalStyle1/objects/tree/3" fill="none" fill-rule="evenodd" stroke="none" stroke-width="1"><g id="globalStyle1/objects/tree/3--globalStyle1/objects/tree/3"><path id="Combined-Shape--globalStyle1/objects/tree/3" fill="#564931" d="M151.41925,50.7678576 L155.024817,183.972858 L190.718817,153.183858 L196.916888,122.768099 L199.341588,122.785623 L195.735817,148.854858 L219.71382,128.17221 L219.71382,133.915208 L174.864817,180.920858 L221.965046,194.540775 L220.249069,198.471127 L168.953817,187.115858 L155.491817,201.225858 L158.659817,318.254858 L205.820817,295.474858 L224.764257,262.833334 L227.50569,264.943447 L214.345817,291.356858 L253.737197,272.330637 L251.788884,279.601839 L206.442817,307.220858 L205.818429,308.476006 L205.735817,307.651858 L159.140817,336.032858 L162.578071,463 L139.380505,463 L142.708817,310.859858 L109.976817,290.921858 L67.0857518,295.795576 L66.0405194,292.49777 L102.012817,286.070858 L52.0251293,255.624389 L50.0768166,248.353187 L74.4938166,260.146858 L61.2487637,238.843939 L63.4567092,237.841715 L81.9478166,263.747858 L143.092817,293.282858 L144.200817,242.650858 L74.8880715,179.218378 L74.8880715,174.375853 L98.0788166,192.100858 L94.7148258,167.762208 L97.1395255,167.744684 L102.844817,195.742858 L144.529817,227.603858 L146.842817,121.898858 L117.550375,95.0917861 L117.550375,90.6370536 L146.981817,115.512858 L148.399121,50.7678576 L151.41925,50.7678576 Z"></path><path id="[tree]tree--globalStyle1/objects/tree/3" fill="#7d78b6" d="M99.1534068,328.637872 C78.0815368,322.709938 68.586523,310.93966 70.6683654,293.327039 C89.7773717,290.783524 99.2723855,302.553802 99.1534068,328.637872 Z M291.530615,295.169939 C280.164424,298.064537 270.838001,297.844639 263.551346,294.510244 C265.321547,301.978679 263.151089,311.642167 257.04124,323.499404 C240.957292,308.651148 237.840767,293.853108 247.691665,279.105284 C248.370445,279.344562 249.028227,279.595534 249.665011,279.858199 C249.508151,279.521926 249.355677,279.179617 249.206429,278.832381 C264.483557,267.07513 278.591619,272.520982 291.530615,295.169939 Z M68.8539745,293.901529 C68.2410066,294.278362 67.6321636,294.631529 67.0274456,294.961031 C67.3879208,295.051241 67.7494572,295.148056 68.1127874,295.250466 C67.63568,314.522102 54.5249665,322.058939 28.7806471,317.860978 C33.6838867,307.206616 39.7237792,300.097164 46.9003247,296.532621 C39.9827228,293.207271 33.8389436,285.439197 28.4693847,273.229388 C50.1306037,270.074124 63.5921336,276.964837 68.8539745,293.901529 Z M229.148047,308.628589 C215.67646,317.464763 206.385356,316.505782 201.274734,305.751646 C209.697794,298.748454 218.988898,299.707435 229.148047,308.628589 Z M258.356048,232.704605 C267.010136,252.811093 263.838318,267.59738 248.840594,277.063467 C234.838225,263.813666 238.010043,249.027378 258.356048,232.704605 Z M223.680713,268.681945 C212.152667,276.929684 201.925159,272.565787 192.998191,255.590255 C208.724921,252.164822 218.952428,256.528719 223.680713,268.681945 Z M86.061835,228.189279 C102.654182,242.467168 106.285252,257.147429 96.9550469,272.23006 C78.56147,266.459452 74.9303994,251.779192 86.061835,228.189279 Z M229.06722,235.486974 C239.304977,251.705721 237.970469,262.744951 225.063694,268.604662 C216.902834,258.433235 218.237342,247.394005 229.06722,235.486974 Z M30.2609434,215.241805 C50.4533135,223.693567 58.4431169,236.533262 54.2303535,253.760889 C34.9538065,253.956643 26.9640031,241.116948 30.2609434,215.241805 Z M74.5315821,225.912124 C80.5156769,236.58104 79.6166111,244.983976 71.8343848,251.12093 C63.2784365,244.575111 64.1775023,236.172176 74.5315821,225.912124 Z M181.515408,183.383458 C199.696389,189.792478 202.812914,204.590518 190.864983,227.777579 C174.781035,212.929323 171.66451,198.131282 181.515408,183.383458 Z M242.76551,218.551057 C223.594677,217.969134 215.188988,210.689718 217.548444,196.712807 C230.544435,195.634938 238.950124,202.914354 242.76551,218.551057 Z M96.9275262,196.91311 C95.2790944,208.269837 87.373426,214.036248 73.2105212,214.21234 C77.5044874,197.889588 85.4101557,192.123178 96.9275262,196.91311 Z M119.177767,186.188173 C119.653721,198.241183 115.455495,203.834136 106.583088,202.967031 C105.336702,194.860837 109.534929,189.267884 119.177767,186.188173 Z M246.268679,177.406864 C240.314216,192.360392 230.977232,198.39912 218.257727,195.523048 C217.866444,181.353787 227.203428,175.315059 246.268679,177.406864 Z M47.6377684,145.728662 C69.0718202,150.172256 79.3647577,161.251523 78.5165809,178.966463 C77.8118384,179.110893 77.1190612,179.234504 76.4382494,179.337297 C76.7454652,179.545243 77.0522113,179.759958 77.3587294,179.980548 C70.3191073,197.926782 55.4213165,200.524964 32.6653568,187.775095 C40.9170729,179.440104 49.024457,174.82515 56.9875093,173.930234 C51.6238472,168.439277 48.5074915,159.038451 47.6377684,145.728662 Z M117.68533,145.020675 C118.442114,164.185402 111.766781,173.078401 97.6593304,171.699673 C95.677532,158.810527 102.352865,149.917528 117.68533,145.020675 Z M75.1580282,142.253089 C90.4904927,147.149942 97.1658258,156.042941 95.1840273,168.932086 C81.0765766,170.310814 74.4012436,161.417815 75.1580282,142.253089 Z M182.780462,134.634697 C190.159553,148.938985 188.591427,159.947458 178.076082,167.660117 C167.1257,158.659551 168.693826,147.651078 182.780462,134.634697 Z M253.322434,136.032818 C246.282812,153.979052 231.385021,156.577234 208.629061,143.827365 C224.029594,128.271411 238.927385,125.673229 253.322434,136.032818 Z M149.607169,126.826758 C142.567547,144.772992 127.669756,147.371174 104.913797,134.621305 C120.31433,119.065352 135.21212,116.467169 149.607169,126.826758 Z M225.813609,89.666642 C240.26986,102.419696 237.616009,117.307671 217.852054,134.330567 C208.501532,114.53835 211.155384,99.6503751 225.813609,89.666642 Z M196.896468,126.083682 C185.368422,134.331421 175.140914,129.967525 166.213946,112.991993 C181.940676,109.56656 192.168184,113.930456 196.896468,126.083682 Z M202.282975,92.8887112 C212.520733,109.107459 211.186224,120.146688 198.279449,126.0064 C190.118589,115.834972 191.453098,104.795743 202.282975,92.8887112 Z M122.055417,95.7451918 C115.015795,113.691426 100.118004,116.289608 77.3620444,103.539739 C92.7625774,87.9837852 107.660368,85.3856029 122.055417,95.7451918 Z M141.470565,77.9023073 C144.966102,91.6281989 141.442315,100.756945 130.899204,105.288545 C123.291571,95.4033451 126.815358,86.2745991 141.470565,77.9023073 Z M100.284358,51.1436043 C119.482662,61.6597448 126.086583,75.2642644 120.09612,91.9571631 C100.90471,90.1368965 94.3007893,76.5323769 100.284358,51.1436043 Z M174.84347,77.5227312 C160.764673,79.0739752 152.215184,74.3140056 149.195002,63.2428224 C160.042778,57.0849801 168.592267,61.8449497 174.84347,77.5227312 Z M187.49121,32.2660792 C180.107818,52.8731075 167.703873,61.5239388 150.279377,58.2185733 C149.075035,38.978689 161.478979,30.3278577 187.49121,32.2660792 Z M149.421975,57.5772727 C138.147301,59.7160387 130.121219,54.1184419 125.34373,40.7844824 C142.175173,39.5303391 150.201255,45.1279358 149.421975,57.5772727 Z" opacity="1.00"></path><path id="shadow--globalStyle1/objects/tree/3" fill="#000" fill-opacity=".2" d="M247.691665,279.105284 C265.872645,285.514303 268.98917,300.312343 257.04124,323.499404 C240.957292,308.651148 237.840767,293.853108 247.691665,279.105284 Z M68.1127874,295.250466 C67.63568,314.522102 54.5249665,322.058939 28.7806471,317.860978 C37.9319648,297.975871 51.0426782,290.439033 68.1127874,295.250466 Z M242.76551,218.551057 C223.594677,217.969134 215.188988,210.689718 217.548444,196.712807 C230.544435,195.634938 238.950124,202.914354 242.76551,218.551057 Z M47.6377684,145.728662 C69.0718202,150.172256 79.3647577,161.251523 78.5165809,178.966463 C59.6315498,182.836759 49.3386124,171.757492 47.6377684,145.728662 Z M182.780462,134.634697 C190.159553,148.938985 188.591427,159.947458 178.076082,167.660117 C167.1257,158.659551 168.693826,147.651078 182.780462,134.634697 Z M149.421975,57.5772727 C138.147301,59.7160387 130.121219,54.1184419 125.34373,40.7844824 C142.175173,39.5303391 150.201255,45.1279358 149.421975,57.5772727 Z"></path></g></g></svg></g></g><g transform="translate(-20,148.5)">
<g transform="translate(320,0) scale(-1, 1)">
<g><svg xmlns="http://www.w3.org/2000/svg" width="320" height="463" viewBox="0 0 320 463"><g id="Symbols--globalStyle1/objects/tree/3" fill="none" fill-rule="evenodd" stroke="none" stroke-width="1"><g id="globalStyle1/objects/tree/3--globalStyle1/objects/tree/3"><path id="Combined-Shape--globalStyle1/objects/tree/3" fill="#564931" d="M151.41925,50.7678576 L155.024817,183.972858 L190.718817,153.183858 L196.916888,122.768099 L199.341588,122.785623 L195.735817,148.854858 L219.71382,128.17221 L219.71382,133.915208 L174.864817,180.920858 L221.965046,194.540775 L220.249069,198.471127 L168.953817,187.115858 L155.491817,201.225858 L158.659817,318.254858 L205.820817,295.474858 L224.764257,262.833334 L227.50569,264.943447 L214.345817,291.356858 L253.737197,272.330637 L251.788884,279.601839 L206.442817,307.220858 L205.818429,308.476006 L205.735817,307.651858 L159.140817,336.032858 L162.578071,463 L139.380505,463 L142.708817,310.859858 L109.976817,290.921858 L67.0857518,295.795576 L66.0405194,292.49777 L102.012817,286.070858 L52.0251293,255.624389 L50.0768166,248.353187 L74.4938166,260.146858 L61.2487637,238.843939 L63.4567092,237.841715 L81.9478166,263.747858 L143.092817,293.282858 L144.200817,242.650858 L74.8880715,179.218378 L74.8880715,174.375853 L98.0788166,192.100858 L94.7148258,167.762208 L97.1395255,167.744684 L102.844817,195.742858 L144.529817,227.603858 L146.842817,121.898858 L117.550375,95.0917861 L117.550375,90.6370536 L146.981817,115.512858 L148.399121,50.7678576 L151.41925,50.7678576 Z"></path><path id="[tree]tree--globalStyle1/objects/tree/3" fill="#7d78b6" d="M99.1534068,328.637872 C78.0815368,322.709938 68.586523,310.93966 70.6683654,293.327039 C89.7773717,290.783524 99.2723855,302.553802 99.1534068,328.637872 Z M291.530615,295.169939 C280.164424,298.064537 270.838001,297.844639 263.551346,294.510244 C265.321547,301.978679 263.151089,311.642167 257.04124,323.499404 C240.957292,308.651148 237.840767,293.853108 247.691665,279.105284 C248.370445,279.344562 249.028227,279.595534 249.665011,279.858199 C249.508151,279.521926 249.355677,279.179617 249.206429,278.832381 C264.483557,267.07513 278.591619,272.520982 291.530615,295.169939 Z M68.8539745,293.901529 C68.2410066,294.278362 67.6321636,294.631529 67.0274456,294.961031 C67.3879208,295.051241 67.7494572,295.148056 68.1127874,295.250466 C67.63568,314.522102 54.5249665,322.058939 28.7806471,317.860978 C33.6838867,307.206616 39.7237792,300.097164 46.9003247,296.532621 C39.9827228,293.207271 33.8389436,285.439197 28.4693847,273.229388 C50.1306037,270.074124 63.5921336,276.964837 68.8539745,293.901529 Z M229.148047,308.628589 C215.67646,317.464763 206.385356,316.505782 201.274734,305.751646 C209.697794,298.748454 218.988898,299.707435 229.148047,308.628589 Z M258.356048,232.704605 C267.010136,252.811093 263.838318,267.59738 248.840594,277.063467 C234.838225,263.813666 238.010043,249.027378 258.356048,232.704605 Z M223.680713,268.681945 C212.152667,276.929684 201.925159,272.565787 192.998191,255.590255 C208.724921,252.164822 218.952428,256.528719 223.680713,268.681945 Z M86.061835,228.189279 C102.654182,242.467168 106.285252,257.147429 96.9550469,272.23006 C78.56147,266.459452 74.9303994,251.779192 86.061835,228.189279 Z M229.06722,235.486974 C239.304977,251.705721 237.970469,262.744951 225.063694,268.604662 C216.902834,258.433235 218.237342,247.394005 229.06722,235.486974 Z M30.2609434,215.241805 C50.4533135,223.693567 58.4431169,236.533262 54.2303535,253.760889 C34.9538065,253.956643 26.9640031,241.116948 30.2609434,215.241805 Z M74.5315821,225.912124 C80.5156769,236.58104 79.6166111,244.983976 71.8343848,251.12093 C63.2784365,244.575111 64.1775023,236.172176 74.5315821,225.912124 Z M181.515408,183.383458 C199.696389,189.792478 202.812914,204.590518 190.864983,227.777579 C174.781035,212.929323 171.66451,198.131282 181.515408,183.383458 Z M242.76551,218.551057 C223.594677,217.969134 215.188988,210.689718 217.548444,196.712807 C230.544435,195.634938 238.950124,202.914354 242.76551,218.551057 Z M96.9275262,196.91311 C95.2790944,208.269837 87.373426,214.036248 73.2105212,214.21234 C77.5044874,197.889588 85.4101557,192.123178 96.9275262,196.91311 Z M119.177767,186.188173 C119.653721,198.241183 115.455495,203.834136 106.583088,202.967031 C105.336702,194.860837 109.534929,189.267884 119.177767,186.188173 Z M246.268679,177.406864 C240.314216,192.360392 230.977232,198.39912 218.257727,195.523048 C217.866444,181.353787 227.203428,175.315059 246.268679,177.406864 Z M47.6377684,145.728662 C69.0718202,150.172256 79.3647577,161.251523 78.5165809,178.966463 C77.8118384,179.110893 77.1190612,179.234504 76.4382494,179.337297 C76.7454652,179.545243 77.0522113,179.759958 77.3587294,179.980548 C70.3191073,197.926782 55.4213165,200.524964 32.6653568,187.775095 C40.9170729,179.440104 49.024457,174.82515 56.9875093,173.930234 C51.6238472,168.439277 48.5074915,159.038451 47.6377684,145.728662 Z M117.68533,145.020675 C118.442114,164.185402 111.766781,173.078401 97.6593304,171.699673 C95.677532,158.810527 102.352865,149.917528 117.68533,145.020675 Z M75.1580282,142.253089 C90.4904927,147.149942 97.1658258,156.042941 95.1840273,168.932086 C81.0765766,170.310814 74.4012436,161.417815 75.1580282,142.253089 Z M182.780462,134.634697 C190.159553,148.938985 188.591427,159.947458 178.076082,167.660117 C167.1257,158.659551 168.693826,147.651078 182.780462,134.634697 Z M253.322434,136.032818 C246.282812,153.979052 231.385021,156.577234 208.629061,143.827365 C224.029594,128.271411 238.927385,125.673229 253.322434,136.032818 Z M149.607169,126.826758 C142.567547,144.772992 127.669756,147.371174 104.913797,134.621305 C120.31433,119.065352 135.21212,116.467169 149.607169,126.826758 Z M225.813609,89.666642 C240.26986,102.419696 237.616009,117.307671 217.852054,134.330567 C208.501532,114.53835 211.155384,99.6503751 225.813609,89.666642 Z M196.896468,126.083682 C185.368422,134.331421 175.140914,129.967525 166.213946,112.991993 C181.940676,109.56656 192.168184,113.930456 196.896468,126.083682 Z M202.282975,92.8887112 C212.520733,109.107459 211.186224,120.146688 198.279449,126.0064 C190.118589,115.834972 191.453098,104.795743 202.282975,92.8887112 Z M122.055417,95.7451918 C115.015795,113.691426 100.118004,116.289608 77.3620444,103.539739 C92.7625774,87.9837852 107.660368,85.3856029 122.055417,95.7451918 Z M141.470565,77.9023073 C144.966102,91.6281989 141.442315,100.756945 130.899204,105.288545 C123.291571,95.4033451 126.815358,86.2745991 141.470565,77.9023073 Z M100.284358,51.1436043 C119.482662,61.6597448 126.086583,75.2642644 120.09612,91.9571631 C100.90471,90.1368965 94.3007893,76.5323769 100.284358,51.1436043 Z M174.84347,77.5227312 C160.764673,79.0739752 152.215184,74.3140056 149.195002,63.2428224 C160.042778,57.0849801 168.592267,61.8449497 174.84347,77.5227312 Z M187.49121,32.2660792 C180.107818,52.8731075 167.703873,61.5239388 150.279377,58.2185733 C149.075035,38.978689 161.478979,30.3278577 187.49121,32.2660792 Z M149.421975,57.5772727 C138.147301,59.7160387 130.121219,54.1184419 125.34373,40.7844824 C142.175173,39.5303391 150.201255,45.1279358 149.421975,57.5772727 Z" opacity="1.00"></path><path id="shadow--globalStyle1/objects/tree/3" fill="#000" fill-opacity=".2" d="M247.691665,279.105284 C265.872645,285.514303 268.98917,300.312343 257.04124,323.499404 C240.957292,308.651148 237.840767,293.853108 247.691665,279.105284 Z M68.1127874,295.250466 C67.63568,314.522102 54.5249665,322.058939 28.7806471,317.860978 C37.9319648,297.975871 51.0426782,290.439033 68.1127874,295.250466 Z M242.76551,218.551057 C223.594677,217.969134 215.188988,210.689718 217.548444,196.712807 C230.544435,195.634938 238.950124,202.914354 242.76551,218.551057 Z M47.6377684,145.728662 C69.0718202,150.172256 79.3647577,161.251523 78.5165809,178.966463 C59.6315498,182.836759 49.3386124,171.757492 47.6377684,145.728662 Z M182.780462,134.634697 C190.159553,148.938985 188.591427,159.947458 178.076082,167.660117 C167.1257,158.659551 168.693826,147.651078 182.780462,134.634697 Z M149.421975,57.5772727 C138.147301,59.7160387 130.121219,54.1184419 125.34373,40.7844824 C142.175173,39.5303391 150.201255,45.1279358 149.421975,57.5772727 Z"></path></g></g></svg></g>
</g></g><!----><!----><!----><!----><!----></svg>