<?xml version="1.0" encoding="UTF-8"?>
<svg id="illustration-builder" width="1000" height="880" viewBox="-10 -30 1070 940" version="1.1" xmlns="http://www.w3.org/2000/svg" xmlns:xlink="http://www.w3.org/1999/xlink" style="pointer-events: inherit;"><g transform="translate(0,0)">
<g><svg xmlns="http://www.w3.org/2000/svg" width="1000" height="880" viewBox="0 0 1000 880"><g id="Symbols--globalStyle1/communication/bg1" fill="none" fill-rule="evenodd" stroke="none" stroke-width="1"><g id="globalStyle1/communication/bg1--globalStyle1/communication/bg1" fill="#FFEEFC" fill-rule="nonzero"><path id="[background]background--globalStyle1/communication/bg1" d="M0.5,572.762952 L1000.5,572.762952 C951.819877,489.716678 901.767069,453.909533 850.341578,465.341517 C773.203342,482.489494 765.646861,527.161182 728.869444,527.161182 C692.092027,527.161182 661.309484,400.393446 580.904742,406.193101 C500.5,411.992756 492.834118,499.077225 439.525597,513.119203 C386.217076,527.161182 325.023622,406.193101 263.516446,406.193101 C202.009271,406.193101 222.097896,499.077225 171.309781,513.119203 C120.521666,527.161182 107.322271,470.536108 62.8195843,482.830123 C33.1511267,491.026132 12.3779319,521.003742 0.5,572.762952 Z" fill="#cbf6ff" opacity="1.00"></path></g></g></svg></g></g><g transform="translate(198,404)">
<g><svg xmlns="http://www.w3.org/2000/svg" width="123" height="285" viewBox="0 0 123 285"><g id="Symbols--globalStyle1/objects/party/3" fill="none" fill-rule="evenodd" stroke="none" stroke-width="1"><g id="globalStyle1/objects/party/3--globalStyle1/objects/party/3"><polygon id="[objects]music--globalStyle1/objects/party/3" fill="#98dcea" fill-rule="nonzero" points="-0.139272714 280.015286 122.510623 280.015286 122.510623 81.5080956 -0.139272714 81.5080956" opacity="1.00"></polygon><path id="Fill-2--globalStyle1/objects/party/3" fill="#FEFEFE" d="M110.425069,216.402179 C110.425069,243.597244 88.3841988,265.645235 61.1835391,265.645235 C33.9920343,265.645235 11.9465865,243.597244 11.9465865,216.402179 C11.9465865,189.205588 33.9920343,167.160649 61.1835391,167.160649 C88.3841988,167.160649 110.425069,189.205588 110.425069,216.402179"></path><path id="Fill-6--globalStyle1/objects/party/3" fill="#FEFEFE" d="M90.2626774,124.954742 C90.2626774,141.012902 77.2429192,154.031643 61.1832339,154.031643 C45.1235486,154.031643 32.1088765,141.012902 32.1088765,124.954742 C32.1088765,108.8976 45.1235486,95.876316 61.1832339,95.876316 C77.2429192,95.876316 90.2626774,108.8976 90.2626774,124.954742"></path><path id="[objects]music--globalStyle1/objects/party/3" fill="#98dcea" fill-rule="nonzero" d="M24.3434063,280.015286 L24.3434063,285.256452 L5.79206913,285.256452 L5.79206913,280.015286 L24.3434063,280.015286 Z M116.574195,280.015286 L116.574195,285.256452 L98.0330302,285.256452 L98.0330302,280.015286 L116.574195,280.015286 Z M61.1831831,185.437849 C78.2911016,185.437849 92.1510738,199.30189 92.1510738,216.402179 C92.1510738,233.503486 78.2911016,247.363967 61.1831831,247.363967 C44.0803506,247.363967 30.2254644,233.503486 30.2254644,216.402179 C30.2254644,199.30189 44.0803506,185.437849 61.1831831,185.437849 Z M61.1831831,109.9143 C69.4922494,109.9143 76.2246428,116.650762 76.2246428,124.954742 C76.2246428,133.257705 69.4922494,139.993659 61.1831831,139.993659 C52.8837802,139.993659 46.1417233,133.257705 46.1417233,124.954742 C46.1417233,116.650762 52.8837802,109.9143 61.1831831,109.9143 Z" opacity="1.00"></path><path id="shadow--globalStyle1/objects/party/3" fill="#000" fill-opacity=".3" d="M61.1780462,185.437849 C78.2859647,185.437849 92.1459369,199.30189 92.1459369,216.402179 C92.1459369,233.503486 78.2859647,247.363967 61.1780462,247.363967 C44.0752137,247.363967 30.2203275,233.503486 30.2203275,216.402179 C30.2203275,199.30189 44.0752137,185.437849 61.1780462,185.437849 Z M61.1780462,109.9143 C69.4871125,109.9143 76.2195059,116.650762 76.2195059,124.954742 C76.2195059,133.257705 69.4871125,139.993659 61.1780462,139.993659 C52.8786433,139.993659 46.1365864,133.257705 46.1365864,124.954742 C46.1365864,116.650762 52.8786433,109.9143 61.1780462,109.9143 Z"></path></g></g></svg></g></g><!----><g transform="translate(680,133)">
<g><svg xmlns="http://www.w3.org/2000/svg" width="320" height="463" viewBox="0 0 320 463"><g id="Symbols--globalStyle1/objects/tree/3" fill="none" fill-rule="evenodd" stroke="none" stroke-width="1"><g id="globalStyle1/objects/tree/3--globalStyle1/objects/tree/3"><path id="Combined-Shape--globalStyle1/objects/tree/3" fill="#564931" d="M151.41925,50.7678576 L155.024817,183.972858 L190.718817,153.183858 L196.916888,122.768099 L199.341588,122.785623 L195.735817,148.854858 L219.71382,128.17221 L219.71382,133.915208 L174.864817,180.920858 L221.965046,194.540775 L220.249069,198.471127 L168.953817,187.115858 L155.491817,201.225858 L158.659817,318.254858 L205.820817,295.474858 L224.764257,262.833334 L227.50569,264.943447 L214.345817,291.356858 L253.737197,272.330637 L251.788884,279.601839 L206.442817,307.220858 L205.818429,308.476006 L205.735817,307.651858 L159.140817,336.032858 L162.578071,463 L139.380505,463 L142.708817,310.859858 L109.976817,290.921858 L67.0857518,295.795576 L66.0405194,292.49777 L102.012817,286.070858 L52.0251293,255.624389 L50.0768166,248.353187 L74.4938166,260.146858 L61.2487637,238.843939 L63.4567092,237.841715 L81.9478166,263.747858 L143.092817,293.282858 L144.200817,242.650858 L74.8880715,179.218378 L74.8880715,174.375853 L98.0788166,192.100858 L94.7148258,167.762208 L97.1395255,167.744684 L102.844817,195.742858 L144.529817,227.603858 L146.842817,121.898858 L117.550375,95.0917861 L117.550375,90.6370536 L146.981817,115.512858 L148.399121,50.7678576 L151.41925,50.7678576 Z"></path><path id="[tree]tree--globalStyle1/objects/tree/3" fill="#7d78b6" d="M99.1534068,328.637872 C78.0815368,322.709938 68.586523,310.93966 70.6683654,293.327039 C89.7773717,290.783524 99.2723855,302.553802 99.1534068,328.637872 Z M291.530615,295.169939 C280.164424,298.064537 270.838001,297.844639 263.551346,294.510244 C265.321547,301.978679 263.151089,311.642167 257.04124,323.499404 C240.957292,308.651148 237.840767,293.853108 247.691665,279.105284 C248.370445,279.344562 249.028227,279.595534 249.665011,279.858199 C249.508151,279.521926 249.355677,279.179617 249.206429,278.832381 C264.483557,267.07513 278.591619,272.520982 291.530615,295.169939 Z M68.8539745,293.901529 C68.2410066,294.278362 67.6321636,294.631529 67.0274456,294.961031 C67.3879208,295.051241 67.7494572,295.148056 68.1127874,295.250466 C67.63568,314.522102 54.5249665,322.058939 28.7806471,317.860978 C33.6838867,307.206616 39.7237792,300.097164 46.9003247,296.532621 C39.9827228,293.207271 33.8389436,285.439197 28.4693847,273.229388 C50.1306037,270.074124 63.5921336,276.964837 68.8539745,293.901529 Z M229.148047,308.628589 C215.67646,317.464763 206.385356,316.505782 201.274734,305.751646 C209.697794,298.748454 218.988898,299.707435 229.148047,308.628589 Z M258.356048,232.704605 C267.010136,252.811093 263.838318,267.59738 248.840594,277.063467 C234.838225,263.813666 238.010043,249.027378 258.356048,232.704605 Z M223.680713,268.681945 C212.152667,276.929684 201.925159,272.565787 192.998191,255.590255 C208.724921,252.164822 218.952428,256.528719 223.680713,268.681945 Z M86.061835,228.189279 C102.654182,242.467168 106.285252,257.147429 96.9550469,272.23006 C78.56147,266.459452 74.9303994,251.779192 86.061835,228.189279 Z M229.06722,235.486974 C239.304977,251.705721 237.970469,262.744951 225.063694,268.604662 C216.902834,258.433235 218.237342,247.394005 229.06722,235.486974 Z M30.2609434,215.241805 C50.4533135,223.693567 58.4431169,236.533262 54.2303535,253.760889 C34.9538065,253.956643 26.9640031,241.116948 30.2609434,215.241805 Z M74.5315821,225.912124 C80.5156769,236.58104 79.6166111,244.983976 71.8343848,251.12093 C63.2784365,244.575111 64.1775023,236.172176 74.5315821,225.912124 Z M181.515408,183.383458 C199.696389,189.792478 202.812914,204.590518 190.864983,227.777579 C174.781035,212.929323 171.66451,198.131282 181.515408,183.383458 Z M242.76551,218.551057 C223.594677,217.969134 215.188988,210.689718 217.548444,196.712807 C230.544435,195.634938 238.950124,202.914354 242.76551,218.551057 Z M96.9275262,196.91311 C95.2790944,208.269837 87.373426,214.036248 73.2105212,214.21234 C77.5044874,197.889588 85.4101557,192.123178 96.9275262,196.91311 Z M119.177767,186.188173 C119.653721,198.241183 115.455495,203.834136 106.583088,202.967031 C105.336702,194.860837 109.534929,189.267884 119.177767,186.188173 Z M246.268679,177.406864 C240.314216,192.360392 230.977232,198.39912 218.257727,195.523048 C217.866444,181.353787 227.203428,175.315059 246.268679,177.406864 Z M47.6377684,145.728662 C69.0718202,150.172256 79.3647577,161.251523 78.5165809,178.966463 C77.8118384,179.110893 77.1190612,179.234504 76.4382494,179.337297 C76.7454652,179.545243 77.0522113,179.759958 77.3587294,179.980548 C70.3191073,197.926782 55.4213165,200.524964 32.6653568,187.775095 C40.9170729,179.440104 49.024457,174.82515 56.9875093,173.930234 C51.6238472,168.439277 48.5074915,159.038451 47.6377684,145.728662 Z M117.68533,145.020675 C118.442114,164.185402 111.766781,173.078401 97.6593304,171.699673 C95.677532,158.810527 102.352865,149.917528 117.68533,145.020675 Z M75.1580282,142.253089 C90.4904927,147.149942 97.1658258,156.042941 95.1840273,168.932086 C81.0765766,170.310814 74.4012436,161.417815 75.1580282,142.253089 Z M182.780462,134.634697 C190.159553,148.938985 188.591427,159.947458 178.076082,167.660117 C167.1257,158.659551 168.693826,147.651078 182.780462,134.634697 Z M253.322434,136.032818 C246.282812,153.979052 231.385021,156.577234 208.629061,143.827365 C224.029594,128.271411 238.927385,125.673229 253.322434,136.032818 Z M149.607169,126.826758 C142.567547,144.772992 127.669756,147.371174 104.913797,134.621305 C120.31433,119.065352 135.21212,116.467169 149.607169,126.826758 Z M225.813609,89.666642 C240.26986,102.419696 237.616009,117.307671 217.852054,134.330567 C208.501532,114.53835 211.155384,99.6503751 225.813609,89.666642 Z M196.896468,126.083682 C185.368422,134.331421 175.140914,129.967525 166.213946,112.991993 C181.940676,109.56656 192.168184,113.930456 196.896468,126.083682 Z M202.282975,92.8887112 C212.520733,109.107459 211.186224,120.146688 198.279449,126.0064 C190.118589,115.834972 191.453098,104.795743 202.282975,92.8887112 Z M122.055417,95.7451918 C115.015795,113.691426 100.118004,116.289608 77.3620444,103.539739 C92.7625774,87.9837852 107.660368,85.3856029 122.055417,95.7451918 Z M141.470565,77.9023073 C144.966102,91.6281989 141.442315,100.756945 130.899204,105.288545 C123.291571,95.4033451 126.815358,86.2745991 141.470565,77.9023073 Z M100.284358,51.1436043 C119.482662,61.6597448 126.086583,75.2642644 120.09612,91.9571631 C100.90471,90.1368965 94.3007893,76.5323769 100.284358,51.1436043 Z M174.84347,77.5227312 C160.764673,79.0739752 152.215184,74.3140056 149.195002,63.2428224 C160.042778,57.0849801 168.592267,61.8449497 174.84347,77.5227312 Z M187.49121,32.2660792 C180.107818,52.8731075 167.703873,61.5239388 150.279377,58.2185733 C149.075035,38.978689 161.478979,30.3278577 187.49121,32.2660792 Z M149.421975,57.5772727 C138.147301,59.7160387 130.121219,54.1184419 125.34373,40.7844824 C142.175173,39.5303391 150.201255,45.1279358 149.421975,57.5772727 Z" opacity="1.00"></path><path id="shadow--globalStyle1/objects/tree/3" fill="#000" fill-opacity=".2" d="M247.691665,279.105284 C265.872645,285.514303 268.98917,300.312343 257.04124,323.499404 C240.957292,308.651148 237.840767,293.853108 247.691665,279.105284 Z M68.1127874,295.250466 C67.63568,314.522102 54.5249665,322.058939 28.7806471,317.860978 C37.9319648,297.975871 51.0426782,290.439033 68.1127874,295.250466 Z M242.76551,218.551057 C223.594677,217.969134 215.188988,210.689718 217.548444,196.712807 C230.544435,195.634938 238.950124,202.914354 242.76551,218.551057 Z M47.6377684,145.728662 C69.0718202,150.172256 79.3647577,161.251523 78.5165809,178.966463 C59.6315498,182.836759 49.3386124,171.757492 47.6377684,145.728662 Z M182.780462,134.634697 C190.159553,148.938985 188.591427,159.947458 178.076082,167.660117 C167.1257,158.659551 168.693826,147.651078 182.780462,134.634697 Z M149.421975,57.5772727 C138.147301,59.7160387 130.121219,54.1184419 125.34373,40.7844824 C142.175173,39.5303391 150.201255,45.1279358 149.421975,57.5772727 Z"></path></g></g></svg></g></g><g transform="translate(-20,148.5)">
<g transform="translate(320,0) scale(-1, 1)">
<g><svg xmlns="http://www.w3.org/2000/svg" width="320" height="463" viewBox="0 0 320 463"><g id="Symbols--globalStyle1/objects/tree/3" fill="none" fill-rule="evenodd" stroke="none" stroke-width="1"><g id="globalStyle1/objects/tree/3--globalStyle1/objects/tree/3"><path id="Combined-Shape--globalStyle1/objects/tree/3" fill="#564931" d="M151.41925,50.7678576 L155.024817,183.972858 L190.718817,153.183858 L196.916888,122.768099 L199.341588,122.785623 L195.735817,148.854858 L219.71382,128.17221 L219.71382,133.915208 L174.864817,180.920858 L221.965046,194.540775 L220.249069,198.471127 L168.953817,187.115858 L155.491817,201.225858 L158.659817,318.254858 L205.820817,295.474858 L224.764257,262.833334 L227.50569,264.943447 L214.345817,291.356858 L253.737197,272.330637 L251.788884,279.601839 L206.442817,307.220858 L205.818429,308.476006 L205.735817,307.651858 L159.140817,336.032858 L162.578071,463 L139.380505,463 L142.708817,310.859858 L109.976817,290.921858 L67.0857518,295.795576 L66.0405194,292.49777 L102.012817,286.070858 L52.0251293,255.624389 L50.0768166,248.353187 L74.4938166,260.146858 L61.2487637,238.843939 L63.4567092,237.841715 L81.9478166,263.747858 L143.092817,293.282858 L144.200817,242.650858 L74.8880715,179.218378 L74.8880715,174.375853 L98.0788166,192.100858 L94.7148258,167.762208 L97.1395255,167.744684 L102.844817,195.742858 L144.529817,227.603858 L146.842817,121.898858 L117.550375,95.0917861 L117.550375,90.6370536 L146.981817,115.512858 L148.399121,50.7678576 L151.41925,50.7678576 Z"></path><path id="[tree]tree--globalStyle1/objects/tree/3" fill="#7d78b6" d="M99.1534068,328.637872 C78.0815368,322.709938 68.586523,310.93966 70.6683654,293.327039 C89.7773717,290.783524 99.2723855,302.553802 99.1534068,328.637872 Z M291.530615,295.169939 C280.164424,298.064537 270.838001,297.844639 263.551346,294.510244 C265.321547,301.978679 263.151089,311.642167 257.04124,323.499404 C240.957292,308.651148 237.840767,293.853108 247.691665,279.105284 C248.370445,279.344562 249.028227,279.595534 249.665011,279.858199 C249.508151,279.521926 249.355677,279.179617 249.206429,278.832381 C264.483557,267.07513 278.591619,272.520982 291.530615,295.169939 Z M68.8539745,293.901529 C68.2410066,294.278362 67.6321636,294.631529 67.0274456,294.961031 C67.3879208,295.051241 67.7494572,295.148056 68.1127874,295.250466 C67.63568,314.522102 54.5249665,322.058939 28.7806471,317.860978 C33.6838867,307.206616 39.7237792,300.097164 46.9003247,296.532621 C39.9827228,293.207271 33.8389436,285.439197 28.4693847,273.229388 C50.1306037,270.074124 63.5921336,276.964837 68.8539745,293.901529 Z M229.148047,308.628589 C215.67646,317.464763 206.385356,316.505782 201.274734,305.751646 C209.697794,298.748454 218.988898,299.707435 229.148047,308.628589 Z M258.356048,232.704605 C267.010136,252.811093 263.838318,267.59738 248.840594,277.063467 C234.838225,263.813666 238.010043,249.027378 258.356048,232.704605 Z M223.680713,268.681945 C212.152667,276.929684 201.925159,272.565787 192.998191,255.590255 C208.724921,252.164822 218.952428,256.528719 223.680713,268.681945 Z M86.061835,228.189279 C102.654182,242.467168 106.285252,257.147429 96.9550469,272.23006 C78.56147,266.459452 74.9303994,251.779192 86.061835,228.189279 Z M229.06722,235.486974 C239.304977,251.705721 237.970469,262.744951 225.063694,268.604662 C216.902834,258.433235 218.237342,247.394005 229.06722,235.486974 Z M30.2609434,215.241805 C50.4533135,223.693567 58.4431169,236.533262 54.2303535,253.760889 C34.9538065,253.956643 26.9640031,241.116948 30.2609434,215.241805 Z M74.5315821,225.912124 C80.5156769,236.58104 79.6166111,244.983976 71.8343848,251.12093 C63.2784365,244.575111 64.1775023,236.172176 74.5315821,225.912124 Z M181.515408,183.383458 C199.696389,189.792478 202.812914,204.590518 190.864983,227.777579 C174.781035,212.929323 171.66451,198.131282 181.515408,183.383458 Z M242.76551,218.551057 C223.594677,217.969134 215.188988,210.689718 217.548444,196.712807 C230.544435,195.634938 238.950124,202.914354 242.76551,218.551057 Z M96.9275262,196.91311 C95.2790944,208.269837 87.373426,214.036248 73.2105212,214.21234 C77.5044874,197.889588 85.4101557,192.123178 96.9275262,196.91311 Z M119.177767,186.188173 C119.653721,198.241183 115.455495,203.834136 106.583088,202.967031 C105.336702,194.860837 109.534929,189.267884 119.177767,186.188173 Z M246.268679,177.406864 C240.314216,192.360392 230.977232,198.39912 218.257727,195.523048 C217.866444,181.353787 227.203428,175.315059 246.268679,177.406864 Z M47.6377684,145.728662 C69.0718202,150.172256 79.3647577,161.251523 78.5165809,178.966463 C77.8118384,179.110893 77.1190612,179.234504 76.4382494,179.337297 C76.7454652,179.545243 77.0522113,179.759958 77.3587294,179.980548 C70.3191073,197.926782 55.4213165,200.524964 32.6653568,187.775095 C40.9170729,179.440104 49.024457,174.82515 56.9875093,173.930234 C51.6238472,168.439277 48.5074915,159.038451 47.6377684,145.728662 Z M117.68533,145.020675 C118.442114,164.185402 111.766781,173.078401 97.6593304,171.699673 C95.677532,158.810527 102.352865,149.917528 117.68533,145.020675 Z M75.1580282,142.253089 C90.4904927,147.149942 97.1658258,156.042941 95.1840273,168.932086 C81.0765766,170.310814 74.4012436,161.417815 75.1580282,142.253089 Z M182.780462,134.634697 C190.159553,148.938985 188.591427,159.947458 178.076082,167.660117 C167.1257,158.659551 168.693826,147.651078 182.780462,134.634697 Z M253.322434,136.032818 C246.282812,153.979052 231.385021,156.577234 208.629061,143.827365 C224.029594,128.271411 238.927385,125.673229 253.322434,136.032818 Z M149.607169,126.826758 C142.567547,144.772992 127.669756,147.371174 104.913797,134.621305 C120.31433,119.065352 135.21212,116.467169 149.607169,126.826758 Z M225.813609,89.666642 C240.26986,102.419696 237.616009,117.307671 217.852054,134.330567 C208.501532,114.53835 211.155384,99.6503751 225.813609,89.666642 Z M196.896468,126.083682 C185.368422,134.331421 175.140914,129.967525 166.213946,112.991993 C181.940676,109.56656 192.168184,113.930456 196.896468,126.083682 Z M202.282975,92.8887112 C212.520733,109.107459 211.186224,120.146688 198.279449,126.0064 C190.118589,115.834972 191.453098,104.795743 202.282975,92.8887112 Z M122.055417,95.7451918 C115.015795,113.691426 100.118004,116.289608 77.3620444,103.539739 C92.7625774,87.9837852 107.660368,85.3856029 122.055417,95.7451918 Z M141.470565,77.9023073 C144.966102,91.6281989 141.442315,100.756945 130.899204,105.288545 C123.291571,95.4033451 126.815358,86.2745991 141.470565,77.9023073 Z M100.284358,51.1436043 C119.482662,61.6597448 126.086583,75.2642644 120.09612,91.9571631 C100.90471,90.1368965 94.3007893,76.5323769 100.284358,51.1436043 Z M174.84347,77.5227312 C160.764673,79.0739752 152.215184,74.3140056 149.195002,63.2428224 C160.042778,57.0849801 168.592267,61.8449497 174.84347,77.5227312 Z M187.49121,32.2660792 C180.107818,52.8731075 167.703873,61.5239388 150.279377,58.2185733 C149.075035,38.978689 161.478979,30.3278577 187.49121,32.2660792 Z M149.421975,57.5772727 C138.147301,59.7160387 130.121219,54.1184419 125.34373,40.7844824 C142.175173,39.5303391 150.201255,45.1279358 149.421975,57.5772727 Z" opacity="1.00"></path><path id="shadow--globalStyle1/objects/tree/3" fill="#000" fill-opacity=".2" d="M247.691665,279.105284 C265.872645,285.514303 268.98917,300.312343 257.04124,323.499404 C240.957292,308.651148 237.840767,293.853108 247.691665,279.105284 Z M68.1127874,295.250466 C67.63568,314.522102 54.5249665,322.058939 28.7806471,317.860978 C37.9319648,297.975871 51.0426782,290.439033 68.1127874,295.250466 Z M242.76551,218.551057 C223.594677,217.969134 215.188988,210.689718 217.548444,196.712807 C230.544435,195.634938 238.950124,202.914354 242.76551,218.551057 Z M47.6377684,145.728662 C69.0718202,150.172256 79.3647577,161.251523 78.5165809,178.966463 C59.6315498,182.836759 49.3386124,171.757492 47.6377684,145.728662 Z M182.780462,134.634697 C190.159553,148.938985 188.591427,159.947458 178.076082,167.660117 C167.1257,158.659551 168.693826,147.651078 182.780462,134.634697 Z M149.421975,57.5772727 C138.147301,59.7160387 130.121219,54.1184419 125.34373,40.7844824 C142.175173,39.5303391 150.201255,45.1279358 149.421975,57.5772727 Z"></path></g></g></svg></g>
</g></g><!----><g transform="translate(431,364.5)">
<g transform="translate(336,0) scale(-1, 1)">
<g transform="translate(74.5,86)">

<g><svg xmlns="http://www.w3.org/2000/svg" width="120" height="150" viewBox="0 0 120 150"><g id="Symbols--globalStyle1/people/mansitting/head/1" fill="none" fill-rule="evenodd" stroke="none" stroke-width="1"><g id="globalStyle1/people/mansitting/head/1--globalStyle1/people/mansitting/head/1"><path id="[skin]neck--globalStyle1/people/mansitting/head/1" fill="#CC8980" d="M73.5962896,31.8571569 C74.7871802,20.5940317 80.0362067,12.2615231 85.3203185,13.2459779 C90.6044303,14.2304327 93.9226418,24.159058 92.7317513,35.4221831 C91.9415604,42.895598 89.3646888,49.0787465 86.1764021,52.1059664 L88.2485,92.0485 L68.7515,92.0485 L73.7796309,42.1737448 C73.298852,39.0516383 73.2084581,35.5251647 73.5962896,31.8571569 Z" opacity="1.00"></path><polygon id="shadow--globalStyle1/people/mansitting/head/1" fill="#000" fill-opacity=".04" points="68.7515 92.0485 88.2485 92.0485 85.5739012 40.509 74.2565 37.4535"></polygon><path id="[hair]hair--globalStyle1/people/mansitting/head/1" fill="#cac9c9" d="M80.9935363,7.69177273 C95.9863414,5.98062769 95.670895,5.48069524 95.7567405,6.97962248 C95.8905852,9.31665372 95.3836929,24.2441008 91.1232358,23.8521417 C88.4178228,23.6032456 81.5187993,19.718292 78.0049348,21.3428627 C77.266691,21.6841762 76.6877328,24.8960053 76.2680605,30.97835 L76.2910761,30.6426547 L78.5370248,39.1687717 L85.7988346,39.1687717 C88.8794649,37.7707387 90.8242658,38.0536568 91.6332373,40.017526 C92.8466944,42.9633298 87.6831727,58.4950302 80.0899892,54.410355 C75.0278669,51.6872381 72.6056863,45.5385085 72.8234475,35.9641661 L72.9215306,35.7665222 C68.3683495,18.1838598 71.059018,8.82561003 80.9935363,7.69177273 Z" transform="rotate(-2 83.275 30.59)" opacity="1.00"></path><path id="smile--globalStyle1/people/mansitting/head/1" fill="#FFF" fill-rule="nonzero" d="M89.2777577,44.8888747 C89.9340077,44.8888747 91.2777577,44.4523947 91.2777577,42.8888747 C91.2777577,42.8888747 87.2777577,42.8888747 87.2777577,42.8888747 C87.2777577,44.336656 88.6215077,44.8888747 89.2777577,44.8888747 Z" transform="rotate(-2 89.278 43.889)"></path></g></g></svg></g>
</g>
<g transform="translate(59,248)">

<g><svg xmlns="http://www.w3.org/2000/svg" width="251" height="180" viewBox="0 0 251 180"><g id="Symbols--globalStyle1/people/mansitting/bottom/1" fill="none" fill-rule="evenodd" stroke="none" stroke-width="1"><g id="globalStyle1/people/mansitting/bottom/1--globalStyle1/people/mansitting/bottom/1"><path id="[clothes]shoes--globalStyle1/people/mansitting/bottom/1" fill="#b5c7fc" d="M216.521486,178.790735 L216.521486,176.686761 C216.521486,176.686761 206.584974,176.678602 186.596707,176.695939 L186.596707,178.787675" opacity="1.00"></path><path id="Fill-6--globalStyle1/people/mansitting/bottom/1" fill="#E9E9E9" d="M205.915916,150.770389 L206.32896,176.718728 L236.253739,176.709549 C236.253739,176.709549 235.233878,174.649429 231.601131,174.581098 C226.15099,174.478092 213.167132,175.046155 213.684202,171.579645 C213.843301,170.51185 214.253285,164.903631 215.074273,151.740278"></path><path id="shadow--globalStyle1/people/mansitting/bottom/1" fill="#000" fill-opacity=".04" d="M205.915916,150.770389 L206.32896,176.718728 L236.253739,176.709549 C236.253739,176.709549 235.233878,174.649429 231.601131,174.581098 C226.15099,174.478092 213.167132,175.046155 213.684202,171.579645 C213.843301,170.51185 214.253285,164.903631 215.074273,151.740278"></path><path id="[clothes]shoes--globalStyle1/people/mansitting/bottom/1" fill="#b5c7fc" d="M236.253841,178.813626 L236.253841,176.709651 C236.253841,176.709651 226.31733,176.701492 206.329062,176.71883 L206.329062,178.810566" opacity="1.00"></path><path id="[clothes]pants--globalStyle1/people/mansitting/bottom/1" fill="#b5c7fc" d="M85.0808907,23.3799252 L205.999616,44.4069112 C205.999616,44.4069112 216.002739,46.0537877 219.114105,55.5243852 C220.047689,57.36325 220.656921,59.3855526 220.869086,61.5207494 C220.947384,61.950468 220.994649,62.3140824 221.017239,62.5944731 C223.14875,89.1047555 224.083963,162.141124 224.083963,162.141124 L193.283123,161.903496 L187.3115,77.7038528 L96.8924223,70.1284422 C96.8924223,70.1284422 76.7578384,67.9815919 73.9853208,46.5228786 C70.4393926,19.0702099 85.0808907,23.3799252 85.0808907,23.3799252 Z" opacity="1.00"></path><path id="Fill-1--globalStyle1/people/mansitting/bottom/1" fill="#E9E9E9" d="M186.184071,150.747499 L186.596095,176.695837 L216.521894,176.686659 C216.521894,176.686659 215.502032,174.626538 211.869285,174.558207 C206.419145,174.454182 193.435287,175.023264 193.952356,171.556755 C194.111455,170.48794 194.521439,164.880741 195.341408,151.717387"></path><path id="shadow--globalStyle1/people/mansitting/bottom/1" fill="#000" fill-opacity=".04" d="M85.0808907,23.3799252 L205.999616,44.4069112 C205.999616,44.4069112 217.425196,46.2879757 219.652537,57.5902666 C220.581705,59.7433338 220.940785,61.6455255 221.017239,62.5944731 C223.14875,89.1047555 224.083963,162.141124 224.083963,162.141124 L193.283123,161.903496 L187.3115,77.7038528 L96.8924223,70.1284422 C96.8924223,70.1284422 76.7578384,67.9815919 73.9853208,46.5228786 C70.4393926,19.0702099 85.0808907,23.3799252 85.0808907,23.3799252 Z"></path><path id="[clothes]pants--globalStyle1/people/mansitting/bottom/1" fill="#b5c7fc" d="M70.0905368,25.3733593 L191.009492,46.3993516 C191.009492,46.3993516 204.420606,48.6081335 205.015601,62.6131876 C205.131899,63.2081446 205.194646,63.7025229 205.218869,64.0607927 C207.016885,90.5955518 208.101351,163.020497 208.101351,163.020497 L173.990682,163.020497 L171.145667,79.6000293 L81.9020685,72.1218763 C81.9020685,72.1218763 60.3694268,70.1096617 58.994967,48.5163127 C57.1659672,19.779047 70.0905368,25.3733593 70.0905368,25.3733593 Z" opacity="1.00"></path></g></g></svg></g>
</g>
<g transform="translate(108,142)">

<g><svg xmlns="http://www.w3.org/2000/svg" width="193" height="178" viewBox="0 0 193 178"><g id="Symbols--globalStyle1/people/mansitting/top/6" fill="none" fill-rule="evenodd" stroke="none" stroke-width="1"><g id="globalStyle1/people/mansitting/top/6--globalStyle1/people/mansitting/top/6"><polygon id="Fill-18--globalStyle1/people/mansitting/top/6" fill="#757578" points="77.5 154.521173 77.5032884 156.487647 129.499779 159 129.499779 157.181504"></polygon><polygon id="Fill-20--globalStyle1/people/mansitting/top/6" fill="#B0B0B6" points="129.499779 157.181175 77.5 154.520844 117.469644 137.254449 156.971236 139.281211"></polygon><polygon id="Fill-22--globalStyle1/people/mansitting/top/6" fill="#8C8C92" points="130.370552 155.458811 104.057715 154.20373 133.428783 139.376247 154.267498 140.442791"></polygon><polyline id="Fill-24--globalStyle1/people/mansitting/top/6" fill="#8B8B8D" points="129.4966 157.181175 129.499888 158.999671 156.973538 140.859653 156.971346 139.281211"></polyline><polygon id="Fill-26--globalStyle1/people/mansitting/top/6" fill="#9D9DA3" points="109.775181 147.710965 99.3837746 147.196876 108.800712 143.10937 118.47305 143.588383"></polygon><path id="[skin]hand--globalStyle1/people/mansitting/top/6" fill="#CC8980" d="M56.2367397,39.659509 C59.309049,39.668606 69.5123412,39.7780572 75.5203027,40.7995475 C74.7303942,45.2363567 71.0360215,86.2741389 69.6656004,100.235327 C75.5824678,103.967703 87.0463953,111.887231 109.923874,127.19363 L119.802765,130.91495 C123.707288,132.531442 126.390534,134.467696 127.826672,135.320973 C130.449137,136.879427 135.836893,141.097946 136.277508,141.875512 C136.718281,142.652112 136.21399,143.039734 134.963632,142.115755 C134.337219,141.652587 134.105644,141.433961 133.714632,141.2009 C133.41894,141.024989 131.920377,139.97792 131.525447,139.757139 C129.796488,138.785847 128.431056,137.907702 128.562711,138.137819 C128.694207,138.368904 131.179429,139.621097 132.957894,140.922898 C133.379587,141.229989 134.317921,142.315357 134.548473,142.598218 C135.531097,143.802291 136.177695,144.809435 136.48795,145.621584 C136.606893,145.934957 136.385067,146.196303 135.99234,146.205689 C135.907322,146.207569 135.817549,146.197825 135.729838,146.175518 C135.116923,146.024484 134.310967,144.544246 133.444227,143.683789 C133.155314,143.39697 132.54103,142.7613 132.204963,142.49502 C130.047186,140.778673 126.651961,139.080444 127.172772,139.502724 C127.693584,139.925003 129.662524,141.382689 130.801355,142.156893 C131.715784,142.778949 132.134605,143.028144 133.489975,144.941963 C134.302794,146.090391 135.486542,148.336623 135.442907,148.567717 C135.399589,148.796877 134.999056,148.703035 134.96135,148.683409 C134.250296,148.324215 133.800973,148.034699 133.615711,147.812247 C132.264736,146.202238 131.726095,144.589448 129.730389,143.405058 C127.735929,142.218876 125.384787,140.532446 125.563612,140.817317 C125.678104,141.001226 127.040842,142.174174 128.148544,143.109064 C129.784552,144.490163 131.510892,146.295181 131.989291,146.952703 C132.317372,147.401034 132.605438,147.826414 132.854892,148.226086 C132.965533,148.404454 132.883402,148.580138 132.671421,148.619101 C132.593785,148.633995 132.506321,148.627576 132.419856,148.603478 C131.818017,148.43135 131.394144,148.207141 131.146991,147.932641 C130.34464,147.039418 130.193962,146.803423 128.872093,145.752621 C128.642395,145.568955 126.701077,144.215542 126.323977,143.909315 C123.663734,141.751695 120.534552,140.288252 120.33219,140.401991 C118.6047,141.36467 120.42426,141.85348 121.334791,143.798448 C123.27018,144.445614 124.519459,145.248568 125.758233,146.643318 C125.812457,146.70372 125.736584,146.96879 125.317687,146.883976 L125.205693,146.855162 L118.748545,144.675586 L114.407529,140.064095 L107.474563,134.500774 L107.490217,134.449998 C107.489214,134.449714 107.48821,134.449431 107.487207,134.449147 L107.444284,134.540734 C70.4761357,120.829754 52.2520745,114.819553 52.771658,107.090902 C52.7721553,106.981688 52.7738752,106.873314 52.7767976,106.765784 C50.6879579,94.1944119 54.7272159,51.4151432 55.3353224,39.6596257 L56.2367397,39.659509 Z" opacity="1.00"></path><path id="Fill-20--globalStyle1/people/mansitting/top/6" fill="#294B67" d="M60.9733946,28.5840669 L60.9733946,28.5840669 C68.8176735,27.4673233 76.1131027,33.3029182 77.2115714,41.5744927 L80.1773332,63.8918218 L52.1329787,67.8863207 L48.9759957,45.4232198 C47.8240341,37.2265872 53.1920417,29.6929884 60.9733946,28.5840669"></path><path id="shadow--globalStyle1/people/mansitting/top/6" fill="#000" fill-opacity=".04" d="M60.9733946,28.5840669 L60.9733946,28.5840669 C68.8176735,27.4673233 76.1131027,33.3029182 77.2115714,41.5744927 L80.1773332,63.8918218 L52.1329787,67.8863207 L48.9759957,45.4232198 C47.8240341,37.2265872 53.1920417,29.6929884 60.9733946,28.5840669"></path><path id="[clothes]tshirt--globalStyle1/people/mansitting/top/6" fill="#294b67" d="M53.3637103,28.1431761 C53.3637103,28.1431761 42.3370137,19 37.3210908,19 C10.0282601,19 2.28974629,39.7330122 3.05006595,69.3287657 C3.14318591,72.9403361 3.54446574,87.7172964 4.70606522,114.607858 C5.01710508,121.810083 5.35790493,144.575184 5.70734478,151.741551 C7.01774419,178.572352 76.4170734,167.046403 75.050994,140.162813 C74.7687541,134.607011 75.8141937,103.692469 77.1533931,69.9532706 C77.5066729,61.0448631 78.0922727,42.2200754 75.3159539,34.7011165 C71.5882756,24.6034606 59.4135059,21.3880007 53.9885483,20.5921803 C53.5719896,25.6261775 53.3637103,28.1431761 53.3637103,28.1431761 Z" opacity="1.00"></path><path id="[skin]hand--globalStyle1/people/mansitting/top/6" fill="#CC8980" d="M32.3672113,52.8546507 C33.0243739,68.8177421 34.4902357,94.9983047 34.8839342,104.899612 L35.1248074,105.140822 C39.1523699,109.21882 49.6878378,121.981963 71.9353406,147.963405 L72.3807605,148.483412 L72.43388,148.492896 C74.3426641,148.882784 75.6126402,150.610263 75.2932738,152.439175 C74.9632618,154.329051 73.0615308,155.609467 71.0462052,155.300148 C70.631565,155.236508 70.2443665,155.110546 69.8937438,154.934143 L69.8614202,155.008412 C44.4485709,139.067864 28.5909466,127.433155 21.7779395,119.281587 C21.4880058,119.017905 21.2104398,118.729466 20.9472002,118.417422 C20.3945083,117.76226 19.9401325,117.044748 19.5833722,116.287092 C19.3570015,115.91831 19.1531112,115.558857 18.972222,115.207973 C18.3622233,114.48118 17.930447,113.729416 17.7433934,113.025577 C15.8459344,105.888384 9.82083007,74.3263138 7.6426725,54.8394225 C6.83118367,47.5764319 11.7957718,41.0966402 18.6250233,40.43712 L18.9188357,40.412433 L19.2531129,40.3889402 C26.1364098,39.9087198 32.0661615,45.5501561 32.3672113,52.8546507 Z" opacity="1.00"></path><path id="[skin]hand--globalStyle1/people/mansitting/top/6" fill="#CC8980" d="M69.8614202,154.993658 L73.2674342,148.771174 L77.1399465,149.158905 L86.955879,148.938581 L93.3803547,151.737026 C93.8856752,151.973792 93.7552346,152.262077 93.6653511,152.270846 C91.7821828,152.449517 90.287048,152.18754 88.3655149,151.344608 C86.368348,152.150271 84.6419278,151.270071 85.3313997,153.152143 C85.4125141,153.373563 88.797394,154.431338 92.2820226,154.659335 C92.7774778,154.693315 95.1736395,155.021061 95.4717896,155.04408 C97.1905369,155.172329 97.4623796,155.103272 98.6758064,154.993658 C99.0484939,154.960774 99.5231225,155.085734 100.10298,155.369634 C100.185191,155.410191 100.25644,155.466094 100.306863,155.528574 C100.444976,155.701764 100.390169,155.887012 100.186287,155.941819 C99.7281007,156.065683 99.2238763,156.179681 98.672518,156.287103 C97.8668552,156.442755 95.3347721,156.590734 93.1567422,156.489889 C91.6802418,156.421928 89.8496882,156.353967 89.6381332,156.40987 C89.3114836,156.497562 92.24585,156.862576 94.5707626,157.350358 C96.8967714,157.840333 98.3853293,157.024805 100.497591,156.762828 C100.788068,156.726655 101.327369,156.819827 102.114397,157.040151 C102.15605,157.052208 102.527642,157.25609 102.408163,157.454492 C102.287587,157.652893 99.8815602,158.493632 98.4905588,158.783013 C96.172223,159.265315 95.6844407,159.162278 94.5663781,158.994568 C93.1731843,158.787398 90.6860429,158.515555 90.004244,158.470613 C89.322445,158.426768 93.0679549,159.492216 95.8718806,159.703771 C96.3081443,159.736655 97.2047867,159.689521 97.6180314,159.676367 C98.8577656,159.633618 100.464707,159.096509 101.036892,159.403428 C101.119102,159.44837 101.194736,159.500985 101.259408,159.561273 C101.556462,159.835308 101.553174,160.179495 101.252831,160.326378 C100.473476,160.711123 99.3049907,161.009273 97.7473759,161.224117 C97.3801691,161.274539 95.9354567,161.430191 95.4060212,161.369903 C93.1698959,161.112311 90.4218732,160.338436 90.1675688,160.418454 C89.9121682,160.498472 91.548705,160.783469 93.5272375,161.249328 C93.9777509,161.355654 95.8291312,161.607766 96.1744152,161.681207 C96.6304094,161.776571 96.9548668,161.774379 97.7451837,161.860974 C99.3236251,162.033068 99.4540657,162.661156 98.5979805,162.931903 C97.7407991,163.201553 90.7835994,162.62608 87.7253692,161.983742 C86.0515636,161.631881 82.6951834,161.225213 78.6109662,159.752001 L69.8614202,154.993658 Z" opacity="1.00"></path><path id="Fill-20--globalStyle1/people/mansitting/top/6" fill="#294B67" d="M19.9819621,31.8695652 L19.9819621,31.8695652 C27.9053217,31.8554245 34.3175945,38.6495553 34.2541922,46.9935086 L34.0851196,69.5064013 L5.75776398,69.5590062 L5.75776398,46.8751475 C5.75776398,38.5979619 12.1220047,31.8847618 19.9819621,31.8695652"></path><path id="shadow--globalStyle1/people/mansitting/top/6" fill="#000" fill-opacity=".04" d="M19.9819621,31.8695652 L19.9819621,31.8695652 C27.9053217,31.8554245 34.3175945,38.6495553 34.2541922,46.9935086 L34.0851196,69.5064013 L5.75776398,69.5590062 L5.75776398,46.8751475 C5.75776398,38.5979619 12.1220047,31.8847618 19.9819621,31.8695652"></path><polygon id="Fill-35--globalStyle1/people/mansitting/top/6" fill="#818182" points="128.521884 157.412819 155.993342 139.512855 176.790403 99.0488519 149.008738 116.879759"></polygon><path id="Fill-38--globalStyle1/people/mansitting/top/6" fill="#BEBEBF" d="M155.59621,129.987948 C154.568031,132.136382 153.383104,133.529575 152.490846,133.103177 C151.599684,132.675682 151.710394,130.588632 152.738574,128.440198 C153.767849,126.29286 155.324368,124.896378 156.215529,125.323872 C157.107787,125.751367 156.624389,127.839513 155.59621,129.987948"></path></g></g></svg></g>
</g>
<g transform="translate(26,150)">

<g><svg xmlns="http://www.w3.org/2000/svg" width="198" height="277" viewBox="0 0 198 277"><g id="Symbols--globalStyle1/people/mansitting/chair/1" fill="none" fill-rule="evenodd" stroke="none" stroke-width="1"><g id="globalStyle1/people/mansitting/chair/1--globalStyle1/people/mansitting/chair/1"><polygon id="Path-200--globalStyle1/people/mansitting/chair/1" fill="#525252" points="16.5852538 257.045975 20.3117575 277 29.0302965 277 31.7588382 255.801129"></polygon><polygon id="Path-200-Copy--globalStyle1/people/mansitting/chair/1" fill="#525252" points="153.085254 257.045975 156.811757 277 165.530296 277 168.258838 255.801129"></polygon><rect id="[chair]chair--globalStyle1/people/mansitting/chair/1" width="184.76" height="39.849" x="-.26" y="219" fill="#fbafef" fill-rule="nonzero" opacity="1.00"></rect><rect id="[chair]chair--globalStyle1/people/mansitting/chair/1" width="171" height="38" x="21" y="174.347" fill="#fbafef" fill-rule="nonzero" opacity="1.00"></rect><rect id="shadow--globalStyle1/people/mansitting/chair/1" width="184.76" height="39.849" x="-.26" y="219.21" fill="#000" fill-opacity=".08"></rect><rect id="shadow--globalStyle1/people/mansitting/chair/1" width="171" height="38" x="21" y="174.347" fill="#000" fill-opacity=".15"></rect><rect id="[chair]chair--globalStyle1/people/mansitting/chair/1" width="33" height="106" x="-.26" y="95.347" fill="#fbafef" fill-rule="nonzero" rx="4" opacity="1.00"></rect><rect id="[chair]chair--globalStyle1/people/mansitting/chair/1" width="32" height="117" x="32.74" y="74.347" fill="#fbafef" fill-rule="nonzero" rx="11" opacity="1.00"></rect><rect id="shadow--globalStyle1/people/mansitting/chair/1" width="33" height="106" x="-.26" y="95.347" fill="#000" fill-opacity=".04" rx="4"></rect><rect id="shadow--globalStyle1/people/mansitting/chair/1" width="32" height="117" x="32.74" y="74.347" fill="#000" fill-opacity=".08" rx="11"></rect><path id="[chair]chair--globalStyle1/people/mansitting/chair/1" fill="#fbafef" fill-rule="nonzero" d="M10.7404636,132.84713 C60.4847371,132.84713 114.737916,132.84713 173.5,132.84713 C179.575132,132.84713 184.5,138.532285 184.5,145.545279 L184.5,207.148981 C184.5,214.161975 179.575132,219.84713 173.5,219.84713 L10.7404636,219.84713 C4.66533136,219.84713 -0.259536394,214.161975 -0.259536394,207.148981 L-0.259536394,145.545279 C-0.259536394,137.079846 3.40713027,132.84713 10.7404636,132.84713 Z" opacity="1.00"></path></g></g></svg></g>
</g>
</g></g><!----><!----><!----></svg>