<?xml version="1.0" encoding="UTF-8"?>
<svg id="illustration-builder" width="1000" height="880" viewBox="-10 -30 1070 940" version="1.1" xmlns="http://www.w3.org/2000/svg" xmlns:xlink="http://www.w3.org/1999/xlink" style="pointer-events: inherit;"><g transform="translate(0,0)">
<g><svg xmlns="http://www.w3.org/2000/svg" width="1000" height="880" viewBox="0 0 1000 880"><g id="Symbols--globalStyle1/communication/bg1" fill="none" fill-rule="evenodd" stroke="none" stroke-width="1"><g id="globalStyle1/communication/bg1--globalStyle1/communication/bg1" fill="#FFEEFC" fill-rule="nonzero"><path id="[background]background--globalStyle1/communication/bg1" d="M0.5,572.762952 L1000.5,572.762952 C951.819877,489.716678 901.767069,453.909533 850.341578,465.341517 C773.203342,482.489494 765.646861,527.161182 728.869444,527.161182 C692.092027,527.161182 661.309484,400.393446 580.904742,406.193101 C500.5,411.992756 492.834118,499.077225 439.525597,513.119203 C386.217076,527.161182 325.023622,406.193101 263.516446,406.193101 C202.009271,406.193101 222.097896,499.077225 171.309781,513.119203 C120.521666,527.161182 107.322271,470.536108 62.8195843,482.830123 C33.1511267,491.026132 12.3779319,521.003742 0.5,572.762952 Z" fill="#cbf6ff" opacity="1.00"></path></g></g></svg></g></g><g transform="translate(198,404)">
<g><svg xmlns="http://www.w3.org/2000/svg" width="123" height="285" viewBox="0 0 123 285"><g id="Symbols--globalStyle1/objects/party/3" fill="none" fill-rule="evenodd" stroke="none" stroke-width="1"><g id="globalStyle1/objects/party/3--globalStyle1/objects/party/3"><polygon id="[objects]music--globalStyle1/objects/party/3" fill="#98dcea" fill-rule="nonzero" points="-0.139272714 280.015286 122.510623 280.015286 122.510623 81.5080956 -0.139272714 81.5080956" opacity="1.00"></polygon><path id="Fill-2--globalStyle1/objects/party/3" fill="#FEFEFE" d="M110.425069,216.402179 C110.425069,243.597244 88.3841988,265.645235 61.1835391,265.645235 C33.9920343,265.645235 11.9465865,243.597244 11.9465865,216.402179 C11.9465865,189.205588 33.9920343,167.160649 61.1835391,167.160649 C88.3841988,167.160649 110.425069,189.205588 110.425069,216.402179"></path><path id="Fill-6--globalStyle1/objects/party/3" fill="#FEFEFE" d="M90.2626774,124.954742 C90.2626774,141.012902 77.2429192,154.031643 61.1832339,154.031643 C45.1235486,154.031643 32.1088765,141.012902 32.1088765,124.954742 C32.1088765,108.8976 45.1235486,95.876316 61.1832339,95.876316 C77.2429192,95.876316 90.2626774,108.8976 90.2626774,124.954742"></path><path id="[objects]music--globalStyle1/objects/party/3" fill="#98dcea" fill-rule="nonzero" d="M24.3434063,280.015286 L24.3434063,285.256452 L5.79206913,285.256452 L5.79206913,280.015286 L24.3434063,280.015286 Z M116.574195,280.015286 L116.574195,285.256452 L98.0330302,285.256452 L98.0330302,280.015286 L116.574195,280.015286 Z M61.1831831,185.437849 C78.2911016,185.437849 92.1510738,199.30189 92.1510738,216.402179 C92.1510738,233.503486 78.2911016,247.363967 61.1831831,247.363967 C44.0803506,247.363967 30.2254644,233.503486 30.2254644,216.402179 C30.2254644,199.30189 44.0803506,185.437849 61.1831831,185.437849 Z M61.1831831,109.9143 C69.4922494,109.9143 76.2246428,116.650762 76.2246428,124.954742 C76.2246428,133.257705 69.4922494,139.993659 61.1831831,139.993659 C52.8837802,139.993659 46.1417233,133.257705 46.1417233,124.954742 C46.1417233,116.650762 52.8837802,109.9143 61.1831831,109.9143 Z" opacity="1.00"></path><path id="shadow--globalStyle1/objects/party/3" fill="#000" fill-opacity=".3" d="M61.1780462,185.437849 C78.2859647,185.437849 92.1459369,199.30189 92.1459369,216.402179 C92.1459369,233.503486 78.2859647,247.363967 61.1780462,247.363967 C44.0752137,247.363967 30.2203275,233.503486 30.2203275,216.402179 C30.2203275,199.30189 44.0752137,185.437849 61.1780462,185.437849 Z M61.1780462,109.9143 C69.4871125,109.9143 76.2195059,116.650762 76.2195059,124.954742 C76.2195059,133.257705 69.4871125,139.993659 61.1780462,139.993659 C52.8786433,139.993659 46.1365864,133.257705 46.1365864,124.954742 C46.1365864,116.650762 52.8786433,109.9143 61.1780462,109.9143 Z"></path></g></g></svg></g></g><g transform="translate(662,404)">
<g><svg xmlns="http://www.w3.org/2000/svg" width="123" height="285" viewBox="0 0 123 285"><g id="Symbols--globalStyle1/objects/party/3" fill="none" fill-rule="evenodd" stroke="none" stroke-width="1"><g id="globalStyle1/objects/party/3--globalStyle1/objects/party/3"><polygon id="[objects]music--globalStyle1/objects/party/3" fill="#98dcea" fill-rule="nonzero" points="-0.139272714 280.015286 122.510623 280.015286 122.510623 81.5080956 -0.139272714 81.5080956" opacity="1.00"></polygon><path id="Fill-2--globalStyle1/objects/party/3" fill="#FEFEFE" d="M110.425069,216.402179 C110.425069,243.597244 88.3841988,265.645235 61.1835391,265.645235 C33.9920343,265.645235 11.9465865,243.597244 11.9465865,216.402179 C11.9465865,189.205588 33.9920343,167.160649 61.1835391,167.160649 C88.3841988,167.160649 110.425069,189.205588 110.425069,216.402179"></path><path id="Fill-6--globalStyle1/objects/party/3" fill="#FEFEFE" d="M90.2626774,124.954742 C90.2626774,141.012902 77.2429192,154.031643 61.1832339,154.031643 C45.1235486,154.031643 32.1088765,141.012902 32.1088765,124.954742 C32.1088765,108.8976 45.1235486,95.876316 61.1832339,95.876316 C77.2429192,95.876316 90.2626774,108.8976 90.2626774,124.954742"></path><path id="[objects]music--globalStyle1/objects/party/3" fill="#98dcea" fill-rule="nonzero" d="M24.3434063,280.015286 L24.3434063,285.256452 L5.79206913,285.256452 L5.79206913,280.015286 L24.3434063,280.015286 Z M116.574195,280.015286 L116.574195,285.256452 L98.0330302,285.256452 L98.0330302,280.015286 L116.574195,280.015286 Z M61.1831831,185.437849 C78.2911016,185.437849 92.1510738,199.30189 92.1510738,216.402179 C92.1510738,233.503486 78.2911016,247.363967 61.1831831,247.363967 C44.0803506,247.363967 30.2254644,233.503486 30.2254644,216.402179 C30.2254644,199.30189 44.0803506,185.437849 61.1831831,185.437849 Z M61.1831831,109.9143 C69.4922494,109.9143 76.2246428,116.650762 76.2246428,124.954742 C76.2246428,133.257705 69.4922494,139.993659 61.1831831,139.993659 C52.8837802,139.993659 46.1417233,133.257705 46.1417233,124.954742 C46.1417233,116.650762 52.8837802,109.9143 61.1831831,109.9143 Z" opacity="1.00"></path><path id="shadow--globalStyle1/objects/party/3" fill="#000" fill-opacity=".3" d="M61.1780462,185.437849 C78.2859647,185.437849 92.1459369,199.30189 92.1459369,216.402179 C92.1459369,233.503486 78.2859647,247.363967 61.1780462,247.363967 C44.0752137,247.363967 30.2203275,233.503486 30.2203275,216.402179 C30.2203275,199.30189 44.0752137,185.437849 61.1780462,185.437849 Z M61.1780462,109.9143 C69.4871125,109.9143 76.2195059,116.650762 76.2195059,124.954742 C76.2195059,133.257705 69.4871125,139.993659 61.1780462,139.993659 C52.8786433,139.993659 46.1365864,133.257705 46.1365864,124.954742 C46.1365864,116.650762 52.8786433,109.9143 61.1780462,109.9143 Z"></path></g></g></svg></g></g><g transform="translate(680,133)">
<g><svg xmlns="http://www.w3.org/2000/svg" width="320" height="463" viewBox="0 0 320 463"><g id="Symbols--globalStyle1/objects/tree/3" fill="none" fill-rule="evenodd" stroke="none" stroke-width="1"><g id="globalStyle1/objects/tree/3--globalStyle1/objects/tree/3"><path id="Combined-Shape--globalStyle1/objects/tree/3" fill="#564931" d="M151.41925,50.7678576 L155.024817,183.972858 L190.718817,153.183858 L196.916888,122.768099 L199.341588,122.785623 L195.735817,148.854858 L219.71382,128.17221 L219.71382,133.915208 L174.864817,180.920858 L221.965046,194.540775 L220.249069,198.471127 L168.953817,187.115858 L155.491817,201.225858 L158.659817,318.254858 L205.820817,295.474858 L224.764257,262.833334 L227.50569,264.943447 L214.345817,291.356858 L253.737197,272.330637 L251.788884,279.601839 L206.442817,307.220858 L205.818429,308.476006 L205.735817,307.651858 L159.140817,336.032858 L162.578071,463 L139.380505,463 L142.708817,310.859858 L109.976817,290.921858 L67.0857518,295.795576 L66.0405194,292.49777 L102.012817,286.070858 L52.0251293,255.624389 L50.0768166,248.353187 L74.4938166,260.146858 L61.2487637,238.843939 L63.4567092,237.841715 L81.9478166,263.747858 L143.092817,293.282858 L144.200817,242.650858 L74.8880715,179.218378 L74.8880715,174.375853 L98.0788166,192.100858 L94.7148258,167.762208 L97.1395255,167.744684 L102.844817,195.742858 L144.529817,227.603858 L146.842817,121.898858 L117.550375,95.0917861 L117.550375,90.6370536 L146.981817,115.512858 L148.399121,50.7678576 L151.41925,50.7678576 Z"></path><path id="[tree]tree--globalStyle1/objects/tree/3" fill="#7d78b6" d="M99.1534068,328.637872 C78.0815368,322.709938 68.586523,310.93966 70.6683654,293.327039 C89.7773717,290.783524 99.2723855,302.553802 99.1534068,328.637872 Z M291.530615,295.169939 C280.164424,298.064537 270.838001,297.844639 263.551346,294.510244 C265.321547,301.978679 263.151089,311.642167 257.04124,323.499404 C240.957292,308.651148 237.840767,293.853108 247.691665,279.105284 C248.370445,279.344562 249.028227,279.595534 249.665011,279.858199 C249.508151,279.521926 249.355677,279.179617 249.206429,278.832381 C264.483557,267.07513 278.591619,272.520982 291.530615,295.169939 Z M68.8539745,293.901529 C68.2410066,294.278362 67.6321636,294.631529 67.0274456,294.961031 C67.3879208,295.051241 67.7494572,295.148056 68.1127874,295.250466 C67.63568,314.522102 54.5249665,322.058939 28.7806471,317.860978 C33.6838867,307.206616 39.7237792,300.097164 46.9003247,296.532621 C39.9827228,293.207271 33.8389436,285.439197 28.4693847,273.229388 C50.1306037,270.074124 63.5921336,276.964837 68.8539745,293.901529 Z M229.148047,308.628589 C215.67646,317.464763 206.385356,316.505782 201.274734,305.751646 C209.697794,298.748454 218.988898,299.707435 229.148047,308.628589 Z M258.356048,232.704605 C267.010136,252.811093 263.838318,267.59738 248.840594,277.063467 C234.838225,263.813666 238.010043,249.027378 258.356048,232.704605 Z M223.680713,268.681945 C212.152667,276.929684 201.925159,272.565787 192.998191,255.590255 C208.724921,252.164822 218.952428,256.528719 223.680713,268.681945 Z M86.061835,228.189279 C102.654182,242.467168 106.285252,257.147429 96.9550469,272.23006 C78.56147,266.459452 74.9303994,251.779192 86.061835,228.189279 Z M229.06722,235.486974 C239.304977,251.705721 237.970469,262.744951 225.063694,268.604662 C216.902834,258.433235 218.237342,247.394005 229.06722,235.486974 Z M30.2609434,215.241805 C50.4533135,223.693567 58.4431169,236.533262 54.2303535,253.760889 C34.9538065,253.956643 26.9640031,241.116948 30.2609434,215.241805 Z M74.5315821,225.912124 C80.5156769,236.58104 79.6166111,244.983976 71.8343848,251.12093 C63.2784365,244.575111 64.1775023,236.172176 74.5315821,225.912124 Z M181.515408,183.383458 C199.696389,189.792478 202.812914,204.590518 190.864983,227.777579 C174.781035,212.929323 171.66451,198.131282 181.515408,183.383458 Z M242.76551,218.551057 C223.594677,217.969134 215.188988,210.689718 217.548444,196.712807 C230.544435,195.634938 238.950124,202.914354 242.76551,218.551057 Z M96.9275262,196.91311 C95.2790944,208.269837 87.373426,214.036248 73.2105212,214.21234 C77.5044874,197.889588 85.4101557,192.123178 96.9275262,196.91311 Z M119.177767,186.188173 C119.653721,198.241183 115.455495,203.834136 106.583088,202.967031 C105.336702,194.860837 109.534929,189.267884 119.177767,186.188173 Z M246.268679,177.406864 C240.314216,192.360392 230.977232,198.39912 218.257727,195.523048 C217.866444,181.353787 227.203428,175.315059 246.268679,177.406864 Z M47.6377684,145.728662 C69.0718202,150.172256 79.3647577,161.251523 78.5165809,178.966463 C77.8118384,179.110893 77.1190612,179.234504 76.4382494,179.337297 C76.7454652,179.545243 77.0522113,179.759958 77.3587294,179.980548 C70.3191073,197.926782 55.4213165,200.524964 32.6653568,187.775095 C40.9170729,179.440104 49.024457,174.82515 56.9875093,173.930234 C51.6238472,168.439277 48.5074915,159.038451 47.6377684,145.728662 Z M117.68533,145.020675 C118.442114,164.185402 111.766781,173.078401 97.6593304,171.699673 C95.677532,158.810527 102.352865,149.917528 117.68533,145.020675 Z M75.1580282,142.253089 C90.4904927,147.149942 97.1658258,156.042941 95.1840273,168.932086 C81.0765766,170.310814 74.4012436,161.417815 75.1580282,142.253089 Z M182.780462,134.634697 C190.159553,148.938985 188.591427,159.947458 178.076082,167.660117 C167.1257,158.659551 168.693826,147.651078 182.780462,134.634697 Z M253.322434,136.032818 C246.282812,153.979052 231.385021,156.577234 208.629061,143.827365 C224.029594,128.271411 238.927385,125.673229 253.322434,136.032818 Z M149.607169,126.826758 C142.567547,144.772992 127.669756,147.371174 104.913797,134.621305 C120.31433,119.065352 135.21212,116.467169 149.607169,126.826758 Z M225.813609,89.666642 C240.26986,102.419696 237.616009,117.307671 217.852054,134.330567 C208.501532,114.53835 211.155384,99.6503751 225.813609,89.666642 Z M196.896468,126.083682 C185.368422,134.331421 175.140914,129.967525 166.213946,112.991993 C181.940676,109.56656 192.168184,113.930456 196.896468,126.083682 Z M202.282975,92.8887112 C212.520733,109.107459 211.186224,120.146688 198.279449,126.0064 C190.118589,115.834972 191.453098,104.795743 202.282975,92.8887112 Z M122.055417,95.7451918 C115.015795,113.691426 100.118004,116.289608 77.3620444,103.539739 C92.7625774,87.9837852 107.660368,85.3856029 122.055417,95.7451918 Z M141.470565,77.9023073 C144.966102,91.6281989 141.442315,100.756945 130.899204,105.288545 C123.291571,95.4033451 126.815358,86.2745991 141.470565,77.9023073 Z M100.284358,51.1436043 C119.482662,61.6597448 126.086583,75.2642644 120.09612,91.9571631 C100.90471,90.1368965 94.3007893,76.5323769 100.284358,51.1436043 Z M174.84347,77.5227312 C160.764673,79.0739752 152.215184,74.3140056 149.195002,63.2428224 C160.042778,57.0849801 168.592267,61.8449497 174.84347,77.5227312 Z M187.49121,32.2660792 C180.107818,52.8731075 167.703873,61.5239388 150.279377,58.2185733 C149.075035,38.978689 161.478979,30.3278577 187.49121,32.2660792 Z M149.421975,57.5772727 C138.147301,59.7160387 130.121219,54.1184419 125.34373,40.7844824 C142.175173,39.5303391 150.201255,45.1279358 149.421975,57.5772727 Z" opacity="1.00"></path><path id="shadow--globalStyle1/objects/tree/3" fill="#000" fill-opacity=".2" d="M247.691665,279.105284 C265.872645,285.514303 268.98917,300.312343 257.04124,323.499404 C240.957292,308.651148 237.840767,293.853108 247.691665,279.105284 Z M68.1127874,295.250466 C67.63568,314.522102 54.5249665,322.058939 28.7806471,317.860978 C37.9319648,297.975871 51.0426782,290.439033 68.1127874,295.250466 Z M242.76551,218.551057 C223.594677,217.969134 215.188988,210.689718 217.548444,196.712807 C230.544435,195.634938 238.950124,202.914354 242.76551,218.551057 Z M47.6377684,145.728662 C69.0718202,150.172256 79.3647577,161.251523 78.5165809,178.966463 C59.6315498,182.836759 49.3386124,171.757492 47.6377684,145.728662 Z M182.780462,134.634697 C190.159553,148.938985 188.591427,159.947458 178.076082,167.660117 C167.1257,158.659551 168.693826,147.651078 182.780462,134.634697 Z M149.421975,57.5772727 C138.147301,59.7160387 130.121219,54.1184419 125.34373,40.7844824 C142.175173,39.5303391 150.201255,45.1279358 149.421975,57.5772727 Z"></path></g></g></svg></g></g><g transform="translate(-20,148.5)">
<g transform="translate(320,0) scale(-1, 1)">
<g><svg xmlns="http://www.w3.org/2000/svg" width="320" height="463" viewBox="0 0 320 463"><g id="Symbols--globalStyle1/objects/tree/3" fill="none" fill-rule="evenodd" stroke="none" stroke-width="1"><g id="globalStyle1/objects/tree/3--globalStyle1/objects/tree/3"><path id="Combined-Shape--globalStyle1/objects/tree/3" fill="#564931" d="M151.41925,50.7678576 L155.024817,183.972858 L190.718817,153.183858 L196.916888,122.768099 L199.341588,122.785623 L195.735817,148.854858 L219.71382,128.17221 L219.71382,133.915208 L174.864817,180.920858 L221.965046,194.540775 L220.249069,198.471127 L168.953817,187.115858 L155.491817,201.225858 L158.659817,318.254858 L205.820817,295.474858 L224.764257,262.833334 L227.50569,264.943447 L214.345817,291.356858 L253.737197,272.330637 L251.788884,279.601839 L206.442817,307.220858 L205.818429,308.476006 L205.735817,307.651858 L159.140817,336.032858 L162.578071,463 L139.380505,463 L142.708817,310.859858 L109.976817,290.921858 L67.0857518,295.795576 L66.0405194,292.49777 L102.012817,286.070858 L52.0251293,255.624389 L50.0768166,248.353187 L74.4938166,260.146858 L61.2487637,238.843939 L63.4567092,237.841715 L81.9478166,263.747858 L143.092817,293.282858 L144.200817,242.650858 L74.8880715,179.218378 L74.8880715,174.375853 L98.0788166,192.100858 L94.7148258,167.762208 L97.1395255,167.744684 L102.844817,195.742858 L144.529817,227.603858 L146.842817,121.898858 L117.550375,95.0917861 L117.550375,90.6370536 L146.981817,115.512858 L148.399121,50.7678576 L151.41925,50.7678576 Z"></path><path id="[tree]tree--globalStyle1/objects/tree/3" fill="#7d78b6" d="M99.1534068,328.637872 C78.0815368,322.709938 68.586523,310.93966 70.6683654,293.327039 C89.7773717,290.783524 99.2723855,302.553802 99.1534068,328.637872 Z M291.530615,295.169939 C280.164424,298.064537 270.838001,297.844639 263.551346,294.510244 C265.321547,301.978679 263.151089,311.642167 257.04124,323.499404 C240.957292,308.651148 237.840767,293.853108 247.691665,279.105284 C248.370445,279.344562 249.028227,279.595534 249.665011,279.858199 C249.508151,279.521926 249.355677,279.179617 249.206429,278.832381 C264.483557,267.07513 278.591619,272.520982 291.530615,295.169939 Z M68.8539745,293.901529 C68.2410066,294.278362 67.6321636,294.631529 67.0274456,294.961031 C67.3879208,295.051241 67.7494572,295.148056 68.1127874,295.250466 C67.63568,314.522102 54.5249665,322.058939 28.7806471,317.860978 C33.6838867,307.206616 39.7237792,300.097164 46.9003247,296.532621 C39.9827228,293.207271 33.8389436,285.439197 28.4693847,273.229388 C50.1306037,270.074124 63.5921336,276.964837 68.8539745,293.901529 Z M229.148047,308.628589 C215.67646,317.464763 206.385356,316.505782 201.274734,305.751646 C209.697794,298.748454 218.988898,299.707435 229.148047,308.628589 Z M258.356048,232.704605 C267.010136,252.811093 263.838318,267.59738 248.840594,277.063467 C234.838225,263.813666 238.010043,249.027378 258.356048,232.704605 Z M223.680713,268.681945 C212.152667,276.929684 201.925159,272.565787 192.998191,255.590255 C208.724921,252.164822 218.952428,256.528719 223.680713,268.681945 Z M86.061835,228.189279 C102.654182,242.467168 106.285252,257.147429 96.9550469,272.23006 C78.56147,266.459452 74.9303994,251.779192 86.061835,228.189279 Z M229.06722,235.486974 C239.304977,251.705721 237.970469,262.744951 225.063694,268.604662 C216.902834,258.433235 218.237342,247.394005 229.06722,235.486974 Z M30.2609434,215.241805 C50.4533135,223.693567 58.4431169,236.533262 54.2303535,253.760889 C34.9538065,253.956643 26.9640031,241.116948 30.2609434,215.241805 Z M74.5315821,225.912124 C80.5156769,236.58104 79.6166111,244.983976 71.8343848,251.12093 C63.2784365,244.575111 64.1775023,236.172176 74.5315821,225.912124 Z M181.515408,183.383458 C199.696389,189.792478 202.812914,204.590518 190.864983,227.777579 C174.781035,212.929323 171.66451,198.131282 181.515408,183.383458 Z M242.76551,218.551057 C223.594677,217.969134 215.188988,210.689718 217.548444,196.712807 C230.544435,195.634938 238.950124,202.914354 242.76551,218.551057 Z M96.9275262,196.91311 C95.2790944,208.269837 87.373426,214.036248 73.2105212,214.21234 C77.5044874,197.889588 85.4101557,192.123178 96.9275262,196.91311 Z M119.177767,186.188173 C119.653721,198.241183 115.455495,203.834136 106.583088,202.967031 C105.336702,194.860837 109.534929,189.267884 119.177767,186.188173 Z M246.268679,177.406864 C240.314216,192.360392 230.977232,198.39912 218.257727,195.523048 C217.866444,181.353787 227.203428,175.315059 246.268679,177.406864 Z M47.6377684,145.728662 C69.0718202,150.172256 79.3647577,161.251523 78.5165809,178.966463 C77.8118384,179.110893 77.1190612,179.234504 76.4382494,179.337297 C76.7454652,179.545243 77.0522113,179.759958 77.3587294,179.980548 C70.3191073,197.926782 55.4213165,200.524964 32.6653568,187.775095 C40.9170729,179.440104 49.024457,174.82515 56.9875093,173.930234 C51.6238472,168.439277 48.5074915,159.038451 47.6377684,145.728662 Z M117.68533,145.020675 C118.442114,164.185402 111.766781,173.078401 97.6593304,171.699673 C95.677532,158.810527 102.352865,149.917528 117.68533,145.020675 Z M75.1580282,142.253089 C90.4904927,147.149942 97.1658258,156.042941 95.1840273,168.932086 C81.0765766,170.310814 74.4012436,161.417815 75.1580282,142.253089 Z M182.780462,134.634697 C190.159553,148.938985 188.591427,159.947458 178.076082,167.660117 C167.1257,158.659551 168.693826,147.651078 182.780462,134.634697 Z M253.322434,136.032818 C246.282812,153.979052 231.385021,156.577234 208.629061,143.827365 C224.029594,128.271411 238.927385,125.673229 253.322434,136.032818 Z M149.607169,126.826758 C142.567547,144.772992 127.669756,147.371174 104.913797,134.621305 C120.31433,119.065352 135.21212,116.467169 149.607169,126.826758 Z M225.813609,89.666642 C240.26986,102.419696 237.616009,117.307671 217.852054,134.330567 C208.501532,114.53835 211.155384,99.6503751 225.813609,89.666642 Z M196.896468,126.083682 C185.368422,134.331421 175.140914,129.967525 166.213946,112.991993 C181.940676,109.56656 192.168184,113.930456 196.896468,126.083682 Z M202.282975,92.8887112 C212.520733,109.107459 211.186224,120.146688 198.279449,126.0064 C190.118589,115.834972 191.453098,104.795743 202.282975,92.8887112 Z M122.055417,95.7451918 C115.015795,113.691426 100.118004,116.289608 77.3620444,103.539739 C92.7625774,87.9837852 107.660368,85.3856029 122.055417,95.7451918 Z M141.470565,77.9023073 C144.966102,91.6281989 141.442315,100.756945 130.899204,105.288545 C123.291571,95.4033451 126.815358,86.2745991 141.470565,77.9023073 Z M100.284358,51.1436043 C119.482662,61.6597448 126.086583,75.2642644 120.09612,91.9571631 C100.90471,90.1368965 94.3007893,76.5323769 100.284358,51.1436043 Z M174.84347,77.5227312 C160.764673,79.0739752 152.215184,74.3140056 149.195002,63.2428224 C160.042778,57.0849801 168.592267,61.8449497 174.84347,77.5227312 Z M187.49121,32.2660792 C180.107818,52.8731075 167.703873,61.5239388 150.279377,58.2185733 C149.075035,38.978689 161.478979,30.3278577 187.49121,32.2660792 Z M149.421975,57.5772727 C138.147301,59.7160387 130.121219,54.1184419 125.34373,40.7844824 C142.175173,39.5303391 150.201255,45.1279358 149.421975,57.5772727 Z" opacity="1.00"></path><path id="shadow--globalStyle1/objects/tree/3" fill="#000" fill-opacity=".2" d="M247.691665,279.105284 C265.872645,285.514303 268.98917,300.312343 257.04124,323.499404 C240.957292,308.651148 237.840767,293.853108 247.691665,279.105284 Z M68.1127874,295.250466 C67.63568,314.522102 54.5249665,322.058939 28.7806471,317.860978 C37.9319648,297.975871 51.0426782,290.439033 68.1127874,295.250466 Z M242.76551,218.551057 C223.594677,217.969134 215.188988,210.689718 217.548444,196.712807 C230.544435,195.634938 238.950124,202.914354 242.76551,218.551057 Z M47.6377684,145.728662 C69.0718202,150.172256 79.3647577,161.251523 78.5165809,178.966463 C59.6315498,182.836759 49.3386124,171.757492 47.6377684,145.728662 Z M182.780462,134.634697 C190.159553,148.938985 188.591427,159.947458 178.076082,167.660117 C167.1257,158.659551 168.693826,147.651078 182.780462,134.634697 Z M149.421975,57.5772727 C138.147301,59.7160387 130.121219,54.1184419 125.34373,40.7844824 C142.175173,39.5303391 150.201255,45.1279358 149.421975,57.5772727 Z"></path></g></g></svg></g>
</g></g><g transform="translate(215,364.5)">
<g transform="translate(30.25,179)">

<g><svg xmlns="http://www.w3.org/2000/svg" width="251" height="250" viewBox="0 0 251 250"><g id="Symbols--globalStyle1/people/man/bottom/1" fill="none" fill-rule="evenodd" stroke="none" stroke-width="1"><g id="globalStyle1/people/man/bottom/1--globalStyle1/people/man/bottom/1"><path id="Fill-1--globalStyle1/people/man/bottom/1" fill="#273137" d="M130.4058,224.2924 L126.6648,247.9994 L154.8428,248.0034 C154.9248,246.0164 153.5938,246.0814 150.1438,246.0164 C144.9688,245.9184 133.9998,247.0704 134.5338,243.5724 C134.6888,242.5594 136.6988,235.5924 140.2278,224.5214 L130.4058,224.2924 Z"></path><path id="[clothes]shoes--globalStyle1/people/man/bottom/1" fill="#6b8fff" d="M126.6646,250.0004 L154.8456,250.0034 L154.8426,248.0034 C154.8426,248.0034 145.6466,247.9984 126.6646,248.0144 L126.6646,250.0004 Z" opacity="1.00"></path><path id="Fill-6--globalStyle1/people/man/bottom/1" fill="#273137" d="M105.1138,223.3706 L105.5058,248.0136 L133.9238,248.0036 C133.9238,248.0036 132.9558,246.0486 129.5058,245.9826 C124.3308,245.8846 111.9998,246.4246 112.4908,243.1326 C112.6418,242.1176 113.0308,236.7926 113.8108,224.2926 L105.1138,223.3706 Z"></path><path id="[clothes]shoes--globalStyle1/people/man/bottom/1" fill="#6b8fff" d="M105.5059,249.9995 L133.9239,250.0015 L133.9239,248.0035 C133.9239,248.0035 124.4879,247.9965 105.5059,248.0135 L105.5059,249.9995 Z" opacity="1.00"></path><path id="[clothes]pants--globalStyle1/people/man/bottom/1" fill="#6b8fff" d="M163.045686,28.4746 L166.542662,138.819922 C166.565762,139.178258 166.577486,139.539597 166.577486,139.9036 C166.577486,142.012858 166.183744,144.032678 165.463871,145.897269 L148.999386,233.6615 L118.435386,233.6665 L131.456386,140.0805 L121.000686,30.5166 L163.045686,28.4746 Z" opacity="1.00"></path><path id="shadow--globalStyle1/people/man/bottom/1" fill="#000" fill-opacity=".04" d="M163.0454,28.4746 L166.5771,139.9575 L148.9991,233.6615 L118.4351,233.6665 L131.4561,140.0805 L121.0004,30.5166 L163.0454,28.4746 Z"></path><path id="Stroke-19--globalStyle1/people/man/bottom/1" fill="#273137" fill-rule="nonzero" d="M148.605993,140.049894 L148.613749,140.139813 L148.621658,139.961011 L148.605993,140.049894 Z M148.605993,140.049894 L132.127658,233.547011 C132.061611,233.921759 132.311862,234.279095 132.686611,234.345142 C133.061359,234.411189 133.418695,234.160938 133.484742,233.786189 L149.978742,140.200189 L149.986651,140.021387 L139.762651,21.4953871 C139.729948,21.1162707 139.396103,20.8354467 139.016987,20.8681491 C138.637871,20.9008515 138.357047,21.2346966 138.389749,21.6138129 L148.605993,140.049894 Z"></path><path id="[clothes]pants--globalStyle1/people/man/bottom/1" fill="#6b8fff" d="M130,30.5161 L126.507,140.0481 C126.506133,140.048177 126.50613,140.048511 126.506128,140.048844 L126.5073,140.0483 L126.505267,140.129865 C126.501613,140.410538 126.490985,140.689577 126.473545,140.966824 L122.9673,233.6663 L93.0073,233.6663 L91.4828892,140.435759 C91.4774428,140.261021 91.4747,140.085622 91.4747,139.9096 C91.4747,139.890214 91.4747333,139.870837 91.4747997,139.851466 L91,30.5161 L130,30.5161 Z" opacity="1.00"></path><polygon id="Stroke-27--globalStyle1/people/man/bottom/1" fill="#273137" fill-rule="nonzero" points="110.0796 234.1928 110.0796 16.9998 108.7016 16.9998 108.7016 234.1928"></polygon></g></g></svg></g>
</g>
<g transform="translate(83.75,15)">

<g><svg xmlns="http://www.w3.org/2000/svg" width="120" height="150" viewBox="0 0 120 150"><g id="Symbols--globalStyle1/people/man/head/1" fill="none" fill-rule="evenodd" stroke="none" stroke-width="1"><g id="globalStyle1/people/man/head/1--globalStyle1/people/man/head/1"><path id="[skin]neck--globalStyle1/people/man/head/1" fill="#c3786f" d="M74.3091332,31.9573405 C75.5142366,20.6962128 80.615421,12.3429263 85.7029474,13.2997528 C90.7904738,14.2565794 93.9377994,24.1611882 92.732696,35.4223159 C91.9205293,43.0116335 89.3387848,49.2802261 86.1842314,52.2683621 L88.2485,92.0485 L68.7515,92.0485 L74.1089634,38.9105993 C73.9929496,36.7039259 74.0518481,34.3615487 74.3091332,31.9573405 Z" opacity="1.00"></path><polygon id="shadow--globalStyle1/people/man/head/1" fill="#000" fill-opacity=".04" points="68.7515 92.0485 88.2485 92.0485 85.5739012 40.509 74.2565 37.4535"></polygon><path id="[hair]hair--globalStyle1/people/man/head/1" fill="#2a4862" d="M80.9935363,7.69177273 C95.9863414,5.98062769 95.670895,5.48069524 95.7567405,6.97962248 C95.8905852,9.31665372 95.3836929,24.2441008 91.1232358,23.8521417 C88.4178228,23.6032456 81.5187993,19.718292 78.0049348,21.3428627 C77.266691,21.6841762 76.6877328,24.8960053 76.2680605,30.97835 L76.2910761,30.6426547 L78.5370248,39.1687717 L85.7988346,39.1687717 C88.8794649,37.7707387 90.8242658,38.0536568 91.6332373,40.017526 C92.8466944,42.9633298 87.6831727,58.4950302 80.0899892,54.410355 C75.0278669,51.6872381 72.6056863,45.5385085 72.8234475,35.9641661 L72.9215306,35.7665222 C68.3683495,18.1838598 71.059018,8.82561003 80.9935363,7.69177273 Z" transform="rotate(-2 83.275 30.59)" opacity="1.00"></path><path id="smile--globalStyle1/people/man/head/1" fill="#FFF" fill-rule="nonzero" d="M89.2777577,44.8888747 C89.9340077,44.8888747 91.2777577,44.4523947 91.2777577,42.8888747 C91.2777577,42.8888747 87.2777577,42.8888747 87.2777577,42.8888747 C87.2777577,44.336656 88.6215077,44.8888747 89.2777577,44.8888747 Z" transform="rotate(-2 89.278 43.889)"></path></g></g></svg></g>
</g>
<g transform="translate(112.75,82)">

<g><svg xmlns="http://www.w3.org/2000/svg" width="193" height="193" viewBox="0 0 193 193"><g id="Symbols--globalStyle1/people/man/top/5" fill="none" fill-rule="evenodd" stroke="none" stroke-width="1"><g id="globalStyle1/people/man/top/5--globalStyle1/people/man/top/5"><path id="[skin]hand--globalStyle1/people/man/top/5" fill="#c3786f" d="M65,22.6666725 C67.4300739,34.7453596 76.3469093,88.0580124 83.1763229,95.471855 C87.2694417,99.9153307 98.5277341,99.7291797 96.8262884,84.7374802 C96.5466527,82.269218 88.494325,24.5312016 87.3826745,19 C79.4002558,20.6773718 65,22.6666725 65,22.6666725" opacity="1.00"></path><path id="shadow--globalStyle1/people/man/top/5" fill="#000" fill-opacity=".04" d="M65,22.6666725 C67.4300739,34.7453596 76.3469093,88.0580124 83.1763229,95.471855 C87.2694417,99.9153307 98.5277341,99.7291797 96.8262884,84.7374802 C96.5466527,82.269218 88.494325,24.5312016 87.3826745,19 C79.4002558,20.6773718 65,22.6666725 65,22.6666725"></path><path id="[clothes]tshirt--globalStyle1/people/man/top/5" fill="#294b67" d="M37.3593596,1.45769374 C10.4217597,1.45769374 1,25.118474 1,58.9590348 C1,67.7879258 1.08522927,132.356416 4.5540561,138.186 C17.4232535,159.80496 80.6408036,151.232873 83.4188684,135.887204 C84.440996,130.241745 83.9434471,134.563162 81.708982,44.6110996 C88.7740593,28.7996217 91.5668118,19.799066 90.0872395,17.6094325 C84.1358134,8.80185854 70.1245398,2.62740375 60.6525071,1.45769374 C60.6525071,1.1628943 57.4557156,7.43204444 55.3323731,7.43204444 C52.4471901,7.08995636 37.3593596,1.45769374 37.3593596,1.45769374 Z" opacity="1.00"></path><path id="[skin]hand--globalStyle1/people/man/top/5" fill="#c3786f" d="M35.2338926,78 C70.6271277,79.4543196 87.9755577,79.4958998 91.9879566,80.6710376 C95.8468631,81.8010815 98.0999588,85.5420121 97.9965913,89.265552 C98.0659673,91.8384052 96.9702524,94.4115922 94.8046564,96.1414123 C92.9237811,97.643805 90.6008036,98.2182205 88.3887003,97.9266778 C78.605189,98.7296519 59.5389772,92.8328414 34.5347618,84.9995742 C33.5792139,85.0089216 32.6239274,84.6291219 31.9255607,83.8710475 C30.6165749,82.4490629 30.7065739,80.2350868 32.1285585,78.925101 C32.9935271,78.1288676 34.1515387,77.8506396 35.2208798,78.0748872 L35.2338926,78 Z" opacity="1.00"></path><path id="shadow--globalStyle1/people/man/top/5" fill="#000" fill-opacity=".04" d="M91.1776839,97.441748 C82.5154581,99.9712146 61.9199423,93.5797326 34,84.832035 L35.2338926,78 C70.6271277,79.4543196 87.9755577,79.4958998 91.9879566,80.6710376 C99.3883149,82.8381619 100.882974,94.6073593 91.1776839,97.441748"></path><path id="[clothes]tshirt--globalStyle1/people/man/top/5" fill="#294b67" d="M67.0481315,47 L96,47 C96,24.9066429 91.029423,14.2535145 81.088269,15.040615 C71.147115,15.8277155 66.4670692,26.4808439 67.0481315,47 Z" opacity="1.00"></path><path id="[skin]hand--globalStyle1/people/man/top/5" fill="#c3786f" d="M8.6701917,20.6878546 L30,21 L29.9985303,84.4932328 C37.6031094,85.3578917 50.8980202,87.035511 76.0630247,86.8091443 L76.8292403,86.8016991 L76.8341032,86.8318546 L82.4738592,83.4316102 L86.8713943,79.8993944 L92.8003298,79.0072576 C93.2745248,78.9497329 93.3164537,79.2514851 93.2565554,79.3029545 C91.9897059,80.3838126 90.793736,80.9116265 89.0177508,81.1730105 C87.9665353,82.8250783 85.8571161,82.9956339 87.442425,83.785841 C88.0144539,84.0714459 89.2004407,83.8413473 91.9936991,82.4567186 C92.3770483,82.2669882 95.2771254,81.4111828 96.1157019,80.7451078 C96.7196766,80.2657356 97.0780682,81.3294372 96.7576122,81.8259658 C96.361285,82.4405714 96.1626222,82.5354366 96.1626222,82.5354366 C96.1626222,82.5354366 92.4469297,84.545772 92.3211432,84.6971527 C92.1284703,84.9302789 94.3536929,84.4236583 96.1037222,83.3539015 C96.6088647,83.0450849 96.6028749,82.9693945 96.8734156,82.8886582 C97.3575937,82.7443419 97.4514344,83.4840889 97.3695734,83.9130008 C97.2917056,84.3146642 97.1309784,84.5144867 96.799541,84.7062355 C95.7473272,85.3147859 94.066181,85.9031521 93.556047,86.2059135 C93.0459129,86.5076656 94.5982777,86.1806833 96.7775783,85.2673532 C97.1239903,85.1220278 97.3985243,85.0211073 97.456426,85.6468141 C97.4873734,85.9859069 97.3276446,86.33711 96.9532801,86.6075769 C96.0058883,87.2928267 94.7370422,87.5299898 94.5912896,87.7217387 C94.4465353,87.9144967 96.0677832,87.4633823 96.9303191,87.1646578 C97.1749039,87.0798846 97.4783887,87.0344704 97.4953599,87.3311765 C97.5312989,87.9911963 97.3536005,88.3928597 97.1309784,88.5200194 C95.3679712,89.5251871 94.9127439,89.6886783 93.5800063,90.2164922 C92.212328,90.7594443 89.6137391,92.090585 85.9888924,92.9080407 L77.6570359,94 L77.6407403,93.9080831 C38.4112976,103.177785 17.4341388,104.603311 13.0510951,97.5637003 C12.855843,97.2500907 12.6758989,96.9432766 12.5106921,96.643127 C11.7439272,95.4540883 11.2348551,94.0818523 11.0637427,92.6065201 C11.0170685,92.253033 10.9965161,91.9136628 11.0004796,91.5872263 L11.0003498,91.5660779 C8.24942705,76.4346625 8.6701917,31.8486832 8.6701917,20.6878546 Z" opacity="1.00"></path><path id="[skin]hand--globalStyle1/people/man/top/5" fill="#c3786f" d="M10.1792227,69.0000848 L10.2673581,69.0048035 C10.8927418,69.0774637 11.3502909,69.2237794 11.6410044,69.4447461 C12.5890702,70.1623899 13.4971753,71.0024612 14.9847094,71.7927653 C15.2434544,71.9301229 18.2634784,72.8488265 18.7040442,73.0508815 C21.9118831,74.5269784 23.2655491,74.7967169 23.9089151,74.5299644 C25.6921578,73.7914183 23.2905245,73.5515401 22.0547423,71.8644301 C20.0297378,71.5449243 18.6580895,70.9785729 17.1925337,69.8558236 C17.1226026,69.802075 17.1635623,69.5024761 17.7030306,69.5751363 L17.7030306,69.5751363 L24.4633687,70.6610578 L29.5483577,74.3378628 L35.7614452,78.0096399 C36.1671878,78.0399166 36.5744791,78.1419722 36.9656689,78.3222995 C38.7202607,79.1321162 39.4870823,81.2106455 38.6772707,82.966248 C37.9647494,84.5091741 36.2700543,85.2881826 34.6773211,84.9021678 L34.6573231,85 L25.7810702,83.7010746 C21.6421489,82.7644548 18.6560915,81.349074 17.0896351,80.7618204 C15.5611414,80.1894969 14.0266535,79.4897693 11.999651,78.4267407 C11.742904,78.2913737 9.46614763,76.460934 9.49112302,75.8020155 C9.50211219,75.5054027 10.0375845,75.8089829 10.3692577,75.9543033 C10.9826532,76.2230465 11.7478991,77.1009409 12.0266244,77.1984847 C13.9027756,77.8514312 16.0476619,78.4297267 15.8778293,78.2326484 C15.7079966,78.03557 13.9217569,77.6424087 11.5610832,76.3912598 C11.100537,76.1474003 9.4451683,74.3398535 9.24336717,74.0402546 C8.78481904,73.3584432 10.2563689,74.0601615 10.581049,74.2393236 C11.2394002,74.6006339 11.7918558,75.3093197 12.189464,75.4655888 C14.6870028,76.4519759 17.6061261,77.0680945 17.018705,76.7495841 C16.4312839,76.4310736 13.9257529,75.2286967 12.6659944,74.6722988 C11.6549906,74.2243935 11.5540901,74.188561 9.98963176,72.6407993 C9.51609841,72.1729871 9.09151681,71.5021245 9.00660049,71.2592603 C8.89471075,70.9387591 10.2393856,71.3169903 10.4611671,71.4971478 C12.0725791,72.8050313 11.8847642,73.0767605 13.1465208,73.6371398 C15.2704278,74.5797317 18.6101367,75.5213282 18.3853582,75.2804547 C18.239502,75.1261762 13.9677116,72.9931515 13.9677116,72.9931515 C12.0605909,71.8186442 11.5620822,71.0303309 10.9766591,70.4868724 C10.5760539,70.1146133 10.2184063,69.7592751 9.90271741,69.4218531 C9.76285524,69.271556 9.81280602,69.0953799 10.0156062,69.0267011 C10.0905323,69.0018175 10.1784457,68.9938547 10.2673581,69.0048035 Z" opacity="1.00"></path><path id="shadow--globalStyle1/people/man/top/5" fill="#000" fill-opacity=".04" d="M10.1792227,69.0000848 L10.2673581,69.0048035 C10.8927418,69.0774637 11.3502909,69.2237794 11.6410044,69.4447461 C12.5890702,70.1623899 13.4971753,71.0024612 14.9847094,71.7927653 C15.2434544,71.9301229 18.2634784,72.8488265 18.7040442,73.0508815 C21.9118831,74.5269784 23.2655491,74.7967169 23.9089151,74.5299644 C25.6921578,73.7914183 23.2905245,73.5515401 22.0547423,71.8644301 C20.0297378,71.5449243 18.6580895,70.9785729 17.1925337,69.8558236 C17.1226026,69.802075 17.1635623,69.5024761 17.7030306,69.5751363 L17.7030306,69.5751363 L24.4633687,70.6610578 L29.5483577,74.3378628 L35.7614452,78.0096399 C36.1671878,78.0399166 36.5744791,78.1419722 36.9656689,78.3222995 C38.7202607,79.1321162 39.4870823,81.2106455 38.6772707,82.966248 C37.9647494,84.5091741 36.2700543,85.2881826 34.6773211,84.9021678 L34.6573231,85 L25.7810702,83.7010746 C21.6421489,82.7644548 18.6560915,81.349074 17.0896351,80.7618204 C15.5611414,80.1894969 14.0266535,79.4897693 11.999651,78.4267407 C11.742904,78.2913737 9.46614763,76.460934 9.49112302,75.8020155 C9.50211219,75.5054027 10.0375845,75.8089829 10.3692577,75.9543033 C10.9826532,76.2230465 11.7478991,77.1009409 12.0266244,77.1984847 C13.9027756,77.8514312 16.0476619,78.4297267 15.8778293,78.2326484 C15.7079966,78.03557 13.9217569,77.6424087 11.5610832,76.3912598 C11.100537,76.1474003 9.4451683,74.3398535 9.24336717,74.0402546 C8.78481904,73.3584432 10.2563689,74.0601615 10.581049,74.2393236 C11.2394002,74.6006339 11.7918558,75.3093197 12.189464,75.4655888 C14.6870028,76.4519759 17.6061261,77.0680945 17.018705,76.7495841 C16.4312839,76.4310736 13.9257529,75.2286967 12.6659944,74.6722988 C11.6549906,74.2243935 11.5540901,74.188561 9.98963176,72.6407993 C9.51609841,72.1729871 9.09151681,71.5021245 9.00660049,71.2592603 C8.89471075,70.9387591 10.2393856,71.3169903 10.4611671,71.4971478 C12.0725791,72.8050313 11.8847642,73.0767605 13.1465208,73.6371398 C15.2704278,74.5797317 18.6101367,75.5213282 18.3853582,75.2804547 C18.239502,75.1261762 13.9677116,72.9931515 13.9677116,72.9931515 C12.0605909,71.8186442 11.5620822,71.0303309 10.9766591,70.4868724 C10.5760539,70.1146133 10.2184063,69.7592751 9.90271741,69.4218531 C9.76285524,69.271556 9.81280602,69.0953799 10.0156062,69.0267011 C10.0905323,69.0018175 10.1784457,68.9938547 10.2673581,69.0048035 Z"></path><path id="[clothes]tshirt--globalStyle1/people/man/top/5" fill="#294b67" d="M5.64274369,47 L34.9281567,47 C35.6900589,25.2049681 30.3919489,14.5432975 19.0338265,15.0149882 C7.67570416,15.4866789 3.21200988,26.1483495 5.64274369,47 Z" opacity="1.00"></path></g></g></svg></g>
</g></g><g transform="translate(431,364.5)">
<g transform="translate(336,0) scale(-1, 1)">
<g transform="translate(24.5,177.0000000000018)">

<g><svg xmlns="http://www.w3.org/2000/svg" width="251" height="250" viewBox="0 0 251 250"><g id="Symbols--globalStyle1/people/woman/bottom/3" fill="none" fill-rule="evenodd" stroke="none" stroke-width="1"><g id="globalStyle1/people/woman/bottom/3--globalStyle1/people/woman/bottom/3"><path id="[skin]leg---globalStyle1/people/woman/bottom/3" fill="#f0a19e" d="M123.987862,18.7874184 C136.907862,18.7654531 147.400862,29.2204531 147.422897,42.1404531 C147.425707,43.7932247 147.257067,45.4062634 146.93375,46.9627344 L129.088707,140.417958 C129.037174,140.822504 128.960762,141.219308 128.86105,141.606783 L128.853964,141.640536 C128.788158,141.892167 128.71252,142.139834 128.627485,142.383101 L128.674238,142.397369 L81.159106,245.079842 C77.6003966,243.210529 77.8112022,242.096022 77.4245628,242.170359 C77.4245628,242.170359 85.313851,213.190697 110.087427,136.792447 L109.897188,137.373165 C109.951054,137.086287 110.017531,136.803845 110.096022,136.52644 L110.144388,136.365198 L100.597262,43.7673531 L100.689064,43.7714339 C100.654674,43.2594545 100.636753,42.7429528 100.635824,42.2224531 C100.612862,29.3024531 111.068862,18.8104531 123.987862,18.7874184 Z" transform="rotate(8 112.424 131.934)" opacity="1.00"></path><path id="[clothes]shoes--globalStyle1/people/woman/bottom/3" fill="#6b8fff" d="M167.596186,249.770897 L194.355186,249.770897 L194.355186,247.886897 C194.355186,247.886897 185.117186,247.871897 167.596186,247.886897 L167.596186,249.770897 Z" opacity="1.00"></path><path id="[skin]leg---globalStyle1/people/woman/bottom/3" fill="#f0a19e" d="M176.510906,18.0403448 C188.759906,18.0193781 198.707906,27.9313781 198.72894,40.1803781 C198.730672,41.1924777 198.66459,42.1888609 198.534978,43.1652277 L198.592733,43.1647781 L182.701551,137.408089 C182.660076,137.997396 182.561873,138.571072 182.412363,139.123682 L182.409406,139.129778 C182.29515,139.555535 182.149511,139.967896 181.976007,140.365314 L143.733266,237.438636 L137.010062,239.923126 L137.950733,233.229904 C137.950733,233.229904 163.344815,144.185379 164.747033,136.055309 L164.747062,136.046312 L164.744183,136.046957 L154.562469,43.1647781 C154.439456,42.2135119 154.373562,41.2435031 154.37187,40.2583781 C154.349906,28.0093781 164.261906,18.0613781 176.510906,18.0403448 Z" transform="rotate(-16 167.87 128.982)" opacity="1.00"></path><path id="shadow--globalStyle1/people/woman/bottom/3" fill="#000" fill-opacity=".04" d="M176.510906,18.0403448 C188.759906,18.0193781 198.707906,27.9313781 198.72894,40.1803781 C198.730672,41.1924777 198.66459,42.1888609 198.534978,43.1652277 L198.592733,43.1647781 L182.701551,137.408089 C182.660076,137.997396 182.561873,138.571072 182.412363,139.123682 L182.409406,139.129778 C182.29515,139.555535 182.149511,139.967896 181.976007,140.365314 L143.733266,237.438636 L137.010062,239.923126 L137.950733,233.229904 C137.950733,233.229904 163.344815,144.185379 164.747033,136.055309 L164.747062,136.046312 L164.744183,136.046957 L154.562469,43.1647781 C154.439456,42.2135119 154.373562,41.2435031 154.37187,40.2583781 C154.349906,28.0093781 164.261906,18.0613781 176.510906,18.0403448 Z" transform="rotate(-16 167.87 128.982)"></path><path id="Fill-15--globalStyle1/people/woman/bottom/3" fill="#E9E9E9" d="M167.596186,222.493597 L167.596186,247.959597 L194.355186,247.941597 C194.277186,246.302597 194.119186,245.373597 190.935186,245.310597 C186.158186,245.218597 174.639186,245.737597 174.636186,241.177597 C174.635186,240.204597 176.516186,234.446597 179.009186,223.829597 L167.596186,222.493597 Z"></path><path id="shadow--globalStyle1/people/woman/bottom/3" fill="#000" fill-opacity=".02" d="M167.596186,222.493597 L167.596186,247.959597 L194.355186,247.941597 C194.277186,246.302597 194.119186,245.373597 190.935186,245.310597 C186.158186,245.218597 174.639186,245.737597 174.636186,241.177597 C174.635186,240.204597 176.516186,234.446597 179.009186,223.829597 L167.596186,222.493597 Z"></path><path id="shape--globalStyle1/people/woman/bottom/3" fill="#E9E9E9" d="M64.8196959,217.861252 L64.8196959,243.327252 L91.5786959,243.309252 C91.5006959,241.670252 91.3426959,240.741252 88.1586959,240.678252 C83.3816959,240.586252 73.5320291,240.797164 73.5290291,236.237164 C73.5280291,235.264164 73.7396959,229.814252 76.2326959,219.197252 L64.8196959,217.861252 Z" transform="rotate(24 78.2 230.594)"></path><path id="[clothes]shoes--globalStyle1/people/woman/bottom/3" fill="#6b8fff" d="M59.2884979,243.962859 L86.0474979,243.962859 L86.0474979,242.078859 C86.0474979,242.078859 76.8094979,242.063859 59.2884979,242.078859 L59.2884979,243.962859 Z" transform="rotate(24 72.668 243.018)" opacity="1.00"></path><path id="[clothes]skirt--globalStyle1/people/woman/bottom/3" fill="#6b8fff" d="M166.434032,7.12524087 C171.664382,23.0274993 175.447414,35.7738447 177.783129,45.3642769 C180.118844,54.9547092 183.634397,69.3728427 188.32979,88.6186776 C175.837763,93.4796069 162.667846,96.5026789 148.820037,97.6878934 C134.972228,98.8731078 123.388832,99.3288874 114.069847,99.0552319 C108.129515,78.9262871 104.603213,63.8505942 103.490943,53.8281532 C102.378673,43.8057123 103.484705,31.0313237 106.809037,15.5049874 L166.434032,7.12524087 Z" transform="rotate(8 145.701 53.129)" opacity="1.00"></path></g></g></svg></g>
</g>
<g transform="translate(105.5,30)">

<g><svg xmlns="http://www.w3.org/2000/svg" width="120" height="150" viewBox="0 0 120 150"><g id="Symbols--globalStyle1/people/woman/head/3" fill="none" fill-rule="evenodd" stroke="none" stroke-width="1"><g id="globalStyle1/people/woman/head/3--globalStyle1/people/woman/head/3"><path id="[hair]hair--globalStyle1/people/woman/head/3" fill="#ff93d4" d="M84.3574,30.2785 C81.2294,40.2295 80.8314,48.5595 83.1664,55.2695 C86.6684,65.3335 85.7744,68.3345 83.8924,74.8065 C82.6384,79.1225 83.5164,84.0205 86.5274,89.5045 C82.8074,83.8155 81.1864,77.9785 81.6644,71.9955 C82.3814,63.0185 81.3594,56.6855 79.9214,52.6535 C78.4824,48.6215 77.7274,36.4195 77.2114,33.5475 C76.8694,31.6325 79.2514,30.5435 84.3574,30.2785" opacity="1.00"></path><g id="Group--globalStyle1/people/woman/head/3" transform="translate(34.9 24.817)"><polygon id="[skin]neck--globalStyle1/people/woman/head/3" fill="#f0a19e" points="5.09621669 68.042361 40.6319213 20.1717602 49.3843896 29.0254433 31.7305628 73.7036661" transform="rotate(-12 27.24 46.938)" opacity="1.00"></polygon><polygon id="shadow--globalStyle1/people/woman/head/3" fill="#000" fill-opacity=".04" points="5.09621669 68.042361 40.6319213 20.1717602 49.3843896 29.0254433 31.7305628 73.7036661" transform="rotate(-12 27.24 46.938)"></polygon><ellipse id="[skin]face--globalStyle1/people/woman/head/3" cx="43.439" cy="19.336" fill="#f0a19e" rx="10.236" ry="17.511" transform="rotate(-12 43.44 19.336)" opacity="1.00"></ellipse><path id="smile--globalStyle1/people/woman/head/3" fill="#FFF" fill-rule="nonzero" d="M48.7740033,30.3469927 C49.4519984,30.3466344 50.8405174,29.8862396 50.8413886,28.2396809 C50.8413886,28.2396809 46.7088466,28.2418639 46.7088466,28.2418639 C46.7080402,29.766537 48.0960082,30.3473507 48.7740033,30.3469927 Z" transform="rotate(4 48.775 29.293)"></path></g><path id="[hair]hair--globalStyle1/people/woman/head/3" fill="#ff93d4" d="M83.3646,25.243 C87.380182,27.8707463 86.4232542,30.2906142 80.4938167,32.5008816 C79.3066003,33.4844934 77.880046,34.7249016 76.2141,36.2211 C75.0501,40.0181 73.6161,42.3781 71.9121,43.3041 C68.2246875,45.3059189 66.8358144,55.4274719 65.2654397,57.8073346 C63.8166312,62.0384754 61.3841616,66.7395253 54.1388971,73.4563957 C48.994437,78.2256724 32.2914241,85.0905916 30.8042111,85.0905916 C11.1513603,85.0905916 36.8716,62.365 43.6246,58.686 C53.3166,53.404 48.6916,38.364 52.0576,31.555 C57.3726,20.804 65.6756,13.664 83.3646,25.243 Z M53.1745,7.9234 C56.1835,6.0124 60.3035,7.1644 62.3785,10.4974 C64.4525,13.8304 63.6955,18.0824 60.6875,19.9934 C57.6785,21.9054 53.5585,20.7524 51.4835,17.4194 C49.4095,14.0864 50.1665,9.8344 53.1745,7.9234 Z" opacity="1.00"></path></g></g></svg></g>
</g>
<g transform="translate(118.5,97)">

<g><svg xmlns="http://www.w3.org/2000/svg" width="193" height="178" viewBox="0 0 193 178"><g id="Symbols--globalStyle1/people/woman/top/1" fill="none" fill-rule="evenodd" stroke="none" stroke-width="1"><g id="globalStyle1/people/woman/top/1--globalStyle1/people/woman/top/1"><path id="[skin]hand--globalStyle1/people/woman/top/1" fill="#f0a19e" d="M92.7848369,25 C93.1662129,29.3823873 94.239656,69.2574437 94.5229477,81.4073055 C102.282098,83.2665214 115.664616,86.9250272 136.045949,92.0832931 L136.854113,92.2876872 L143.459444,90.7263632 L148.847235,88.9123881 L154.976955,89.8053244 C155.462236,89.8896321 155.416148,90.1606858 155.341141,90.1887884 C153.772338,90.7653442 152.433975,90.8859132 150.598584,90.6130464 C149.074965,91.7434947 147.396815,91.3953855 148.414369,92.8204574 C148.533655,92.9872597 151.668551,93.1078287 154.700426,92.5095161 C155.131486,92.4252084 157.256057,92.1577808 157.51632,92.1079214 C159.014635,91.8268958 159.231521,91.7063268 160.244556,91.3391804 C160.555424,91.2267701 160.990099,91.2240505 161.549482,91.3310216 C161.62991,91.3464327 161.703109,91.3763483 161.760945,91.4180489 C161.917283,91.5322722 161.913668,91.699981 161.751004,91.7924475 C161.387722,92.0000439 160.982869,92.2112663 160.53464,92.426115 C159.881273,92.7397758 157.749471,93.4387137 155.863473,93.8475607 C154.584754,94.1258667 153.005106,94.4839477 152.837924,94.5791338 C152.578565,94.7259924 155.169441,94.3679114 157.268709,94.2500619 C159.368881,94.133119 160.456922,93.1105483 162.202849,92.4116104 C162.444133,92.3155178 162.925799,92.2710976 163.649654,92.2783499 C163.687609,92.2783499 164.050892,92.3653772 163.993959,92.5593755 C163.937027,92.7524673 162.070006,94.0062042 160.945818,94.5637228 C159.072471,95.4938269 158.632375,95.5183033 157.638318,95.6325267 C156.399361,95.773946 154.210627,96.1093637 153.616904,96.2263066 C153.024084,96.3441561 156.468945,96.3894828 158.91523,95.9307764 C159.295683,95.8600668 160.051166,95.616209 160.402701,95.5110511 C161.453691,95.1946706 162.706203,94.3796963 163.263779,94.5075176 C163.345111,94.5256483 163.421924,94.5537509 163.489701,94.5891057 C163.806896,94.7522819 163.881902,95.0405598 163.657787,95.2336516 C163.078523,95.7322454 162.147724,96.24897 160.863582,96.7820121 C160.56175,96.9071138 159.361652,97.3667267 158.895348,97.4356233 C156.9235,97.7275273 154.398594,97.7003313 154.198879,97.825433 C153.999164,97.9505348 155.463139,97.8181808 157.259672,97.7610691 C157.669947,97.7474711 159.311045,97.5398748 159.622818,97.5226506 C160.033996,97.4999872 160.310525,97.4238384 161.006365,97.3168673 C162.396238,97.1047383 162.650174,97.6024256 161.978734,98.0230575 C161.308197,98.444596 155.226373,99.5396893 152.466508,99.6938002 C150.954637,99.7781079 147.992346,100.197833 144.165225,99.886892 L136.664592,98.6870774 C136.63105,98.6881859 136.597376,98.6887705 136.563577,98.6888232 C136.318691,98.6893306 136.080252,98.6618847 135.851258,98.6094853 L136.151315,98.6032394 C109.67786,99.0820241 90.1617928,99.381146 83.3020135,94.9304438 L83.3269373,94.9464757 C82.4087448,94.4406545 81.6137761,93.7679673 81.0368856,92.9900699 C80.9625388,92.8898467 80.8887199,92.7819642 80.8154259,92.6666217 C79.9563062,91.5322514 79.4732074,90.2982587 79.3040194,89.0589063 C75.0116994,75.1766717 72.8567546,35.7314932 72,25.9065343 L72.0266487,25.9060198 C72.6886567,25.8931251 85.5265747,25.6366343 92.7848369,25 Z" opacity="1.00"></path><path id="shadow--globalStyle1/people/woman/top/1" fill="#000" fill-opacity=".04" d="M92.7848369,25 C93.1662129,29.3823873 94.239656,69.2574437 94.5229477,81.4073055 C102.282098,83.2665214 115.664616,86.9250272 136.045949,92.0832931 L136.854113,92.2876872 L143.459444,90.7263632 L148.847235,88.9123881 L154.976955,89.8053244 C155.462236,89.8896321 155.416148,90.1606858 155.341141,90.1887884 C153.772338,90.7653442 152.433975,90.8859132 150.598584,90.6130464 C149.074965,91.7434947 147.396815,91.3953855 148.414369,92.8204574 C148.533655,92.9872597 151.668551,93.1078287 154.700426,92.5095161 C155.131486,92.4252084 157.256057,92.1577808 157.51632,92.1079214 C159.014635,91.8268958 159.231521,91.7063268 160.244556,91.3391804 C160.555424,91.2267701 160.990099,91.2240505 161.549482,91.3310216 C161.62991,91.3464327 161.703109,91.3763483 161.760945,91.4180489 C161.917283,91.5322722 161.913668,91.699981 161.751004,91.7924475 C161.387722,92.0000439 160.982869,92.2112663 160.53464,92.426115 C159.881273,92.7397758 157.749471,93.4387137 155.863473,93.8475607 C154.584754,94.1258667 153.005106,94.4839477 152.837924,94.5791338 C152.578565,94.7259924 155.169441,94.3679114 157.268709,94.2500619 C159.368881,94.133119 160.456922,93.1105483 162.202849,92.4116104 C162.444133,92.3155178 162.925799,92.2710976 163.649654,92.2783499 C163.687609,92.2783499 164.050892,92.3653772 163.993959,92.5593755 C163.937027,92.7524673 162.070006,94.0062042 160.945818,94.5637228 C159.072471,95.4938269 158.632375,95.5183033 157.638318,95.6325267 C156.399361,95.773946 154.210627,96.1093637 153.616904,96.2263066 C153.024084,96.3441561 156.468945,96.3894828 158.91523,95.9307764 C159.295683,95.8600668 160.051166,95.616209 160.402701,95.5110511 C161.453691,95.1946706 162.706203,94.3796963 163.263779,94.5075176 C163.345111,94.5256483 163.421924,94.5537509 163.489701,94.5891057 C163.806896,94.7522819 163.881902,95.0405598 163.657787,95.2336516 C163.078523,95.7322454 162.147724,96.24897 160.863582,96.7820121 C160.56175,96.9071138 159.361652,97.3667267 158.895348,97.4356233 C156.9235,97.7275273 154.398594,97.7003313 154.198879,97.825433 C153.999164,97.9505348 155.463139,97.8181808 157.259672,97.7610691 C157.669947,97.7474711 159.311045,97.5398748 159.622818,97.5226506 C160.033996,97.4999872 160.310525,97.4238384 161.006365,97.3168673 C162.396238,97.1047383 162.650174,97.6024256 161.978734,98.0230575 C161.308197,98.444596 155.226373,99.5396893 152.466508,99.6938002 C150.954637,99.7781079 147.992346,100.197833 144.165225,99.886892 L136.664592,98.6870774 C136.63105,98.6881859 136.597376,98.6887705 136.563577,98.6888232 C136.318691,98.6893306 136.080252,98.6618847 135.851258,98.6094853 L136.151315,98.6032394 C109.67786,99.0820241 90.1617928,99.381146 83.3020135,94.9304438 L83.3269373,94.9464757 C82.4087448,94.4406545 81.6137761,93.7679673 81.0368856,92.9900699 C80.9625388,92.8898467 80.8887199,92.7819642 80.8154259,92.6666217 C79.9563062,91.5322514 79.4732074,90.2982587 79.3040194,89.0589063 C75.0116994,75.1766717 72.8567546,35.7314932 72,25.9065343 L72.0266487,25.9060198 C72.6886567,25.8931251 85.5265747,25.6366343 92.7848369,25 Z"></path><path id="[clothes]tshirt--globalStyle1/people/woman/top/1" fill="#f6f6f6" d="M41.7589712,8.01062111 C12.0901871,7.59688242 7.31950126,29.7044137 7.31950126,60.2690982 C7.31950126,68.2421781 5.89966921,115.126505 9.04617682,120.391609 C20.7153081,139.917204 84.8201809,134.251356 87.340292,120.391609 C88.2671772,115.2928 87.8159902,128.227473 85.7897337,46.9845695 C91.3129167,32.1131186 93.6629627,23.6917385 92.8398717,21.7204292 C88.8627078,12.1934439 70.1313045,9.10647147 62.7788691,8.01062111 C60.9031326,9.37509667 57.9268913,12.5723787 56.0014029,12.5723787 C55.2248101,12.3049765 43.1199911,8.77589994 41.7589712,8.01062111 Z" opacity="1.00"></path><path id="[skin]hand--globalStyle1/people/woman/top/1" fill="#f0a19e" d="M39.7494121,26 L39.7492591,83.3042461 C44.399443,87.3436798 52.403514,97.2159928 75.2708751,111.287653 L75.968568,111.715531 L82.4627763,112.508622 L88.1510942,112.779302 L93.5505594,115.828957 C93.9734254,116.082494 93.8321683,116.317985 93.7515792,116.31618 C92.076414,116.282796 90.784273,115.909259 89.1697758,114.990753 C87.3370545,115.486999 85.8973178,114.556764 86.3310498,116.246706 C86.380852,116.445204 89.2648528,117.693036 92.3118426,118.2362 C92.7455746,118.313795 94.8245905,118.835304 95.0862785,118.884026 C96.5875888,119.166435 96.8329778,119.133051 97.9132331,119.160119 C98.2437387,119.16824 98.6503058,119.323429 99.13384,119.624786 C99.2035631,119.668094 99.2615147,119.723133 99.2995455,119.782682 C99.4045829,119.94509 99.3393873,120.099377 99.1546664,120.126445 C98.7399498,120.186897 98.2853914,120.235619 97.7891803,120.273514 C97.06569,120.326748 94.821874,120.202235 92.9130911,119.899074 C91.6182336,119.693358 90.0136969,119.452453 89.821732,119.480423 C89.5265408,119.52283 92.0755085,120.129152 94.0793683,120.781489 C96.0823227,121.433827 97.4686352,120.878934 99.3520642,120.864498 C99.6119412,120.862693 100.078271,120.996228 100.750148,121.264201 C100.786368,121.278637 101.094236,121.491572 100.971089,121.649468 C100.847942,121.809169 98.6494003,122.294588 97.3980066,122.404664 C95.3126522,122.588726 94.8925026,122.451582 93.9227177,122.197143 C92.7147878,121.879546 90.5497498,121.396834 89.9530288,121.291269 C89.3563077,121.184802 92.5572317,122.475041 95.0075004,122.937 C95.3878082,123.008279 96.1819271,123.057002 96.547747,123.085874 C97.6433956,123.173394 99.1084861,122.871135 99.5829654,123.192341 C99.6526885,123.239259 99.7133566,123.292493 99.7649698,123.349335 C100.000398,123.615504 99.9659897,123.910544 99.6880028,124.008891 C98.9663235,124.261525 97.9096111,124.403181 96.5178657,124.432053 C96.1900766,124.438369 94.9024631,124.430249 94.4424717,124.324684 C92.4965635,123.881672 90.1477102,122.941512 89.916809,122.983918 C89.6850023,123.028129 91.0993851,123.435953 92.7980933,124.034155 C93.185645,124.170397 94.7919927,124.572807 95.0899005,124.669349 C95.4828852,124.796568 95.768116,124.826343 96.456292,124.979728 C97.8308331,125.286498 97.8878792,125.840489 97.1091537,125.987558 C96.3295228,126.134627 90.2545585,124.946344 87.6213798,124.089193 C86.1789267,123.619113 83.2605171,122.935196 79.8015272,121.260592 L73.0775659,117.512257 C73.0752427,117.511175 73.072921,117.510091 73.0706008,117.509004 C47.6541729,108.844622 32.2155607,101.787747 25.8837173,95.710853 C25.1473501,95.1423852 24.5052421,94.4567332 23.9863746,93.6821191 C23.7540004,93.3807595 23.5725731,93.0739396 23.4496012,92.7676063 L23.4368575,92.7362091 C23.3764945,92.6150546 23.3189231,92.4922745 23.2642271,92.3679524 L23.293,92.422 L23.2214562,92.2839745 C22.7686755,91.3679416 22.544197,90.4760746 22.544197,89.6035436 C22.544197,89.5287071 22.5446758,89.4543988 22.5456285,89.380616 C19.8849207,75.813675 19.0173439,36.8017855 19.0002584,26.3091728 L19,26 L39.7494121,26 Z" opacity="1.00"></path><path id="[clothes]tshirt--globalStyle1/people/woman/top/1" fill="#f6f6f6" d="M14.0685717 49L44 49C43.7672169 35.2572796 42.7105473 26.2490194 40.829991 21.9752196 38.0091567 15.5645198 23.7798714 15.5645198 18.6088501 20.737106 15.1615025 24.1854968 13.6480764 33.6064615 14.0685717 49zM66.0685717 49L96 49C95.7672169 35.2572796 94.7105473 26.2490194 92.829991 21.9752196 90.0091567 15.5645198 75.7798714 15.5645198 70.6088501 20.737106 67.1615025 24.1854968 65.6480764 33.6064615 66.0685717 49z" opacity="1.00"></path></g></g></svg></g>
</g>
</g></g><!----><!----><!----></svg>