<?xml version="1.0" encoding="UTF-8"?>
<svg id="illustration-builder" width="1054" height="928" viewBox="-10 -30 1124 988" version="1.1" xmlns="http://www.w3.org/2000/svg" xmlns:xlink="http://www.w3.org/1999/xlink" style="pointer-events: inherit;"><g transform="translate(27,24)">
<g><svg xmlns="http://www.w3.org/2000/svg" width="1000" height="880" viewBox="0 0 1000 880"><g id="Symbols--globalStyle1/music/bg4" fill="none" fill-rule="evenodd" stroke="none" stroke-width="1"><g id="globalStyle1/music/bg4--globalStyle1/music/bg4"><path id="[color:background]background--globalStyle1/music/bg4" fill="#CBF6FF" d="M5.68434189e-14,733.483662 L1000,733.483662 C960.032737,315.60992 872.007841,120.843244 735.925313,149.183636 C531.801521,191.694224 426.121792,580.978298 351.57901,580.978298 C277.036229,580.978298 266.214781,218.295041 155.204953,269.765054 C81.198401,304.078396 29.4634167,458.651265 5.68434189e-14,733.483662 Z" opacity="1.00"></path><path id="shadow--globalStyle1/music/bg4" fill="#000" fill-opacity=".08" d="M1000,733.516338 C983.608539,682.088721 949.373151,656.374913 897.293838,656.374913 C819.174868,656.374913 749.430938,710.747421 706.077167,625.695089 C662.723396,540.642756 599.182325,550.419524 543.320954,625.695089 C487.459583,700.970654 473.868914,549.241761 381.335792,649.516338 C288.802669,749.790916 265.528362,586.780159 224.887979,586.780159 C184.247596,586.780159 205.455423,744.740016 142.615331,625.695089 C100.721936,546.331804 53.1834926,582.27222 5.68434189e-14,733.516338 L1000,733.516338 Z"></path></g></g></svg></g></g><!----><!----><g transform="translate(218,405.5)">
<g transform="translate(102.7853336471289,19)">

<g><svg xmlns="http://www.w3.org/2000/svg" width="120" height="156" viewBox="0 0 120 156"><g id="Symbols--globalStyle1/music1/womandress/head/8" fill="none" fill-rule="evenodd" stroke="none" stroke-width="1"><g id="globalStyle1/music1/womandress/head/8--globalStyle1/music1/womandress/head/8"><path id="[hair]hair--globalStyle1/music1/womandress/head/8" fill="#6b4db7" d="M92.0540717,79.6463918 C85.1176963,124.672304 65.5098558,145.292691 53.2034762,131.518032 C52.8966675,131.174617 41.1261951,108.246693 50.3489613,64.5646643 C55.6947611,39.2452125 60.6664326,28.7346159 77.0682835,28.7346159 C94.0633366,28.7346159 94.0633366,66.6037025 92.0540717,79.6463918 Z" opacity="1.00"></path><path id="shadow--globalStyle1/music1/womandress/head/8" fill="#000" fill-opacity=".2" d="M92.0540717,79.6463918 C85.1176963,124.672304 65.5098558,145.292691 53.2034762,131.518032 C52.8966675,131.174617 41.1261951,108.246693 50.3489613,64.5646643 C55.6947611,39.2452125 60.6664326,28.7346159 77.0682835,28.7346159 C94.0633366,28.7346159 94.0633366,66.6037025 92.0540717,79.6463918 Z"></path><g id="Group--globalStyle1/music1/womandress/head/8" transform="translate(33.216 19.964)"><polygon id="[skin]neck--globalStyle1/music1/womandress/head/8" fill="#f0a19e" points="5.57059381 71.1663914 39.598495 20.4386873 48.9854646 31.9638476 31.3316378 76.6420703" transform="rotate(-12 27.278 48.54)" opacity="1.00"></polygon><polygon id="shadow--globalStyle1/music1/womandress/head/8" fill="#000" fill-opacity=".04" points="5.57059381 71.1663914 39.598495 20.4386873 48.9854646 31.9638476 31.3316378 76.6420703" transform="rotate(-12 27.278 48.54)"></polygon><ellipse id="[skin]face--globalStyle1/music1/womandress/head/8" cx="45.328" cy="19.336" fill="#f0a19e" rx="10.236" ry="17.511" transform="rotate(-12 45.328 19.336)" opacity="1.00"></ellipse><path id="smile--globalStyle1/music1/womandress/head/8" fill="#FFF" fill-rule="nonzero" d="M50.6623358,30.3469927 C51.3403309,30.3466344 52.7288499,29.8862396 52.7297211,28.2396809 C52.7297211,28.2396809 48.5971791,28.2418639 48.5971791,28.2418639 C48.5963727,29.766537 49.9843407,30.3473507 50.6623358,30.3469927 Z" transform="rotate(4 50.663 29.293)"></path></g><path id="[hair]hair--globalStyle1/music1/womandress/head/8" fill="#6b4db7" d="M46.8269456,108.189973 C44.4339456,141.080573 12.6487474,178.25258 5.79465594,117.67372 C2.79837481,91.1915385 19.4614205,75.1463918 34.9734762,53.1463918 C43.7378733,40.7162703 47.2556389,32.463705 51.2496389,25.0608613 C57.5546389,13.3734679 67.0176389,5.8196268 86.1016389,19.4232958 C91.3146389,23.1386253 88.5826389,26.2062557 77.9056389,28.6251935 C77.5616389,30.1907976 74.4096394,30.5341987 72.5508546,36.258276 C72.2253771,36.7641865 67.3434196,50.6731706 57.9107807,64.8336977 C47.0932933,81.0731959 47.0932933,104.525519 46.8269456,108.189973 Z" opacity="1.00"></path><path id="hat--globalStyle1/music1/womandress/head/8" fill="#F95EB0" d="M58.5413837,11.4743986 C63.9721978,9.56316665 74.13474,8.61937254 78.543423,10.4360459 C82.2173256,11.9499404 83.2843428,14.5072216 81.7444749,18.1078896 C74.6815546,24.6581072 69.4887324,28.871669 66.1660083,30.748575 C61.1819221,33.5639339 49.0726883,36.5032929 47.0546542,30.748575 C45.0366201,24.993857 52.5073084,15.9148094 55.5193094,13.0612012 C55.6122453,12.9731526 55.7161193,12.8858763 55.8303301,12.7994752 C55.2115275,11.6304118 55.037118,10.3180968 56.4646984,10.3180968 C57.4102396,10.3180968 58.0703903,10.842173 58.489836,11.4936802 Z"></path><path id="shadow--globalStyle1/music1/womandress/head/8" fill="#000" fill-opacity=".2" d="M59.0762665,13.3703782 C59.0762665,12.3285867 58.3186984,10.3232077 56.4690828,10.3232077 C54.6194672,10.3232077 55.4590424,12.526134 56.4690828,13.7656225 C57.4791233,15.0051109 59.0762665,14.4121698 59.0762665,13.3703782 Z"></path></g></g></svg></g>
</g>
<g transform="translate(97,22.3159999999998)">

<g><svg xmlns="http://www.w3.org/2000/svg" width="184" height="404" viewBox="0 0 184 404"><g id="Symbols--globalStyle1/music1/womandress/body/2" fill="none" fill-rule="evenodd" stroke="none" stroke-width="1"><g id="globalStyle1/music1/womandress/body/2--globalStyle1/music1/womandress/body/2"><path id="[skin]leg--globalStyle1/music1/womandress/body/2" fill="#f0a19e" d="M56.1522319,170.010765 C69.0722319,169.9888 79.5652319,180.4438 79.5872666,193.3638 C79.5900171,194.981624 79.4284919,196.561378 79.1184218,198.087272 L61.1440985,292.318526 C61.0127867,292.966323 60.8183397,293.592033 60.5662333,294.187443 L60.5716319,294.188878 L60.5342406,294.262125 C60.3370295,294.717192 60.1060193,295.154233 59.8443727,295.570073 L7.74763193,394.2266 C4.29163193,392.1736 2.75563193,391.2576 2.36563193,391.3116 C2.36563193,391.3116 13.5656319,362.5986 42.3036319,287.6016 L42.3036319,287.6016 L32.7616319,194.9907 L32.8534336,194.994781 C32.8190441,194.482801 32.8011222,193.9663 32.8001941,193.4458 C32.7772319,180.5258 43.2332319,170.0338 56.1522319,170.010765 Z" opacity="1.00"></path><path id="[skin]leg--globalStyle1/music1/womandress/body/2" fill="#f0a19e" d="M81.7501319,172.391667 C93.9991319,172.3707 103.947132,182.2827 103.968165,194.5317 C103.972561,197.099895 103.540307,199.566894 102.741414,201.862439 L87.9459565,291.680972 C87.8966789,292.479817 87.7432066,293.25051 87.4989481,293.979614 L63.3780319,395.002 L57.0660319,398.398 L57.0660319,391.639 C57.0660319,391.639 69.7352169,299.138598 69.9572169,291.117598 L69.9572169,291.1326 C69.956335,290.644726 69.9942999,290.16583 70.0681951,289.69884 L61.08956,202.550305 C60.1390508,200.085907 59.6159026,197.408823 59.6110954,194.6097 C59.5891319,182.3607 69.5011319,172.4127 81.7501319,172.391667 Z" opacity="1.00"></path><path id="shadow--globalStyle1/music1/womandress/body/2" fill="#000" fill-opacity=".04" d="M60.5716319,197.5161 L103.115507,199.589899 L87.9459065,291.681781 C87.8965301,292.481069 87.7428429,293.252168 87.4982769,293.981616 L63.3780319,395.002 L57.0660319,398.398 L57.0660319,391.639 C57.0660319,391.639 69.7352169,299.138598 69.9572169,291.117598 L69.9572169,291.1326 C69.9563354,290.644899 69.994273,290.166169 70.0681166,289.699336 L60.5716319,197.5161 Z"></path><path id="[skin]hand--globalStyle1/music1/womandress/body/2" fill="#f0a19e" d="M110.999679,86.9420196 C111.299729,90.3898921 112.028159,115.807232 112.463141,132.407483 C118.307801,126.877779 126.087456,119.567285 135.928726,110.124445 L135.928726,110.124445 L138.104941,103.695432 L140.912192,98.2791393 L144.917701,93.5540265 C145.246358,93.1871613 145.451801,93.3698829 145.435887,93.4483838 C145.093495,95.0843325 144.486519,96.2832204 143.282505,97.6951232 C143.433785,99.5862716 142.249287,100.824954 143.997038,100.717192 C144.119823,100.709532 148.14663,100.3819 148.911907,102.188262 C149.422259,103.392901 148.176077,105.544497 147.259193,106.777064 L141.257217,113.672995 C141.239779,113.703151 141.221787,113.73313 141.203237,113.762919 C141.073448,113.971586 140.923228,114.159831 140.756753,114.326693 L140.09891,115.422941 C126.882984,137.441367 117.047164,153.559381 109.785239,156.942626 C108.298585,157.635359 106.881569,157.91685 105.578168,157.878189 C103.085035,157.966733 100.585515,156.730611 99.2517275,154.93209 C93.7925449,147.572844 91.1799813,98.9164308 90.2148419,87.8485539 C90.2148419,87.8485539 103.547863,87.5956308 110.999679,86.9420196 Z" opacity="1.00"></path><path id="Fill-15--globalStyle1/music1/womandress/body/2" fill="#E9E9E9" d="M55.3283624,384.924789 L56.4564319,401.9123 L83.2154319,401.8943 C83.1374319,400.2553 82.9794319,399.3263 79.7954319,399.2633 C75.0184319,399.1713 63.2633863,399.631132 63.4964319,395.1303 C63.5310667,394.461395 64.1533724,392.867855 65.0918972,390.191249 C65.3847985,389.355916 65.8779503,387.856521 66.5713528,385.693064 L55.3283624,384.924789 Z"></path><path id="Fill-15-Copy--globalStyle1/music1/womandress/body/2" fill="#000" fill-opacity=".04" d="M55.3283624,384.924789 L56.4564319,401.9123 L83.2154319,401.8943 C83.1374319,400.2553 82.9794319,399.3263 79.7954319,399.2633 C75.0184319,399.1713 63.4994319,399.6903 63.4964319,395.1303 C63.4954319,394.1573 65.2633066,390.220398 66.5713528,385.693064 L55.3283624,384.924789 Z"></path><path id="[clothes]shoes--globalStyle1/music1/womandress/body/2" fill="#FBAFEF" d="M56.4564319,403.7236 L83.2154319,403.7236 L83.2154319,401.8396 C83.2154319,401.8396 73.9774319,401.8246 56.4564319,401.8396 L56.4564319,403.7236 Z" opacity="1.00"></path><polygon id="[clothes]shoes--globalStyle1/music1/womandress/body/2" fill="#FBAFEF" points="0.00773193311 399.7891 9.10273193 401.8021 23.1777319 401.8891 23.1777319 403.7236 9.10273193 403.7236 -0.264001818 401.75635" opacity="1.00"></polygon><path id="Fill-21--globalStyle1/music1/womandress/body/2" fill="#E9E9E9" d="M4.97217989,378.56898 C2.36563193,387.16844 -0.704868067,399.53 0.147131933,400.021 C1.01713193,400.522 7.31113193,401.452 9.10213193,401.802 C10.7791319,402.13 18.7081319,402.98 23.1481319,401.889 C23.1481319,401.889 23.4841319,398.344 22.4221319,398.063 C20.8291319,397.644 15.6681319,397.762 13.5291319,397.566 C11.0701319,397.342 6.60513193,394.067 7.74713193,394.726 C7.74713193,394.726 8.41663756,395.376634 15.2296376,383.756634 L4.97217989,378.56898 Z"></path><path id="[clothes]dress--globalStyle1/music1/womandress/body/2" fill="#FBAFEF" d="M79.7095407,69.7570009 L79.715939,69.7675094 C87.0574716,70.8606562 106.977375,73.9400129 110.948641,83.443495 C111.770512,85.409941 109.423951,93.8105453 103.908958,108.645308 C103.968165,118.901953 106.382728,136.691181 105.457217,141.777411 C105.077244,143.86507 103.312388,145.778408 100.549431,147.45541 C102.177571,152.117813 103.317639,158.192954 103.968165,165.679966 C104.926884,176.714019 104.926884,241.421936 103.968165,359.803714 L103.968165,359.803714 L69.9572169,359.803714 C55.7754193,359.803714 36.275302,354.788409 11.4568651,344.757799 C14.299616,338.910235 19.8139944,328.342648 28,313.055039 C40.2790085,290.123626 28,245.4986 28,210.573367 C28,189.632393 30.4530549,169.063302 35.3591647,148.866095 C32.1524079,147.12384 29.617541,144.951529 28.0348069,142.3058 C24.8929652,137.053685 25.5550873,129.850473 25.5550873,121.897063 C25.5550873,91.4077827 27.2792024,69.3547914 56.9039912,69.7675094 C60.1798886,69.7675094 71.5514327,74.008905 74.1647996,74.3180129 C76.0874327,74.3180129 79.715939,69.5019122 79.715939,69.7675094 Z" opacity="1.00"></path><path id="[clothes]dress--globalStyle1/music1/womandress/body/2" fill="#FBAFEF" d="M84.2427865,110.809698 L114.637823,110.809698 C114.401435,97.2392774 113.328398,88.3439587 111.418714,84.1237418 C108.554188,77.7934164 94.1045048,77.7934164 88.8533894,82.9011511 C85.3526459,86.3063075 83.8157782,95.6091564 84.2427865,110.809698 Z" opacity="1.00"></path><polygon id="Path-103--globalStyle1/music1/womandress/body/2" fill="#8C8C8C" points="50.2154293 219.143444 29.1512157 182.812041 29.6274691 172.391633 62.8821184 232.740722"></polygon><g id="guitar--globalStyle1/music1/womandress/body/2" transform="rotate(5 -593.233 398.663)"><path id="Fill-21--globalStyle1/music1/womandress/body/2" fill="#063648" d="M118.172871,12.8158016 L118.172871,14.7228759 C118.172871,15.2008467 117.78434,15.5884165 117.305408,15.5884165 L117.29002,15.5884165 C116.811088,15.5884165 116.43025,15.2008467 116.43025,14.7228759 L116.43025,14.3680043 L115.331975,14.3680043 L115.68877,17.2310201 L112.139092,22.3242453 L112.146786,23.3311575 L112.15448,23.9581935 L112.228531,31.6595809 L112.237187,32.2943106 L112.294889,38.5425516 L112.303545,39.1705494 L112.361248,45.4187903 L112.368941,46.0535201 L112.426644,52.0295967 L112.435299,52.6575944 L112.485308,57.9643196 L112.493002,58.5990494 L112.535317,63.9817498 L112.551667,64.6097476 L112.59302,69.2067295 L112.601676,69.842421 L112.642067,74.7952363 L112.649761,75.4222723 L112.691115,79.8288354 L112.69977,80.4568331 L112.742085,84.467171 L112.742085,85.0961304 L112.781516,88.6698512 L112.781516,89.3055426 L112.816137,92.8792633 L112.823831,93.5072611 L112.855567,96.8165111 L112.865185,97.4435471 L112.889227,100.745103 L112.897883,101.372139 L112.922887,104.04666 L112.939236,105.606556 L103.652948,105.606556 L103.661603,104.673696 L103.661603,104.04666 L103.686608,101.372139 L103.694302,100.745103 L103.727962,97.4435471 L103.735655,96.8165111 L103.76066,93.5072611 L103.769315,92.8792633 L103.802013,89.3055426 L103.810669,88.6698512 L103.851061,85.0961304 L103.851061,84.467171 L103.892414,80.4568331 L103.90107,79.8288354 L103.942423,75.4222723 L103.942423,74.7952363 L103.991471,69.842421 L104.000126,69.2067295 L104.04148,64.6097476 L104.049173,63.9817498 L104.099182,58.5990494 L104.107838,57.9643196 L104.156885,52.6575944 L104.16554,52.0295967 L104.223243,46.0535201 L104.223243,45.4187903 L104.280946,39.1705494 L104.288639,38.5425516 L104.347304,32.2943106 L104.354998,31.6595809 L104.430011,23.9581935 L104.437705,23.3311575 L104.44636,22.3242453 L100.904376,17.2310201 L101.251554,14.3680043 L100.161935,14.3680043 L100.161935,14.7228759 C100.161935,15.2008467 99.7743647,15.5884165 99.2954323,15.5884165 L99.2790832,15.5884165 C98.8001508,15.5884165 98.4193129,15.2008467 98.4193129,14.7228759 L98.4193129,12.8158016 C98.4193129,12.3445629 98.8001508,11.9579548 99.2790832,11.9579548 L99.2954323,11.9579548 C99.7743647,11.9579548 100.161935,12.3445629 100.161935,12.8158016 L100.161935,13.137975 L101.408313,13.137975 L101.927637,8.88624756 L100.615862,8.88624756 L100.615862,9.24111918 C100.615862,9.72005161 100.227331,10.1085831 99.7493602,10.1085831 L99.7320494,10.1085831 C99.2617724,10.1085831 98.8742026,9.72005161 98.8742026,9.24111918 L98.8742026,7.33404485 C98.8742026,6.86376783 99.2617724,6.47619801 99.7320494,6.47619801 L99.7493602,6.47619801 C100.227331,6.47619801 100.615862,6.86376783 100.615862,7.33404485 L100.615862,7.65717999 L102.076703,7.65717999 L102.596989,3.41314621 L101.028437,3.41314621 L101.028437,3.76801783 C101.028437,4.23925657 100.649522,4.6277881 100.17059,4.6277881 L100.153279,4.6277881 C99.6753084,4.6277881 99.2867769,4.23925657 99.2867769,3.76801783 L99.2867769,1.86286693 C99.2867769,1.38393449 99.6753084,0.995402962 100.153279,0.995402962 L100.17059,0.995402962 C100.649522,0.995402962 101.028437,1.38393449 101.028437,1.86286693 L101.028437,2.17542323 L102.752786,2.17542323 L103.271149,-2.63698217 L113.228712,-2.63698217 L113.839399,2.17542323 L115.556054,2.17542323 L115.556054,1.86286693 C115.556054,1.38393449 115.942662,0.995402962 116.421594,0.995402962 L116.437944,0.995402962 C116.916876,0.995402962 117.296752,1.38393449 117.296752,1.86286693 L117.296752,3.76801783 C117.296752,4.23925657 116.916876,4.6277881 116.437944,4.6277881 L116.421594,4.6277881 C115.942662,4.6277881 115.556054,4.23925657 115.556054,3.76801783 L115.556054,3.41314621 L113.987502,3.41314621 L114.506826,7.65717999 L115.96959,7.65717999 L115.96959,7.33404485 C115.96959,6.86376783 116.356198,6.47619801 116.83513,6.47619801 L116.85148,6.47619801 C117.330412,6.47619801 117.717982,6.86376783 117.717982,7.33404485 L117.717982,9.24111918 C117.717982,9.72005161 117.330412,10.1085831 116.85148,10.1085831 L116.83513,10.1085831 C116.356198,10.1085831 115.96959,9.72005161 115.96959,9.24111918 L115.96959,8.88624756 L114.664547,8.88624756 L115.183871,13.137975 L116.43025,13.137975 L116.43025,12.8158016 C116.43025,12.3445629 116.811088,11.9579548 117.29002,11.9579548 L117.305408,11.9579548 C117.78434,11.9579548 118.172871,12.3445629 118.172871,12.8158016" transform="rotate(32 108.296 51.485)"></path><path id="Fill-22--globalStyle1/music1/womandress/body/2" fill="#063648" d="M88.1548452,110.143827 C85.4726312,101.476881 94.5742709,93.2071224 90.8485997,87.8725076 C86.3093204,81.3722981 82.4913249,90.4527801 74.9591988,86.7376877 C66.4336245,82.5330841 67.2241515,74.467208 62.3059578,74.4691314 L62.3059578,74.467208 C62.2934555,74.467208 62.2799916,74.467208 62.2674893,74.467208 C62.2540254,74.467208 62.2395997,74.467208 62.2270974,74.467208 L62.2270974,74.4691314 C48.3168992,74.4623995 36.2868474,79.9278071 34.7086785,89.6074355 C32.9035456,100.673852 39.0613857,101.476881 36.3791718,110.143827 C33.6959961,118.810773 13.7914488,133.15855 23.1931425,155.846291 C31.7216019,176.426922 61.4308001,175.842201 62.2674893,175.822967 C63.1022551,175.842201 92.812415,176.426922 101.340874,155.846291 C110.741606,133.15855 90.8370591,118.810773 88.1548452,110.143827" transform="rotate(32 62.267 125.148)"></path><path id="Fill-23--globalStyle1/music1/womandress/body/2" fill="#063648" d="M76.6738583,119.260903 C76.6738583,125.186971 71.8701083,129.990721 65.9440407,129.990721 C60.0179731,129.990721 55.2142231,125.186971 55.2142231,119.260903 C55.2142231,113.334836 60.0179731,108.530124 65.9440407,108.530124 C71.8701083,108.530124 76.6738583,113.334836 76.6738583,119.260903" transform="rotate(32 65.944 119.26)"></path><path id="Stroke-24--globalStyle1/music1/womandress/body/2" stroke="#FFFFFE" stroke-width="2" d="M76.6738583,119.260903 C76.6738583,125.186971 71.8701083,129.990721 65.9440407,129.990721 C60.0179731,129.990721 55.2142231,125.186971 55.2142231,119.260903 C55.2142231,113.334836 60.0179731,108.530124 65.9440407,108.530124 C71.8701083,108.530124 76.6738583,113.334836 76.6738583,119.260903 Z" transform="rotate(32 65.944 119.26)"></path><polygon id="Fill-25--globalStyle1/music1/womandress/body/2" fill="#FFFFFE" points="47.5894346 138.68154 61.7717972 138.68154 61.7717972 135.891615 47.5894346 135.891615" transform="rotate(32 54.68 137.287)"></polygon><polyline id="Fill-26--globalStyle1/music1/womandress/body/2" fill="#FFFFFE" points="95.0066973 149.564992 93.5035419 10.2447014 93.8555284 10.2408546 95.3596455 149.563069 95.0066973 149.564992" transform="rotate(32 94.432 79.903)"></polyline><path id="Fill-27--globalStyle1/music1/womandress/body/2" fill="#FFFFFE" d="M94.8468537,149.256399 C94.0620969,44.9491466 93.8861037,25.8081984 93.8861037,4.90250926 L94.2371285,4.87558133 L94.2371285,4.90250926 C94.2371285,25.8072367 94.41216,44.9481849 95.1998019,149.254475 L94.8468537,149.256399" transform="rotate(32 94.543 77.066)"></path><polygon id="Fill-28--globalStyle1/music1/womandress/body/2" fill="#FFFFFE" points="94.8002795 148.975275 95.1532277 148.975275 95.1532277 -1.56915314 94.8002795 -1.56915314" transform="rotate(32 94.977 73.703)"></polygon><path id="Fill-29--globalStyle1/music1/womandress/body/2" fill="#FFFFFE" d="M93.6125178,148.237586 L93.2595696,148.235663 C93.9673894,60.7189351 93.9798917,28.4785117 93.9798917,-2.26164148 L93.9798917,-2.30684193 L94.3328399,-2.30684193 L94.3328399,-2.26164148 C94.3328399,28.4804351 94.3203376,60.7208585 93.6125178,148.237586" transform="rotate(32 93.796 72.965)"></path><path id="Fill-30--globalStyle1/music1/womandress/body/2" fill="#FFFFFE" d="M90.5223756,147.088555 L90.1723126,147.083747 C91.4388869,65.6267647 91.6148801,36.1156791 91.6148801,2.80102373 L91.6148801,2.72023995 L91.9678283,2.72023995 L91.9678283,2.80102373 C91.9678283,36.1176026 91.7918351,65.6296499 90.5223756,147.088555" transform="rotate(32 91.07 74.904)"></path><path id="Fill-31--globalStyle1/music1/womandress/body/2" fill="#FFFFFE" d="M87.6703094,145.972628 L87.3183229,145.963973 C87.3404422,145.200373 89.4619783,41.3249298 89.4619783,6.58405593 L89.8149265,6.58405593 C89.8149265,41.3297384 87.6895436,145.210952 87.6703094,145.972628" transform="rotate(32 88.567 76.278)"></path><path id="Fill-32--globalStyle1/music1/womandress/body/2" fill="#FFFFFE" d="M126.689469,18.1222646 C126.689469,18.5059876 126.376913,18.8185439 125.99319,18.8185439 C125.607543,18.8185439 125.295949,18.5059876 125.295949,18.1222646 C125.295949,17.7375799 125.607543,17.4250236 125.99319,17.4250236 C126.376913,17.4250236 126.689469,17.7375799 126.689469,18.1222646" transform="rotate(32 125.993 18.122)"></path><path id="Fill-33--globalStyle1/music1/womandress/body/2" fill="#FFFFFE" d="M130.56424,13.8519677 C130.56424,14.2366524 130.253607,14.548247 129.867961,14.548247 C129.484238,14.548247 129.171681,14.2366524 129.171681,13.8519677 C129.171681,13.467283 129.484238,13.1556884 129.867961,13.1556884 C130.253607,13.1556884 130.56424,13.467283 130.56424,13.8519677" transform="rotate(32 129.868 13.852)"></path><path id="Fill-36--globalStyle1/music1/womandress/body/2" fill="#FFFFFE" d="M133.166663,15.6561851 C133.166663,16.0408697 132.854107,16.3524643 132.470384,16.3524643 C132.084738,16.3524643 131.774105,16.0408697 131.774105,15.6561851 C131.774105,15.2715004 132.084738,14.9599058 132.470384,14.9599058 C132.854107,14.9599058 133.166663,15.2715004 133.166663,15.6561851" transform="rotate(32 132.47 15.656)"></path><path id="Fill-37--globalStyle1/music1/womandress/body/2" fill="#FFFFFE" d="M131.117168,20.8892983 C131.117168,21.2730213 130.806535,21.5855776 130.420889,21.5855776 C130.037166,21.5855776 129.724609,21.2730213 129.724609,20.8892983 C129.724609,20.5046137 130.037166,20.1920573 130.420889,20.1920573 C130.806535,20.1920573 131.117168,20.5046137 131.117168,20.8892983" transform="rotate(32 130.42 20.889)"></path><path id="Fill-34--globalStyle1/music1/womandress/body/2" fill="#FFFFFE" d="M134.392559,9.69627928 C134.392559,10.080964 134.080002,10.3925586 133.696279,10.3925586 C133.311595,10.3925586 133,10.080964 133,9.69627928 C133,9.31159459 133.311595,9 133.696279,9 C134.080002,9 134.392559,9.31159459 134.392559,9.69627928" transform="rotate(32 133.696 9.696)"></path><path id="Fill-35--globalStyle1/music1/womandress/body/2" fill="#FFFFFE" d="M135.461039,10.3636392 C135.461039,10.7483239 135.147521,11.0599185 134.763798,11.0599185 C134.379113,11.0599185 134.067518,10.7483239 134.067518,10.3636392 C134.067518,9.97895451 134.379113,9.66735991 134.763798,9.66735991 C135.147521,9.66735991 135.461039,9.97895451 135.461039,10.3636392" transform="rotate(32 134.764 10.364)"></path></g><path id="[skin]hand--globalStyle1/music1/womandress/body/2" fill="#f0a19e" d="M146.328308,103.934098 C146.485238,103.523863 147.384298,101.580409 147.479933,101.333272 C148.035596,99.9137076 148.048279,99.6658866 148.273748,98.6122263 C148.343154,98.2890262 148.57119,97.9189604 148.958335,97.5012626 C149.014025,97.4412221 149.078184,97.3949989 149.144197,97.3680491 C149.32391,97.295996 149.46422,97.3879336 149.456437,97.5748802 C149.439978,97.9929708 149.404566,98.4482361 149.349242,98.9422087 C149.26901,99.6625101 148.732061,101.840761 148.079356,103.656834 C147.637755,104.888729 146.040499,104.690303 146.328308,103.934098 Z" transform="rotate(-36 147.875 100.942)" opacity="1.00"></path><path id="[skin]hand--globalStyle1/music1/womandress/body/2" fill="#f0a19e" d="M149.508962,93.558642 C149.642544,93.7092465 149.716403,95.956949 149.593476,97.2057548 C149.389527,99.2873228 149.177068,99.6735162 148.747165,100.577054 C148.210548,101.70269 146.366405,102.000636 147.378906,100.157905 C148.392654,98.3148876 148.102039,96.8502966 148.434506,94.9992865 C148.480876,94.743744 148.69845,94.311729 149.088185,93.7017086 C149.108298,93.669521 149.374612,93.4075572 149.508962,93.558642 Z M150.899682,93.5514398 C151.255191,94.2280169 151.549287,95.2511975 151.779799,96.6223349 C151.833796,96.9445727 152.011666,98.217303 151.973901,98.6871534 C151.838242,100.38088 150.408751,100.816038 150.512096,98.3292649 C150.528782,97.9426568 150.461121,97.1516801 150.437736,96.7854996 C150.365886,95.6902765 149.853553,94.2865367 150.103526,93.772005 C150.139488,93.6968361 150.184149,93.628313 150.233844,93.5702265 C150.464192,93.2978682 150.761954,93.2896329 150.899682,93.5514398 Z M153.266315,94.9926667 C153.552785,95.2403259 154.777865,96.723656 155.05733,97.9825497 C155.362381,99.3566962 153.881826,98.2810102 153.476577,97.3919453 C153.071327,96.5028803 153.181016,96.7631777 152.875275,96.1290177 C152.266056,94.8618961 152.667753,94.4735457 153.266315,94.9926667 Z" transform="rotate(-36 151.09 97.42)" opacity="1.00"></path><path id="[skin]hand--globalStyle1/music1/womandress/body/2" fill="#f0a19e" d="M36.399402,99.1511609 L36.3990564,154.498714 C43.1367506,156.851708 54.9858232,161.280389 77.9601596,163.867635 L77.9601596,163.867635 L84.1813262,161.841935 L89.4510872,159.683267 L95.6335046,160.165281 C96.1239005,160.216352 96.0954009,160.489477 96.0215998,160.5219 C94.4892759,161.1996 93.1603346,161.407142 91.308926,161.257009 C89.8576388,162.481302 88.1596599,162.246682 89.2669551,163.594986 C89.3959802,163.75384 92.5371293,163.665929 95.5281907,162.870488 C95.9540784,162.75751 98.058706,162.351528 98.3164668,162.285091 C99.7964672,161.906559 100.004757,161.772597 100.99524,161.340594 C101.298211,161.208276 101.732272,161.177102 102.297862,161.245874 C102.379355,161.255659 102.455138,161.281049 102.514772,161.318946 C102.678605,161.421747 102.684722,161.589132 102.528747,161.69173 C102.178434,161.921785 101.787056,162.158047 101.353351,162.402099 C100.720143,162.756105 98.6339342,163.591536 96.775868,164.123466 C95.5153891,164.484254 93.9593742,164.944026 93.7972157,165.050504 C93.5476033,165.21369 96.1139953,164.685964 98.2057989,164.430315 C100.296782,164.175049 101.3187,163.086264 103.019565,162.277209 C103.254331,162.165745 103.733404,162.089689 104.455581,162.048607 C104.494509,162.046384 104.863522,162.109257 104.818643,162.304404 C104.774526,162.501187 102.987117,163.870269 101.89949,164.498894 C100.087305,165.54702 99.6485604,165.600288 98.6621063,165.779537 C97.4331276,166.002189 95.266934,166.479688 94.6815074,166.636199 C94.0956995,166.791892 97.5420003,166.608477 99.9579305,165.991626 C100.33273,165.895502 101.073037,165.60405 101.416785,165.475615 C102.446767,165.091894 103.64685,164.19878 104.212622,164.289369 C104.295641,164.302424 104.373122,164.325031 104.443922,164.354735 C104.769781,164.496469 104.863285,164.778408 104.652907,164.985023 C104.105611,165.518982 103.207771,166.093952 101.958623,166.708296 C101.664214,166.85255 100.493808,167.38936 100.032301,167.488086 C98.0814842,167.908957 95.5553713,168.049551 95.3640255,168.185567 C95.1726217,168.323602 96.6268416,168.095472 98.419205,167.919721 C98.8280245,167.879412 100.453936,167.565248 100.764733,167.526843 C101.174663,167.476061 101.445753,167.382502 102.134276,167.23068 C103.50968,166.927802 103.795508,167.40578 103.151897,167.868173 C102.507465,168.33095 96.4994878,169.82139 93.7507694,170.157376 C92.2447985,170.340946 89.3107855,170.95448 85.4681578,170.898606 L77.785556,170.342606 L76.7063978,170.45834 C41.278357,174.230325 23.2901634,173.039852 20.1965468,166.40557 C19.2925184,164.466875 18.9254646,162.754018 18.9624349,161.256178 C16.4582123,146.515915 15.6499899,108.867238 15.6499899,99.1511609 L15.6499899,99.1511609 L36.399402,99.1511609 Z" transform="rotate(26 60.236 135.867)" opacity="1.00"></path><path id="[clothes]dress--globalStyle1/music1/womandress/body/2" fill="#FBAFEF" d="M27.1493988,110.723494 L57.5444355,110.723494 C57.3080469,97.1530736 56.2350104,88.2577549 54.3253263,84.037538 C51.4608,77.7072126 37.011117,77.7072126 31.7600016,82.8149473 C28.2592581,86.2201037 26.7223905,95.5229527 27.1493988,110.723494 Z" transform="rotate(19 42.312 94.924)" opacity="1.00"></path><polygon id="Path-102--globalStyle1/music1/womandress/body/2" fill="#8C8C8C" points="81.250915 69.9469292 89.3745184 71.4273422 150.359899 88.3427385 146.466475 93.4104151"></polygon></g></g></svg></g>
</g></g><g transform="translate(410,411)">
<g transform="translate(144,0) scale(-1, 1)">
<g><svg xmlns="http://www.w3.org/2000/svg" width="144" height="416" viewBox="0 0 144 416"><g id="Symbols--globalStyle1/objects/music/microphone" fill="none" fill-rule="evenodd" stroke="none" stroke-width="1"><g id="globalStyle1/objects/music/microphone--globalStyle1/objects/music/microphone"><polygon id="[color:music2]microphone--globalStyle1/objects/music/microphone" fill="#737373" points="83.2875728 127.48334 50.4425728 160.44334 51.9975728 161.99234 69.6745728 144.25334 70.1455728 401.819 67.2585728 401.824 67.2685728 407.674 45.6275728 407.712 45.6425728 416 97.1595728 415.91 97.1445728 407.622 75.2365728 407.66 75.2275728 401.81 72.3395728 401.815 71.8645728 142.05434 124.182973 90.6142397 122.627973 89.0662397 86.2615728 124.49834" opacity="1.00"></polygon><polygon id="Path-114--globalStyle1/objects/music/microphone" fill="#535353" points="124.756329 76.7302097 128.848938 81.2101762 107.159903 103.705627 103.465785 100.24626" transform="rotate(7 116.157 90.218)"></polygon><circle id="Oval--globalStyle1/objects/music/microphone" cx="130.825" cy="78.557" r="6.979" fill="#D8D8D8" transform="rotate(30 130.825 78.557)"></circle><path id="Path-115--globalStyle1/objects/music/microphone" fill="#484848" fill-rule="nonzero" d="M126.573595,72.5159875 C126.66326,75.0702914 127.56326,77.4361952 129.288529,79.6342971 C130.864385,81.6420362 133.115889,82.5933829 136.124958,82.4895208 L136.58201,82.4660275 L136.691623,84.081078 C132.942144,84.335554 130.018378,83.1859903 128.015154,80.6337569 C126.203339,78.3253904 125.189437,75.8134676 124.985756,73.1149609 L124.955826,72.5727768 L126.573595,72.5159875 Z" transform="rotate(7 130.824 78.316)"></path><path id="[color:music2]microphone--globalStyle1/objects/music/microphone" fill="#737373" d="M114.908109,87.249491 C116.457859,90.4172666 118.125927,92.9448185 118.901389,92.9448185 C119.723902,92.9448185 119.902375,92.0867542 119.288696,91.381329 L119.179056,91.2653448 L120.07966,90.3426538 C121.536198,91.7643258 121.147088,94.2341777 118.901389,94.2341777 C117.941454,94.2341777 116.224298,92.0948195 113.749922,87.8161032 L114.908109,87.249491 Z" transform="rotate(7 117.346 90.742)" opacity="1.00"></path><path id="Path-116--globalStyle1/objects/music/microphone" fill="#000" fill-rule="nonzero" d="M104.496132,100.5 L104.871363,100.830456 C103.161535,102.771958 101.798019,104.754043 100.780215,106.776637 L100.296137,107.763421 C99.0057056,110.274855 96.6947511,113.134393 88.616116,122.476051 L84.3936891,127.355491 C78.0981876,134.669123 74.7168926,138.957891 72.9052827,142.192063 C68.4776019,150.096569 68.2736787,163.458942 71.3581618,170.738551 C72.8957733,174.367429 75.6264705,237.797335 76.1285835,290.81021 C76.5932209,339.866433 75.4283842,377.856598 72.3717741,399.452157 C72.3516249,399.594515 72.3219914,399.802864 72.2828736,400.077203 L72.2406881,396.719484 C72.2709526,396.47318 72.2938518,396.287116 72.3093859,396.161292 C75.0245536,374.168717 76.0702192,337.440285 75.6286059,290.814946 L75.5580443,284.42681 C74.9113447,232.984779 72.3343373,174.323994 70.8977838,170.933621 C67.7555952,163.517823 67.9619829,149.993956 72.4690569,141.947713 C74.2309513,138.802296 77.429714,134.708861 83.2815551,127.882744 L91.2948048,118.601192 C97.0576304,111.879776 98.8674214,109.514774 99.9444177,107.350748 L100.081004,107.069282 C101.060351,104.99945 102.389903,102.974427 104.069059,100.99414 L104.496132,100.5 Z"></path></g></g></svg></g>
</g></g></svg>