<svg width="23" height="23" viewBox="0 0 23 23" fill="none" xmlns="http://www.w3.org/2000/svg">
<g clip-path="url(#clip0)">
<path d="M12.1957 11.1667C11.8162 11.1667 11.5082 10.8331 11.5082 10.422V9.67716H5.09155V10.422C5.09155 10.8331 4.78355 11.1667 4.40405 11.1667C4.02455 11.1667 3.71655 10.8331 3.71655 10.422V8.93237C3.71655 8.52124 4.02455 8.18758 4.40405 8.18758H12.1957C12.5752 8.18758 12.8832 8.52124 12.8832 8.93237V10.422C12.8832 10.8331 12.5752 11.1667 12.1957 11.1667Z" fill="#DADADA"/>
<path d="M8.29974 17.87C7.92024 17.87 7.61224 17.5364 7.61224 17.1252V9.18081C7.61224 8.76969 7.92024 8.43602 8.29974 8.43602C8.67924 8.43602 8.98724 8.76969 8.98724 9.18081V17.1252C8.98724 17.5364 8.67924 17.87 8.29974 17.87Z" fill="#DADADA"/>
<path d="M9.44571 18.1182H7.15405C6.77455 18.1182 6.46655 17.7845 6.46655 17.3734C6.46655 16.9623 6.77455 16.6286 7.15405 16.6286H9.44571C9.82521 16.6286 10.1332 16.9623 10.1332 17.3734C10.1332 17.7845 9.82521 18.1182 9.44571 18.1182Z" fill="#DADADA"/>
<path d="M19.5291 9.67716H15.4041C15.0246 9.67716 14.7166 9.34349 14.7166 8.93237C14.7166 8.52124 15.0246 8.18758 15.4041 8.18758H19.5291C19.9086 8.18758 20.2166 8.52124 20.2166 8.93237C20.2166 9.34349 19.9086 9.67716 19.5291 9.67716Z" fill="#DADADA"/>
<path d="M19.5291 13.6494H15.4041C15.0246 13.6494 14.7166 13.3158 14.7166 12.9046C14.7166 12.4935 15.0246 12.1598 15.4041 12.1598H19.5291C19.9086 12.1598 20.2166 12.4935 20.2166 12.9046C20.2166 13.3158 19.9086 13.6494 19.5291 13.6494Z" fill="#DADADA"/>
<path d="M19.5291 17.6217H15.4041C15.0246 17.6217 14.7166 17.288 14.7166 16.8769C14.7166 16.4658 15.0246 16.1321 15.4041 16.1321H19.5291C19.9086 16.1321 20.2166 16.4658 20.2166 16.8769C20.2166 17.288 19.9086 17.6217 19.5291 17.6217Z" fill="#DADADA"/>
<path d="M20.4457 22.091H3.48739C2.0968 22.091 0.966553 20.8666 0.966553 19.3601V2.97471C0.966553 1.46824 2.0968 0.243805 3.48739 0.243805H20.4457C21.8363 0.243805 22.9666 1.46824 22.9666 2.97471V19.3601C22.9666 20.8666 21.8363 22.091 20.4457 22.091ZM3.48739 1.73339C2.8558 1.73339 2.34155 2.29049 2.34155 2.97471V19.3601C2.34155 20.0443 2.8558 20.6014 3.48739 20.6014H20.4457C21.0773 20.6014 21.5916 20.0443 21.5916 19.3601V2.97471C21.5916 2.29049 21.0773 1.73339 20.4457 1.73339H3.48739Z" fill="#DADADA"/>
<path d="M22.2791 5.20841H1.65405C1.27455 5.20841 0.966553 4.87474 0.966553 4.46362C0.966553 4.05249 1.27455 3.71883 1.65405 3.71883H22.2791C22.6586 3.71883 22.9666 4.05249 22.9666 4.46362C22.9666 4.87474 22.6586 5.20841 22.2791 5.20841Z" fill="#DADADA"/>
</g>
<defs>
<clipPath id="clip0">
<rect width="22" height="22" fill="white" transform="translate(0.966583 0.166824)"/>
</clipPath>
</defs>
</svg>
